<svg width="21" height="18" viewBox="0 0 21 18" fill="none" xmlns="http://www.w3.org/2000/svg">
<g clip-path="url(#clip0_0_141)">
<path d="M11.9194 12.8582C12.8757 12.7216 13.7373 12.1787 14.2732 11.3555L19.937 2.59539C20.3784 1.91237 20.2663 1.00869 19.6708 0.451763C19.0754 -0.105159 18.1682 -0.154197 17.5167 0.336176L9.22589 6.5569C8.38525 7.18738 7.88787 8.17162 7.88087 9.22242L11.9194 12.8582ZM11.2329 13.7479L7.16983 10.0911C5.07524 10.1681 3.39746 11.895 3.39746 14.0106C3.39746 14.1472 3.40447 14.2838 3.41848 14.4169C3.48153 15.0298 3.06121 15.6918 2.44474 15.6918H2.27661C1.65664 15.6918 1.15576 16.1927 1.15576 16.8127C1.15576 17.4327 1.65664 17.9335 2.27661 17.9335H7.32044C9.48859 17.9335 11.2434 16.1787 11.2434 14.0106C11.2434 13.923 11.2399 13.8354 11.2364 13.7479H11.2329Z" fill="#8B95A8"/>
</g>
<defs>
<clipPath id="clip0_0_141">
<path d="M0.034668 0H20.21V17.9336H0.034668V0Z" fill="white"/>
</clipPath>
</defs>
</svg>
