<svg width="23" height="18" viewBox="0 0 23 18" fill="none" xmlns="http://www.w3.org/2000/svg">
<g clip-path="url(#clip0_0_147)">
<path d="M12.4768 3.81083C12.1861 3.42554 11.6817 3.26792 11.2263 3.41853C10.771 3.56915 10.4592 3.99997 10.4592 4.48334V13.4501C10.4592 14.0701 10.9601 14.571 11.5801 14.571C12.2001 14.571 12.7009 14.0701 12.7009 13.4501V7.84589L15.7272 11.881C15.9374 12.1647 16.2702 12.3293 16.6239 12.3293C16.9777 12.3293 17.3104 12.1647 17.5206 11.881L20.5469 7.84589V13.4501C20.5469 14.0701 21.0478 14.571 21.6677 14.571C22.2877 14.571 22.7886 14.0701 22.7886 13.4501V4.48334C22.7886 3.99997 22.4804 3.57265 22.0215 3.41853C21.5627 3.26441 21.0583 3.42203 20.7711 3.81083L16.6239 9.34153L12.4768 3.81083ZM0.371582 4.48334C0.371582 5.10331 0.872462 5.60419 1.49243 5.60419H3.73413V13.4501C3.73413 14.0701 4.23501 14.571 4.85499 14.571C5.47496 14.571 5.97584 14.0701 5.97584 13.4501V5.60419H8.21754C8.83751 5.60419 9.33839 5.10331 9.33839 4.48334C9.33839 3.86337 8.83751 3.36249 8.21754 3.36249H1.49243C0.872462 3.36249 0.371582 3.86337 0.371582 4.48334Z" fill="#8B95A8"/>
</g>
<defs>
<clipPath id="clip0_0_147">
<path d="M0.371582 0H22.7886V17.9336H0.371582V0Z" fill="white"/>
</clipPath>
</defs>
</svg>
