<svg width="15" height="18" viewBox="0 0 15 18" fill="none" xmlns="http://www.w3.org/2000/svg">
<g clip-path="url(#clip0_0_153)">
<path d="M1.22656 2.24176C1.22656 1.00532 2.23183 6.10352e-05 3.46826 6.10352e-05H11.3142C12.5507 6.10352e-05 13.5559 1.00532 13.5559 2.24176V15.692C13.5559 16.9284 12.5507 17.9337 11.3142 17.9337H3.46826C2.23183 17.9337 1.22656 16.9284 1.22656 15.692V2.24176ZM5.70997 15.692C5.70997 16.0002 5.96216 16.2524 6.27039 16.2524H8.51209C8.82033 16.2524 9.07252 16.0002 9.07252 15.692C9.07252 15.3837 8.82033 15.1315 8.51209 15.1315H6.27039C5.96216 15.1315 5.70997 15.3837 5.70997 15.692ZM11.3142 2.24176H3.46826V13.4503H11.3142V2.24176Z" fill="#8B95A8"/>
</g>
<defs>
<clipPath id="clip0_0_153">
<path d="M0.666016 0H14.1162V17.9336H0.666016V0Z" fill="white"/>
</clipPath>
</defs>
</svg>
