<?xml version="1.0" encoding="UTF-8"?><svg id="Layer_2" xmlns="http://www.w3.org/2000/svg" viewBox="0 0 24 24"><defs><style>.cls-1{fill:#94a2b8;}</style></defs><path class="cls-1" d="M4.98,10.63h.58c1.06,2.42,3.47,4.11,6.28,4.11s5.22-1.69,6.28-4.11h.58c.38,0,.69-.31.69-.69v-4.11c0-.38-.31-.69-.69-.69h-.58c-1.06-2.42-3.47-4.11-6.28-4.11s-5.22,1.69-6.28,4.11h-.58c-.38,0-.69.31-.69.69v4.11c0,.38.31.69.69.69ZM6.7,6.86c0-.95.92-1.71,2.06-1.71h6.17c1.14,0,2.06.77,2.06,1.71v1.03c0,2.27-1.84,4.11-4.11,4.11h-2.06c-2.27,0-4.11-1.84-4.11-4.11v-1.03ZM9.78,9.94l.51-1.54,1.54-.51-1.54-.51-.51-1.54-.51,1.54-1.54.51,1.54.51.51,1.54ZM16.28,14.8c-1.28.83-2.8,1.31-4.44,1.31s-3.16-.48-4.44-1.31c-2.89.3-5.16,2.73-5.16,5.7v.41c0,1.14.92,2.06,2.06,2.06h3.43v-2.74c0-.76.61-1.37,1.37-1.37h5.49c.76,0,1.37.61,1.37,1.37v2.74h3.43c1.14,0,2.06-.92,2.06-2.06v-.41c0-2.97-2.27-5.4-5.16-5.7ZM13.9,20.23c-.38,0-.69.31-.69.69s.31.69.69.69.69-.31.69-.69-.31-.69-.69-.69ZM9.78,20.23c-.38,0-.69.31-.69.69v2.06h1.37v-2.06c0-.38-.31-.69-.69-.69Z"/></svg>