<?xml version="1.0" encoding="UTF-8"?><svg id="Layer_3" xmlns="http://www.w3.org/2000/svg" viewBox="0 0 24 24"><defs><style>.cls-1{fill:#9898fd;}</style></defs><g id="surface1"><path class="cls-1" d="M4.89,1.04c4.73,0,9.45,0,14.18,0,.79,0,1.59.25,2.23.71.85.6,1.44,1.56,1.61,2.6.07.4.05.81.05,1.21v12.74c0,.44.02.88-.05,1.32-.12.74-.45,1.44-.93,2-.51.58-1.19,1.01-1.93,1.2-.36.1-.74.13-1.11.13H5.56c-.4,0-.81.02-1.21-.04-.74-.11-1.45-.44-2-.95-.54-.49-.94-1.13-1.15-1.83-.11-.38-.17-.79-.17-1.19V5.35c0-.24,0-.48.02-.72.06-.69.31-1.36.71-1.92.4-.57.94-1.03,1.57-1.32.49-.23,1.03-.34,1.57-.35M6.87,6.68v.03s-.02,0-.02,0c-.01.24-.02.49-.07.73,0,.02-.02.04-.03.07,0,.02-.01.05-.02.07,0,.02-.02.04-.03.07,0,.01,0,.04,0,.06h-.02s0,.05-.01.08c0,.02-.02.04-.03.07,0,.02-.01.05-.02.07-.03.1-.07.2-.1.3h0s-.01.05-.02.08c0,.02-.02.04-.03.07,0,.02-.01.04-.02.06-.03.08-.06.16-.08.24h0s-.01.05-.02.08c0,.02-.02.04-.03.07,0,.02-.01.05-.02.07-.03.1-.07.2-.1.3h0s-.01.05-.02.08c0,.02-.02.04-.03.07,0,.02-.01.04-.02.06-.03.08-.06.16-.08.24h0s0,.05-.01.08c0,.02-.02.05-.03.07,0,.02-.01.04-.02.07-.03.1-.07.2-.1.3h0s-.01.05-.02.08c0,.02-.02.04-.03.07-.03.1-.07.2-.1.31h0s-.01.05-.02.08c0,.02-.02.04-.03.07,0,.02-.01.04-.02.07-.03.1-.07.2-.1.31h0s-.01.05-.02.08c0,.02-.02.04-.03.07-.03.1-.07.2-.1.31h0s-.01.05-.02.08c0,.02-.02.04-.03.07,0,.02-.01.04-.02.07-.03.1-.07.2-.1.3h0s-.01.05-.02.08c0,.02-.02.05-.03.07,0,.02-.01.04-.02.06-.03.08-.06.16-.08.24h-.01s0,.05-.01.08c0,.02-.02.05-.03.07,0,.02-.01.04-.02.07-.04.1-.07.21-.11.32,0,.02-.01.04-.02.07,0,.02-.02.04-.02.07-.03.1-.07.2-.1.3h0s0,.05-.01.08l-.03.07s-.01.04-.02.07c-.03.1-.07.2-.1.3h0s-.01.05-.02.08c0,.02-.02.04-.03.07,0,.02-.01.04-.02.06-.03.08-.06.16-.08.24h0s0,.05-.01.08c0,.02-.02.05-.03.07,0,.02-.01.04-.02.07-.03.1-.07.2-.1.3h0s-.01.05-.02.08c0,.02-.02.04-.03.07-.04.13-.08.25-.13.38,0,.02-.01.05-.02.07,0,.02-.02.04-.02.07-.03.1-.07.2-.1.3h0s-.01.05-.02.08c0,.02-.02.05-.03.07-.03.11-.09.22-.1.35.02.02.04.04.06.07.6,0,1.2,0,1.79,0,.07,0,.12-.04.16-.09.02-.09.05-.18.08-.27,0-.02.01-.05.02-.07,0-.02.02-.05.02-.07,0-.02.01-.04.02-.07,0-.02.01-.05.02-.07.04-.14.09-.28.13-.43,0-.02.01-.05.02-.07,0-.02.01-.05.02-.07,0-.02.01-.04.02-.07l.13-.42s.01-.05.02-.07c0-.02.01-.05.02-.07l.02-.07s.01-.04.02-.07c.04-.13.08-.25.11-.38,1.14,0,2.28,0,3.41,0,0,.03.01.06.02.09,0,.02.02.04.03.07,0,.02.01.04.02.07,0,.02.01.04.02.07,0,.02.02.04.03.07,0,.03.01.05.02.08h0c.05.17.11.34.17.51,0,.02.02.04.03.07,0,.02.01.04.02.06,0,.02.02.05.03.07,0,.02.01.05.02.07,0,.02.02.04.03.07,0,.03.01.05.02.08h0c.04.15.1.29.15.44l.02.06.02.07s.01.04.02.07c0,.02.01.05.02.07,0,.02.02.04.03.07l.02.08h.03s0,.02-.01.03c.02.02.04.04.06.06.08,0,.17,0,.25,0h1.71s.08,0,.11-.01c.03-.06.01-.12,0-.18-.04-.08-.06-.17-.09-.25,0-.03-.01-.05-.02-.08h0c-.02-.08-.05-.16-.08-.24,0-.03-.01-.05-.02-.08h0c-.02-.08-.05-.16-.08-.24,0-.03-.01-.05-.02-.08,0,0,0,0,0,0-.02-.06-.04-.11-.06-.17,0-.02-.02-.04-.03-.06,0-.03-.01-.05-.02-.08h0c-.02-.06-.04-.11-.06-.17,0-.02-.02-.05-.03-.07,0-.03-.01-.05-.02-.08h0c-.02-.06-.04-.11-.06-.17,0-.02-.02-.05-.03-.07,0-.03-.01-.05-.02-.08h-.01c-.02-.06-.04-.11-.06-.17,0-.02-.02-.04-.02-.07-.03-.08-.06-.17-.09-.25,0-.03-.01-.05-.02-.08h0c-.03-.08-.05-.16-.08-.24,0-.03-.01-.05-.02-.08h0c-.02-.08-.05-.16-.08-.24,0-.03-.01-.05-.02-.08,0,0,0,0-.01,0-.01-.04-.02-.07-.03-.1,0-.02-.02-.04-.02-.06,0-.02-.02-.05-.03-.07,0-.03-.01-.05-.02-.08h0c-.02-.08-.05-.16-.08-.23,0-.03-.01-.05-.02-.08h0c-.02-.06-.04-.11-.06-.17,0-.02-.02-.05-.03-.07,0-.03-.01-.05-.02-.08h0c-.02-.06-.04-.11-.06-.17,0-.02-.02-.04-.03-.07,0-.03-.01-.05-.02-.08h0c-.02-.06-.04-.11-.06-.17,0-.02-.02-.04-.02-.07-.03-.08-.06-.17-.09-.25,0-.03-.01-.05-.02-.08h0c-.03-.08-.05-.16-.08-.24,0-.03-.01-.05-.02-.08h0c-.02-.08-.05-.16-.08-.23,0-.03-.01-.05-.02-.08h0c-.02-.06-.04-.11-.06-.17,0-.02-.02-.04-.03-.07,0-.03-.01-.05-.02-.08h0c-.02-.06-.04-.11-.06-.17,0-.02-.02-.04-.03-.07,0-.03-.01-.05-.02-.08h0c-.02-.06-.04-.11-.06-.17,0-.02-.02-.05-.03-.07,0-.03-.01-.05-.02-.08h0c-.02-.06-.04-.11-.06-.17,0-.02-.02-.05-.02-.07-.03-.08-.06-.16-.09-.25,0-.03-.01-.05-.02-.08h0c-.03-.08-.05-.16-.08-.24,0-.03-.01-.05-.02-.08h0c-.02-.06-.04-.12-.06-.17,0-.02-.02-.04-.02-.06,0-.03-.01-.05-.02-.08h0c-.02-.06-.04-.11-.06-.17,0-.02-.02-.04-.03-.07,0-.03-.01-.05-.02-.08h0c-.02-.06-.04-.11-.06-.17,0-.02-.02-.04-.03-.07,0-.03-.01-.05-.02-.08h0c-.02-.06-.04-.11-.06-.17,0-.02-.02-.05-.03-.07,0-.03-.01-.05-.02-.08h0c-.02-.06-.04-.11-.06-.17,0-.02-.02-.04-.03-.06,0-.03-.01-.05-.02-.08h0c-.02-.06-.04-.11-.06-.17,0-.02-.02-.05-.02-.07-.03-.08-.06-.16-.09-.25,0-.03-.01-.05-.02-.08,0,0,0,0,0,0-.02-.03-.03-.06-.05-.08-.1-.02-.2,0-.3-.01h-2.08s-.08,0-.12,0M15.41,9.12s-.05.01-.07.02h0c-.16.07-.31.16-.45.24-.4.25-.74.6-1.01.99-.01.02-.03.04-.04.07-.01.02-.03.04-.04.07-.05.09-.1.18-.15.27-.01.03-.03.06-.04.09,0,.01-.02.03-.03.05v.03s-.02,0-.03,0c0,.01.01.03.02.04h-.02s-.03.08-.05.12c-.01.03-.03.07-.04.1h0s-.01.05-.02.08c0,.02-.02.04-.03.07,0,.02-.01.05-.02.07-.28.91-.29,1.91-.02,2.83,0,.02.01.05.02.07,0,.02.01.05.02.07,0,.02.02.04.03.07,0,.03.01.05.02.08h.01s.04.1.06.15c0,0,0,0,0,0,.02.06.05.11.08.17.01.02.03.04.04.07,0,0,0,.01,0,.02.02.04.05.08.07.12.11.19.24.37.39.54.06.07.11.13.18.18.08.08.17.15.26.22.08.06.17.12.26.18.13.07.26.14.4.2.04.01.07.03.11.04.11.04.23.08.35.11.03,0,.06.01.09.02.53.13,1.08.13,1.63.12.53-.04,1.07-.12,1.57-.32.04-.01.08-.03.12-.05,0,0,0,0,0,0,.07-.03.12-.09.12-.17,0-.52,0-1.03,0-1.55h-.02s0-.02,0-.02c-.03.01-.07.03-.1.04-.09.03-.17.06-.26.09-.09.02-.17.05-.26.07-.63.12-1.28.23-1.91.07-.03,0-.06-.01-.08-.02-.11-.03-.22-.07-.33-.11-.05-.02-.1-.05-.15-.07-.19-.1-.35-.24-.48-.4-.09-.12-.16-.26-.22-.4,0-.03-.01-.05-.02-.08h-.01s-.02-.08-.04-.12c-.03-.11-.05-.21-.06-.32.99,0,1.97,0,2.96,0,.31.02.63.06.94.03.17-.01.34-.04.52-.03.03-.02.06-.04.08-.06l.02-.05c.06-.66.11-1.34-.07-1.99-.02-.05-.03-.1-.04-.16,0-.02-.02-.04-.03-.07,0-.03-.01-.05-.02-.08h0s-.02-.07-.03-.1c-.03-.06-.05-.12-.08-.18-.01-.02-.02-.05-.03-.07-.02-.03-.03-.06-.04-.09-.05-.1-.11-.2-.17-.3-.16-.25-.36-.47-.59-.65-.06-.05-.13-.09-.19-.13-.04-.02-.07-.04-.11-.07-.07-.04-.14-.07-.21-.1,0,0,0,0,0,0-.04-.01-.08-.03-.12-.05-.04-.01-.08-.03-.11-.05-.02,0-.04-.01-.07-.02l-.07-.02c-.19-.05-.37-.1-.57-.12-.26-.04-.53-.02-.79-.02-.33.02-.67.07-.99.19Z"/><path class="cls-1" d="M8.09,8.52s.02-.1.03-.15c0,.01,0,.04,0,.06.02.05.03.11.05.16.05.19.1.37.15.56.01.05.03.1.04.16.02.08.04.15.07.23.04.12.07.24.11.36,0,.02.01.05.02.07.04.12.07.24.11.36,0,.02.01.05.02.07.03.1.06.19.09.29,0,.02.01.05.02.07.03.1.06.19.09.29.03.1.06.19.09.29,0,.02.02.04.02.07,0,.02.01.04.02.07,0,.02.02.05.03.07,0,.02.01.05.02.07,0,.02.01.04.02.07,0,.02.01.04.02.07,0,.02.01.04.02.07,0,.02.01.04.02.07l.02.07c.04.12.07.23.11.35-.77,0-1.54,0-2.3,0,0-.03.02-.05.03-.08,0-.02.01-.05.02-.07.07-.2.13-.4.2-.61,0-.02.01-.05.02-.07.01-.05.03-.1.04-.16.01-.05.03-.11.04-.16.02-.11.05-.21.09-.31,0-.02.01-.05.02-.07s.01-.04.02-.07c.03-.1.06-.19.09-.29.03-.1.06-.19.09-.29.03-.1.06-.19.09-.29,0-.02.01-.05.02-.07.02-.07.04-.15.07-.22,0-.02.01-.05.02-.07.02-.08.04-.15.07-.22.02-.08.04-.17.07-.25,0-.03.01-.06.02-.09,0-.03.01-.06.02-.09,0-.03.01-.06.02-.09.01-.07.03-.14.04-.2Z"/><path class="cls-1" d="M16.24,10.61c.14-.04.29-.04.44-.04.15,0,.29.03.43.08h0s.08.04.11.05c.04.02.07.05.11.07.21.14.37.35.46.59,0,.02.02.04.02.07.04.14.06.29.06.44-.04.02-.08.04-.12.05-.2.03-.41.02-.61.02-.63,0-1.27,0-1.91,0,.01-.18.07-.35.13-.52.03-.08.07-.15.11-.22.08-.13.17-.24.29-.34.08-.06.16-.11.24-.16.08-.04.16-.07.24-.09Z"/></g></svg>