<?xml version="1.0" encoding="UTF-8"?><svg id="Layer_3" xmlns="http://www.w3.org/2000/svg" viewBox="0 0 24 24"><defs><style>.cls-1{fill:#94a2b8;}</style></defs><path class="cls-1" d="M21.15,7.23h-6.41v-1.83h6.41v1.83ZM22.73,16.38c-.4,1.19-1.86,2.75-4.67,2.75s-5.09-1.58-5.09-5.19,2.13-5.42,5-5.42,4.54,1.63,4.92,4.05c.07.46.1,1.09.09,1.96h-7.35c.12,2.94,3.19,3.03,4.2,1.86h2.9ZM15.7,12.72h4.54c-.1-1.42-1.04-2.03-2.27-2.03-1.34,0-2.08.7-2.28,2.03ZM6.93,19.12H1.02V5.42h6.36c5.01.07,5.11,4.98,2.49,6.32,3.17,1.15,3.27,7.38-2.94,7.38ZM3.76,10.89h3.28c2.3,0,2.66-2.75-.29-2.75h-3s0,2.75,0,2.75ZM6.87,13.64h-3.1v2.76h3.06c2.8,0,2.63-2.76.05-2.76Z"/></svg>