<?xml version="1.0" encoding="UTF-8"?><svg id="Layer_3" xmlns="http://www.w3.org/2000/svg" viewBox="0 0 24 24"><defs><style>.cls-1{fill:#0acf83;}.cls-2{fill:#ff7262;}.cls-3{fill:#1abcfe;}.cls-4{fill:#f24e1e;}.cls-5{fill:#a259ff;}</style></defs><path id="path0_fill" class="cls-1" d="M8.35,22.98c2.02,0,3.65-1.64,3.65-3.65v-3.65h-3.65c-2.02,0-3.65,1.64-3.65,3.65s1.64,3.65,3.65,3.65Z"/><path id="path1_fill" class="cls-5" d="M4.7,12.03c0-2.02,1.64-3.65,3.65-3.65h3.65v7.3h-3.65c-2.02,0-3.65-1.64-3.65-3.65Z"/><path id="path1_fill-2" class="cls-4" d="M4.7,4.73c0-2.02,1.64-3.65,3.65-3.65h3.65v7.3h-3.65c-2.02,0-3.65-1.64-3.65-3.65Z"/><path id="path2_fill" class="cls-2" d="M12,1.08h3.65c2.02,0,3.65,1.64,3.65,3.65s-1.64,3.65-3.65,3.65h-3.65V1.08Z"/><path id="path3_fill" class="cls-3" d="M19.3,12.03c0,2.02-1.64,3.65-3.65,3.65s-3.65-1.64-3.65-3.65,1.64-3.65,3.65-3.65,3.65,1.64,3.65,3.65Z"/></svg>