<?xml version="1.0" encoding="UTF-8"?><svg id="Layer_3" xmlns="http://www.w3.org/2000/svg" viewBox="0 0 24 24"><defs><style>.cls-1{fill:#ff9a01;}</style></defs><g id="surface1"><path class="cls-1" d="M4.55,1.06c4.9-.04,9.83-.02,14.74,0,2.28.09,3.9,2.27,3.68,4.48,0,4.44,0,8.89,0,13.34,0,.46-.05.92-.19,1.35-.47,1.55-1.97,2.73-3.6,2.75-4.66,0-9.33,0-14,0-1.14.05-2.27-.36-3.06-1.2-.7-.72-1.1-1.73-1.1-2.73,0-4.4,0-8.83,0-13.24-.23-2.29,1.1-4.48,3.5-4.74M16.2,5.96c-1.43.55-.74,2.74.78,2.25,1.33-.55.75-2.69-.75-2.26M8.65,6.71c-.22,1.38-.87,2.81-1.27,4.09-.54,1.59-1.07,3.12-1.62,4.74-.04.26-.49.93-.07.97.48.02.98,0,1.47,0,.08,0,.17-.01.23-.05.09-.05.14-.15.17-.25.19-.57.38-1.2.57-1.79.04-.14.16-.24.31-.24.98,0,1.98,0,2.96,0,.12,0,.22.06.28.17.13.32.23.68.35,1,.11.32.21.65.33.94.04.1.11.16.21.19.6.04,1.23.03,1.83,0,.27-.05.07-.37.03-.55-.69-1.97-1.39-3.99-2.08-5.97-.36-1.02-.72-2.07-1.07-3.06-.03-.09-.07-.18-.13-.23-.07-.06-.19-.07-.29-.07-.63,0-1.28,0-1.92,0-.09,0-.21,0-.27.07M15.56,9.16c-.06,2.36,0,4.75-.02,7.11,0,.14.05.25.19.27.55.02,1.12.02,1.67,0,.18-.02.2-.21.2-.36,0-2.3,0-4.6,0-6.89-.01-.41-.73-.18-1.02-.24-.3,0-.61-.02-.9.02-.04.01-.08.03-.1.07v.03Z"/><path class="cls-1" d="M9.84,8.59c.02-.08.03-.16.05-.24.04.15.08.29.12.44.13.48.27.95.42,1.41.04.12.08.24.11.36.09.27.16.55.25.82.07.24.16.48.23.73.01.05.03.1.04.15-.77,0-1.53,0-2.3,0,.03-.12.08-.24.11-.37.14-.41.24-.84.38-1.26.07-.23.14-.47.21-.7.13-.45.27-.89.37-1.35Z"/></g></svg>