<?xml version="1.0" encoding="UTF-8"?><svg id="Layer_3" xmlns="http://www.w3.org/2000/svg" viewBox="0 0 24 24"><defs><style>.cls-1{fill:#31a8ff;}</style></defs><g id="surface1"><path class="cls-1" d="M4.58,1.07c4.9-.05,9.82-.01,14.73-.01,2.38.12,3.91,2.32,3.68,4.61,0,4.31,0,8.62,0,12.93,0,.54-.01,1.05-.18,1.58-.45,1.57-1.96,2.77-3.6,2.79-4.8,0-9.6,0-14.4,0-1-.03-1.97-.48-2.65-1.21-.69-.72-1.08-1.72-1.09-2.72,0-4.61,0-9.24,0-13.85-.1-2,1.46-3.92,3.47-4.1M6.64,6.8c-.03,3.15,0,6.33,0,9.47,0,.17.07.27.25.26,1.86,0,3.73,0,5.6,0,.32,0,.28-.35.33-.57.29-1.73.4-1.27-1.23-1.33-.91,0-1.83,0-2.74,0-.11,0-.17-.06-.18-.18-.06-2.56.1-5.19-.06-7.73-.24-.14-.63-.03-.91-.06-.31.01-.63-.02-.94.02-.06.01-.1.04-.12.09M17.45,9c-.56.16-1.05.58-1.45.94-.02,0-.03,0-.04-.03-.02-.1-.02-.28-.05-.4-.04-.19-.09-.42-.29-.46-.5-.04-1.02,0-1.52-.01-.13,0-.18.1-.17.23.04.4.05.81.05,1.21.02,1.95-.01,3.92.01,5.87.01.13.12.19.24.19.5,0,1.01,0,1.52,0,.08,0,.18,0,.24-.05.07-.06.06-.19.06-.28,0-1.49,0-2.98,0-4.46.01-.19.19-.3.34-.38.54-.29,1.18-.41,1.79-.4.08,0,.18,0,.22-.09.07-.59.02-1.23.02-1.83-.04-.32-.73-.1-.94-.07h-.04Z"/></g></svg>