<?xml version="1.0" encoding="UTF-8"?><svg id="Layer_3" xmlns="http://www.w3.org/2000/svg" viewBox="0 0 24 24"><defs><style>.cls-1{fill:#31a8ff;}</style></defs><g id="surface1"><path class="cls-1" d="M4.91,1.03c4.81,0,9.62-.02,14.42,0,1.97.09,3.6,1.85,3.64,3.81.02,4.66,0,9.32,0,13.99,0,.48-.05.96-.2,1.41-.48,1.55-2,2.72-3.63,2.72-4.64,0-9.3,0-13.94,0-1.16.06-2.33-.37-3.11-1.24-.84-.88-1.14-2.12-1.07-3.31,0-4.42,0-8.83,0-13.25-.11-2.13,1.67-4.14,3.84-4.13M6.73,6.65c-.23.05-.72-.11-.76.22-.02.96,0,1.94,0,2.91,0,2.16,0,4.33,0,6.49,0,.18.11.28.28.27.48,0,.97,0,1.45,0,.16,0,.27-.1.26-.26,0-.89,0-1.81,0-2.7.02-.25.3-.16.48-.17,1.35.05,2.88-.16,3.76-1.28.97-1.25.93-3.24-.15-4.41-1.36-1.44-3.5-1.08-5.29-1.07M15.66,9.06c-1.64.37-2.41,2.43-1.22,3.67.37.38.95.69,1.47.91.41.19,1,.31,1.23.74.09.24-.07.49-.32.56-.72.2-1.54.04-2.25-.22-.2-.05-.46-.28-.67-.27-.06.03-.05.13-.06.2.03.51-.06,1.06.04,1.56.07.15.24.18.39.24.87.3,1.86.36,2.76.21,1.68-.22,2.72-1.95,1.82-3.45-.49-.69-1.21-.97-1.97-1.28-.37-.19-.92-.3-1.07-.75-.1-.98,2.11-.46,2.6-.21.1.04.25.12.34.03.08-.11.03-.4.05-.59-.03-.36.08-.81-.08-1.13-.22-.19-.55-.21-.83-.27-.72-.1-1.48-.14-2.2.04h-.04Z"/><path class="cls-1" d="M7.97,8.48c.19-.02.37,0,.56-.01.34,0,.67-.02,1.01.04.34.07.69.18.95.44.28.28.41.69.4,1.08,0,.33-.06.67-.27.93-.17.21-.39.37-.63.47-.39.14-.8.22-1.22.21-.27,0-.53.01-.8-.02,0-1.05,0-2.1,0-3.14Z"/></g></svg>