<?xml version="1.0" encoding="UTF-8"?><svg id="Layer_3" xmlns="http://www.w3.org/2000/svg" viewBox="0 0 24 24"><defs><style>.cls-1{fill:#9a9aff;}</style></defs><g id="surface1"><path class="cls-1" d="M4.85,1.05c4.72,0,9.44,0,14.16,0,1.09-.03,2.19.44,2.92,1.25.87.9,1.14,2.18,1.06,3.4,0,4.5.02,9,0,13.5-.06,1.99-1.79,3.77-3.8,3.77-4.68,0-9.36,0-14.04,0-1.12.05-2.25-.4-3-1.23-.68-.73-1.07-1.72-1.07-2.72,0-4.61,0-9.23,0-13.84-.11-2.1,1.63-4.09,3.75-4.12M7.95,6.61c-.51,0-1.03.03-1.54.04-.08,0-.13.05-.14.13-.02,3.16,0,6.33,0,9.5,0,.1.02.19.12.22.28.04.59,0,.88.01.29,0,.59.01.87,0,.05,0,.08-.03.1-.06.08-.96,0-1.96.03-2.93,0-.05.02-.09.05-.11.86-.03,1.8.04,2.64-.25,1.67-.48,2.48-2.18,2.18-3.84-.46-2.58-2.97-2.87-5.16-2.71M18.08,8.94c-.62.14-1.2.58-1.62,1.01-.02,0-.03,0-.03-.03-.09-1.05-.14-.9-1.11-.9-.28.03-.6-.06-.86.04-.03.03-.05.08-.05.13.03.39.04.77.04,1.16.04,1.96,0,3.92.02,5.89-.01.16.02.33.21.31.56,0,1.15.01,1.72,0,.1-.02.14-.09.14-.19,0-1.52,0-3.06,0-4.58.11-.64,1.66-.83,2.19-.83.11,0,.17-.03.17-.14,0-.28,0-.59,0-.88-.02-.33.06-.69-.04-.99-.15-.14-.57-.02-.76.01h-.04Z"/><path class="cls-1" d="M8.32,8.5c.84-.07,2.01-.16,2.59.59.34.45.35,1.16.14,1.64-.34.7-1.2.88-1.91.9-.25,0-.51.02-.76-.02-.05-.03-.09-.06-.09-.13.01-.98-.03-1.98.02-2.96l.02-.02Z"/></g></svg>