<?xml version="1.0" encoding="UTF-8"?><svg id="Layer_1" xmlns="http://www.w3.org/2000/svg" xmlns:xlink="http://www.w3.org/1999/xlink" viewBox="0 0 100 100"><defs><style>.cls-1{fill:url(#linear-gradient-3);}.cls-2{fill:url(#linear-gradient-2);}.cls-3{fill:url(#linear-gradient);}</style><linearGradient id="linear-gradient" x1="16.66" y1="43.46" x2="90.27" y2="43.46" gradientUnits="userSpaceOnUse"><stop offset="0" stop-color="#f792ce"/><stop offset="1" stop-color="#c54eff"/></linearGradient><linearGradient id="linear-gradient-2" x1="10.01" y1="60.15" x2="72.91" y2="60.15" gradientUnits="userSpaceOnUse"><stop offset="0" stop-color="#40d5ff"/><stop offset="1" stop-color="#6d3fff"/></linearGradient><linearGradient id="linear-gradient-3" x1="11.74" y1="67.38" x2="77.34" y2="67.38" gradientUnits="userSpaceOnUse"><stop offset="0" stop-color="#fec84b"/><stop offset="1" stop-color="#c3f468"/></linearGradient></defs><g id="surface1"><path d="M17.92,1.04c10.76-.01,21.55-.01,32.32-.01,10.39,0,20.79,0,31.17,0,1.83,0,3.66.24,5.4.8,6.85,2.09,11.88,8.8,12.18,15.95.07,21.47.04,42.99,0,64.44-.33,8.8-7.86,16.61-16.79,16.75-21.44,0-42.9.03-64.34,0-4.51-.1-8.89-2.11-11.98-5.41-4.04-4.08-5.24-9.95-4.88-15.53.02-20.05-.03-40.09.02-60.14C1.32,9.04,8.88,1.18,17.8,1.04"/><path class="cls-3" d="M89.82,12.58c-3.79,16.19-19.57,25.79-33.6,32.66-10.31,4.45-21.02,8.41-29.3,16.33-3.94,3.67-7.76,8.02-10.27,12.83.09.04.33-.2.44-.35,8.05-9.12,19.61-14.79,31.27-17.51,3.29-.76,6.63-1.3,9.89-2.18,7.62-2.06,15.6-4.33,22.1-8.87,5.64-7.03,9.11-15.62,9.69-24.57.33-2.72.23-5.49.05-8.21,0-.17-.16-.21-.24-.19"/><path class="cls-2" d="M72.25,34.02c-9.72,6.02-21,8.31-31.71,11.84-16.14,5.82-27.43,20.06-30.1,36.92-.07,1.23-.63,2.66-.37,3.8.65-1.47.93-3.31,1.63-4.83,5.16-14.01,16.56-25.16,29.88-31.54,10.68-4.72,21.82-8.98,31.16-16.17.16-.13.26-.38.04-.3-.16.05-.37.18-.44.22"/><path class="cls-1" d="M75.87,49.53c-5.88,2.84-12.29,4.82-18.56,6.39-7.14,1.51-14.32,2.89-21.01,5.95-9.71,4.48-20.61,12.19-24.22,22.66-.14.47-.35.88-.32,1.36.11.06.28-.21.37-.43.34-.72.7-1.42,1.09-2.11,10.61-17.67,22.16-15.28,39.41-20.23,9.31-2.27,17.93-7.19,24.61-14.04.58-.69-1.21.43-1.25.39l-.1.05Z"/></g></svg>