<?xml version="1.0" encoding="UTF-8"?><svg id="Layer_1" xmlns="http://www.w3.org/2000/svg" viewBox="0 0 24 24"><defs><style>.cls-1{fill:none;stroke:#94a2b8;stroke-linecap:round;stroke-linejoin:round;stroke-width:2px;}</style></defs><path class="cls-1" d="M21.64,3.64l-1.28-1.28c-.47-.47-1.24-.48-1.71,0,0,0,0,0,0,0L2.36,18.64c-.47.47-.48,1.24,0,1.71,0,0,0,0,0,0l1.28,1.28c.46.47,1.22.49,1.7.02,0,0,.02-.02.02-.02L21.64,5.36c.47-.46.49-1.22.02-1.7,0,0-.02-.02-.02-.02"/><path class="cls-1" d="M14,7l3,3"/><path class="cls-1" d="M5,6v4"/><path class="cls-1" d="M19,14v4"/><path class="cls-1" d="M10,2v2"/><path class="cls-1" d="M7,8H3"/><path class="cls-1" d="M21,16h-4"/><path class="cls-1" d="M11,3h-2"/></svg>