<?xml version="1.0" encoding="UTF-8"?><svg id="Layer_3" xmlns="http://www.w3.org/2000/svg" viewBox="0 0 24 24"><defs><style>.cls-1{fill:#ff61f6;}</style></defs><g id="surface1"><path class="cls-1" d="M4.57,1.06c4.9-.04,9.82-.02,14.72,0,2.12.08,3.79,2.1,3.66,4.19,0,4.52,0,9.06,0,13.59,0,.46-.05.92-.18,1.35-.46,1.56-1.98,2.76-3.63,2.77-4.67,0-9.34,0-14,0-1.11.05-2.24-.38-3-1.2-.69-.72-1.09-1.71-1.1-2.7,0-4.5,0-9,0-13.5-.21-2.16,1.28-4.29,3.5-4.49M17.71,5.89c-.05.06-.04.18-.04.27,0,.83,0,1.65,0,2.48,0,.08,0,.18-.08.22-1.78-.03-3.35.48-4.22,2.13-.51.96-.54,2.17-.27,3.2.41,1.57,1.94,2.49,3.53,2.49.9.03,2.08-.17,2.85-.49.24-.06.33-.26.29-.5-.1-3.2,0-6.41-.04-9.61.02-.21-.1-.26-.27-.25-.57.02-1.17-.05-1.72.03M4.29,6.73c-.02.13.11.26.16.39.79,1.36,1.59,2.73,2.39,4.1.11.18.25.37.11.57-.9,1.51-1.82,3.01-2.71,4.52-.07.13-.01.2.12.2.6,0,1.22,0,1.82,0,.23.01.36-.14.45-.34.22-.4.45-.83.64-1.2.37-.72.7-1.31,1.05-2.02.02-.05.04-.08.07-.07.48.73.89,1.59,1.31,2.37.16.33.37.74.53,1.04.03.04.06.09.1.12.07.06.19.07.29.07.67,0,1.34.01,2.01,0,.2-.01.14-.19.06-.31-.88-1.47-1.75-2.92-2.63-4.38-.1-.16-.23-.34-.1-.53.85-1.43,1.71-2.86,2.56-4.28.08-.11.14-.29-.05-.3-.56-.02-1.17,0-1.74,0-.09,0-.19.01-.26.07-.17.18-.26.48-.39.7-.49.92-.98,1.83-1.43,2.76-.12.22-.19-.11-.25-.19-.53-1.04-1.17-2.05-1.65-3.13-.07-.15-.23-.22-.39-.21-.59,0-1.21,0-1.8,0-.08,0-.18,0-.23.05v.02Z"/><path class="cls-1" d="M16.54,10.71c.33-.07.7-.12,1.03-.02.16.1.08.32.1.49,0,1.15,0,2.31,0,3.45,0,.3-.4.2-.61.23-.89.05-1.73-.43-1.94-1.35-.33-1.17.12-2.46,1.38-2.8h.03Z"/></g></svg>