<?xml version="1.0" encoding="UTF-8"?>
<svg xmlns="http://www.w3.org/2000/svg" xmlns:xlink="http://www.w3.org/1999/xlink" width="100px" height="100px" viewBox="0 0 100 100" version="1.1">
<g id="surface1">
<path style=" stroke:none;fill-rule:nonzero;fill:rgb(31.37255%,27.450982%,90.196079%);fill-opacity:1;" d="M 67.921875 20 L 54.5 20 C 53.25 20 52.046875 20.46875 51.125 21.3125 L 35.765625 35.375 C 35.75 35.390625 35.734375 35.421875 35.71875 35.4375 C 33.125 37.875 33.171875 41.765625 35.390625 44.1875 C 37.375 46.359375 41.546875 46.9375 44.15625 44.609375 C 44.171875 44.59375 44.203125 44.59375 44.21875 44.578125 L 56.703125 33.140625 C 57.71875 32.21875 59.3125 32.28125 60.234375 33.296875 C 61.171875 34.3125 61.09375 35.890625 60.078125 36.828125 L 56 40.5625 L 78.75 59.03125 C 79.203125 59.40625 79.609375 59.8125 79.984375 60.234375 L 79.984375 30 L 71.453125 21.46875 C 70.53125 20.53125 69.246094 20 67.921875 20 Z M 85 30.03125 L 85 65.015625 C 85 67.78125 87.234375 70.015625 90 70.015625 L 100 70.015625 L 100 30.03125 Z M 92.5 65.015625 C 91.125 65.015625 90 63.890625 90 62.515625 C 90 61.140625 91.125 60.015625 92.5 60.015625 C 93.875 60.015625 95 61.140625 95 62.515625 C 95 63.890625 93.875 65.015625 92.5 65.015625 Z M 0 70 L 10 70 C 12.765625 70 15 67.765625 15 65 L 15 30.03125 L 0 30.03125 Z M 7.5 60.015625 C 8.875 60.015625 10 61.140625 10 62.515625 C 10 63.890625 8.875 65.015625 7.5 65.015625 C 6.125 65.015625 5 63.890625 5 62.515625 C 5 61.140625 6.125 60.015625 7.5 60.015625 Z M 75.609375 62.921875 L 52.28125 43.984375 L 47.59375 48.28125 C 42.953125 52.515625 35.84375 52.109375 31.703125 47.59375 C 27.5 43 27.828125 35.890625 32.390625 31.703125 L 45.171875 20 L 32.078125 20 C 30.75 20 29.484375 20.53125 28.546875 21.46875 L 20 30 L 20 64.984375 L 22.859375 64.984375 L 37 77.78125 C 41.28125 81.265625 47.578125 80.609375 51.0625 76.328125 L 51.09375 76.296875 L 53.890625 78.71875 C 56.375 80.75 60.046875 80.359375 62.0625 77.875 L 66.96875 71.84375 L 67.8125 72.53125 C 69.953125 74.265625 73.109375 73.953125 74.84375 71.796875 L 76.328125 69.96875 C 78.078125 67.8125 77.75 64.671875 75.609375 62.921875 Z M 75.609375 62.921875 "/>
</g>
</svg>
