<?xml version="1.0" encoding="UTF-8"?><svg id="Layer_1" xmlns="http://www.w3.org/2000/svg" viewBox="0 0 24 24"><defs><style>.cls-1{fill:none;stroke:#5046e6;stroke-linecap:round;stroke-linejoin:round;stroke-width:2px;}</style></defs><path class="cls-1" d="M16,16l2,2,4-4"/><path class="cls-1" d="M21,10v-2c0-.71-.38-1.37-1-1.73l-7-4c-.62-.36-1.38-.36-2,0l-7,4c-.62.36-1,1.02-1,1.73v8c0,.71.38,1.37,1,1.73l7,4c.62.36,1.38.36,2,0l2-1.14"/><path class="cls-1" d="M7.5,4.27l9,5.15"/><polyline class="cls-1" points="3.29 7 12 12 20.71 7"/><line class="cls-1" x1="12" y1="22" x2="12" y2="12"/></svg>