<?xml version="1.0" encoding="UTF-8"?><svg id="Layer_1" xmlns="http://www.w3.org/2000/svg" viewBox="0 0 24 24"><defs><style>.cls-1{fill:#5046e6;}</style></defs><path class="cls-1" d="M12,2C6.48,2,2,6.48,2,12s4.48,10,10,10,10-4.48,10-10S17.52,2,12,2ZM12.01,18c-.55,0-1-.45-1-1s.44-1,1-1h0c.55,0,1,.45,1,1s-.45,1-1,1ZM12.24,13.95c-.1.04-.21.05-.32.05-.42,0-.81-.26-.95-.68-.17-.52.11-1.09.63-1.27.6-.2,2.32-1.02,2.32-2.05,0-.85-.54-1.61-1.34-1.89-.5-.18-1.05-.15-1.53.08-.48.23-.84.64-1.02,1.14-.18.52-.75.8-1.28.61-.52-.18-.79-.75-.61-1.28.35-1.01,1.08-1.82,2.04-2.28.96-.46,2.05-.52,3.06-.17,1.6.56,2.68,2.08,2.67,3.78,0,2.64-3.31,3.82-3.68,3.95Z"/></svg>