<?xml version="1.0" encoding="UTF-8"?><svg id="Layer_3" xmlns="http://www.w3.org/2000/svg" viewBox="0 0 24 24"><defs><style>.cls-1{fill:#94a2b8;}</style></defs><path class="cls-1" d="M21.05,1.04H3.1c-1.1,0-1.98.89-1.98,1.98v17.95c0,1.1.89,1.98,1.98,1.98h17.95c1.1,0,1.98-.89,1.98-1.98V3.02c0-1.1-.89-1.98-1.98-1.98ZM7.9,19.97c0,.32-.26.58-.58.58h-2.46c-.32,0-.58-.26-.58-.58v-10.3c0-.32.26-.58.58-.58h2.46c.32,0,.58.26.58.58v10.3ZM6.1,8.12c-1.29,0-2.33-1.04-2.33-2.33s1.04-2.33,2.33-2.33,2.33,1.04,2.33,2.33-1.04,2.33-2.33,2.33ZM20.74,20.01c0,.29-.24.53-.53.53h-2.64c-.29,0-.53-.24-.53-.53v-4.83c0-.72.21-3.16-1.88-3.16-1.62,0-1.95,1.67-2.02,2.42v5.57c0,.29-.24.53-.53.53h-2.55c-.29,0-.53-.24-.53-.53v-10.39c0-.29.24-.53.53-.53h2.55c.29,0,.53.24.53.53v.9c.6-.9,1.5-1.6,3.4-1.6,4.22,0,4.2,3.94,4.2,6.11v4.98h0Z"/></svg>