<?xml version="1.0" encoding="UTF-8"?><svg id="Layer_1" xmlns="http://www.w3.org/2000/svg" viewBox="0 0 24 24"><defs><style>.cls-1{fill:#5046e6;}</style></defs><path class="cls-1" d="M11.02,2.81c.1-.54.62-.9,1.17-.8.41.08.72.39.8.8l1.05,5.56c.15.81.79,1.44,1.59,1.59l5.56,1.05c.54.1.9.62.8,1.17-.08.41-.39.72-.8.8l-5.56,1.05c-.81.15-1.44.79-1.59,1.59l-1.05,5.56c-.1.54-.62.9-1.17.8-.41-.08-.72-.39-.8-.8l-1.05-5.56c-.15-.81-.79-1.44-1.59-1.59l-5.56-1.05c-.54-.1-.9-.62-.8-1.17.08-.41.39-.72.8-.8l5.56-1.05c.81-.15,1.44-.79,1.59-1.59l1.05-5.56Z"/><path class="cls-1" d="M20,7c-.55,0-1-.45-1-1V2c0-.55.45-1,1-1s1,.45,1,1v4c0,.55-.45,1-1,1Z"/><path class="cls-1" d="M22,5h-4c-.55,0-1-.45-1-1s.45-1,1-1h4c.55,0,1,.45,1,1s-.45,1-1,1Z"/><circle class="cls-1" cx="4" cy="20" r="2"/></svg>