<?xml version="1.0" encoding="UTF-8"?>
<svg xmlns="http://www.w3.org/2000/svg" xmlns:xlink="http://www.w3.org/1999/xlink" width="100px" height="100px" viewBox="0 0 100 100" version="1.1">
<g id="surface1">
<path style=" stroke:none;fill-rule:nonzero;fill:rgb(100%,100%,100%);fill-opacity:1;" d="M 90.0625 9.027344 C 89.109375 8.492188 88.089844 8.433594 87.117188 8.617188 C 79.078125 12.1875 17.675781 43.570312 10.113281 46.976562 C 8.847656 47.667969 8 49.664062 8.53125 51.121094 C 9.097656 53.050781 11.121094 53.960938 12.691406 54.992188 C 16.628906 57.457031 21.410156 60.445312 25.101562 62.761719 C 26.152344 63.375 27.039062 64.082031 28.09375 64.445312 C 29.648438 65 31.625 64.492188 32.773438 63.402344 C 40.617188 56.527344 62.347656 36.320312 72.027344 27.957031 C 72.539062 27.617188 73.886719 27.375 73.769531 28.269531 C 73.628906 28.804688 72.5625 29.726562 72.054688 30.316406 C 70.292969 32.179688 68.15625 34.4375 66.382812 36.34375 C 56.917969 46.519531 41.164062 62.996094 37.945312 66.6875 C 37.429688 67.308594 37.324219 67.804688 37.164062 68.816406 C 36.820312 73.359375 37.105469 79.75 37.015625 83.777344 C 37.023438 84.902344 36.996094 85.96875 37.417969 87.050781 C 37.917969 88.410156 39.1875 89.597656 40.703125 89.597656 C 41.960938 89.632812 42.984375 88.945312 43.863281 88.132812 C 45.664062 86.445312 47.8125 84.199219 49.890625 82.125 C 50.804688 81.214844 51.957031 80.035156 53.324219 80.621094 C 58.746094 83.8125 66.3125 89.324219 70.5 91.914062 C 71.085938 92.246094 71.910156 92.496094 72.640625 92.519531 C 74.476562 92.6875 76.257812 91.363281 76.65625 89.640625 C 78.179688 81.839844 87.628906 34.835938 91.722656 14.113281 C 92 12.335938 91.757812 10.09375 90.078125 9.035156 Z M 90.0625 9.027344 "/>
</g>
</svg>
