<?xml version="1.0" encoding="UTF-8"?>
<svg xmlns="http://www.w3.org/2000/svg" xmlns:xlink="http://www.w3.org/1999/xlink" width="500px" height="500px" viewBox="0 0 500 499" version="1.1">
<g id="surface1">
<path style=" stroke:none;fill-rule:nonzero;fill:rgb(0%,0%,0%);fill-opacity:1;" d="M 496.449219 305.976562 C 496.734375 306.164062 496.902344 306.488281 496.898438 306.832031 C 496.605469 319.324219 489.222656 325.367188 488.914062 325.621094 C 488.613281 325.859375 488.203125 325.90625 487.859375 325.738281 C 469.746094 317.035156 446.078125 313.019531 441.0625 312.234375 L 440.601562 315 C 460.824219 321.390625 486.855469 341.433594 487.117188 341.636719 C 487.414062 341.871094 487.554688 342.246094 487.480469 342.617188 C 485.777344 351.015625 475.484375 359.828125 475.046875 360.199219 C 474.691406 360.496094 474.179688 360.515625 473.816406 360.246094 C 464.265625 353.234375 447.398438 346.023438 443.328125 344.328125 L 435.808594 361.992188 C 435.65625 362.359375 435.292969 362.597656 434.894531 362.597656 L 410.839844 362.597656 C 409.996094 364.554688 407.082031 370.585938 400.890625 376.6875 C 394.105469 383.375 381.933594 391.34375 362.507812 391.34375 C 343.082031 391.34375 329.972656 383.324219 322.371094 376.589844 C 315.34375 370.367188 311.691406 364.207031 310.675781 362.347656 L 202.808594 363.101562 C 202.457031 365.570312 201.023438 372.628906 195.597656 379.757812 C 184.632812 394.164062 166.167969 397.191406 152.609375 397.191406 C 139.050781 397.191406 120.488281 394.285156 108.941406 380.421875 C 103.222656 373.558594 101.496094 366.75 101.042969 364.378906 C 87.558594 364.382812 77.671875 364.515625 77.566406 364.523438 C 77.210938 364.53125 76.875 364.339844 76.695312 364.03125 L 67.015625 347.523438 C 54.257812 351.78125 30.113281 371.214844 29.867188 371.410156 C 29.574219 371.644531 29.179688 371.699219 28.835938 371.546875 C 23.789062 369.300781 15.957031 351.785156 15.078125 349.792969 C 14.914062 349.421875 14.996094 348.988281 15.285156 348.695312 C 31.503906 332.398438 57.625 325.46875 63.695312 324.039062 C 63.175781 322.523438 63.253906 320.613281 63.386719 319.378906 C 42.644531 320.144531 13.667969 334.488281 13.375 334.636719 C 13.050781 334.792969 12.671875 334.773438 12.371094 334.570312 C 7.785156 331.476562 6.097656 315.640625 5.917969 313.84375 C 5.882812 313.496094 6.039062 313.15625 6.324219 312.949219 C 7.027344 312.429688 23.976562 300.3125 61.589844 300.015625 L 62.867188 292.832031 C 56.667969 292.679688 26.613281 292.394531 9.417969 300.597656 C 9.15625 300.722656 8.851562 300.726562 8.585938 300.605469 C 8.320312 300.484375 8.125 300.257812 8.039062 299.980469 C 7.75 299.011719 0.996094 276.105469 3.765625 269.1875 C 3.859375 268.957031 4.039062 268.773438 4.261719 268.664062 C 4.523438 268.535156 30.511719 256.40625 61.085938 265.796875 C 58 260.351562 50.417969 245.453125 45.726562 223.546875 C 42.222656 207.203125 40.988281 190.195312 42.046875 173.003906 C 43.371094 151.519531 48.308594 129.675781 56.71875 108.085938 C 56.808594 107.847656 56.992188 107.652344 57.21875 107.542969 C 57.816406 107.265625 72.117188 100.730469 96.671875 102.113281 C 111.054688 102.921875 125.964844 106.308594 140.992188 112.191406 C 159.570312 119.457031 178.378906 130.570312 196.90625 145.222656 C 199.519531 143.820312 210.378906 138.40625 227.390625 135.4375 C 245.011719 132.367188 272.734375 131.53125 305 144.871094 C 307.648438 142.503906 321.128906 130.859375 341.628906 120.015625 C 362.722656 108.855469 395.789062 96.261719 433.558594 99.632812 C 433.851562 99.660156 434.113281 99.808594 434.28125 100.046875 C 434.414062 100.230469 447.34375 118.660156 454.585938 147.71875 C 458.832031 164.785156 460.324219 182.136719 459.019531 199.292969 C 457.441406 220.023438 451.746094 240.523438 442.089844 260.253906 C 448.601562 258.523438 468.71875 254.230469 491.8125 259.722656 C 492.195312 259.8125 492.488281 260.121094 492.5625 260.503906 C 492.683594 261.140625 495.457031 276.152344 493.664062 281 C 493.511719 281.402344 493.105469 281.667969 492.679688 281.644531 C 492.34375 281.625 459.332031 279.917969 439.03125 285.847656 L 438.894531 289.902344 C 444.863281 290.316406 476.765625 293.089844 496.449219 305.976562 Z M 488.117188 323.667969 C 489.632812 322.199219 494.492188 316.789062 494.894531 307.332031 C 473.625 293.71875 438.179688 291.839844 437.816406 291.820312 C 437.277344 291.796875 436.859375 291.339844 436.875 290.800781 L 437.070312 285.074219 C 437.082031 284.652344 437.363281 284.285156 437.765625 284.160156 C 456.597656 278.417969 486.75 279.40625 491.996094 279.628906 C 492.894531 275.636719 491.5 265.855469 490.726562 261.503906 C 463.527344 255.234375 440.742188 262.695312 440.511719 262.769531 C 440.128906 262.898438 439.707031 262.785156 439.445312 262.480469 C 439.183594 262.175781 439.128906 261.746094 439.308594 261.386719 C 449.453125 241.285156 455.414062 220.359375 457.03125 199.191406 C 458.332031 182.257812 456.863281 165.125 452.675781 148.277344 C 446.097656 121.8125 434.761719 104.296875 432.917969 101.566406 C 395.851562 98.382812 363.371094 110.761719 342.613281 121.738281 C 319.988281 133.699219 306.015625 146.621094 305.875 146.75 C 305.59375 147.011719 305.175781 147.09375 304.8125 146.9375 C 272.789062 133.546875 245.269531 134.347656 227.828125 137.375 C 208.910156 140.660156 197.417969 147.195312 197.304688 147.265625 C 196.949219 147.46875 196.507812 147.433594 196.191406 147.179688 C 177.683594 132.472656 158.898438 121.332031 140.359375 114.070312 C 125.546875 108.265625 110.855469 104.910156 96.699219 104.097656 C 74.695312 102.835938 60.769531 108.195312 58.414062 109.183594 C 50.179688 130.4375 45.339844 151.925781 44.03125 173.058594 C 42.976562 190.058594 44.191406 206.875 47.644531 223.035156 C 53.527344 250.558594 64.007812 266.847656 64.109375 267.007812 C 64.339844 267.363281 64.320312 267.828125 64.0625 268.160156 C 63.796875 268.492188 63.355469 268.625 62.953125 268.488281 L 62.398438 268.300781 C 33.730469 258.679688 8.769531 268.84375 5.476562 270.285156 C 3.808594 275.613281 7.617188 291.316406 9.617188 298.316406 C 29.371094 289.507812 62.652344 290.828125 64.085938 290.886719 C 64.371094 290.902344 64.636719 291.035156 64.816406 291.257812 C 64.992188 291.484375 65.066406 291.769531 65.019531 292.050781 L 63.394531 301.175781 C 63.308594 301.652344 62.898438 301.992188 62.421875 301.992188 C 42.835938 302.058594 28.941406 305.464844 20.734375 308.316406 C 13.488281 310.835938 9.285156 313.367188 7.957031 314.234375 C 8.476562 319.007812 10.207031 329.773438 13.058594 332.578125 C 17.476562 330.425781 44.621094 317.609375 64.527344 317.371094 C 64.824219 317.367188 65.113281 317.496094 65.300781 317.722656 C 65.492188 317.949219 65.570312 318.257812 65.515625 318.550781 C 65.207031 320.140625 65.046875 323.046875 65.929688 324.074219 C 66.15625 324.339844 66.226562 324.707031 66.113281 325.039062 C 65.996094 325.367188 65.714844 325.617188 65.375 325.6875 C 65.070312 325.753906 35.144531 331.96875 17.167969 349.613281 C 19.574219 354.96875 25.515625 366.988281 29.140625 369.449219 C 32.933594 366.417969 55.148438 348.960938 67.1875 345.390625 C 67.625 345.257812 68.097656 345.449219 68.328125 345.839844 L 78.113281 362.527344 C 80.476562 362.5 89.828125 362.394531 101.878906 362.394531 C 102.386719 362.394531 102.808594 362.765625 102.867188 363.265625 C 102.878906 363.347656 103.925781 371.355469 110.539062 379.242188 C 119.292969 389.6875 133.835938 395.210938 152.605469 395.210938 C 171.375 395.210938 185.652344 389.476562 193.953125 378.640625 C 200.222656 370.445312 200.925781 362.117188 200.9375 362.042969 C 200.976562 361.527344 201.402344 361.125 201.917969 361.125 L 311.261719 360.363281 L 311.269531 360.363281 C 311.644531 360.363281 311.992188 360.574219 312.164062 360.910156 C 312.199219 360.988281 315.777344 368.125 323.746094 375.164062 C 331.085938 381.644531 343.761719 389.359375 362.503906 389.359375 C 372.828125 389.359375 387.617188 386.921875 399.429688 375.335938 C 406.519531 368.386719 409.207031 361.328125 409.238281 361.257812 C 409.382812 360.871094 409.753906 360.613281 410.167969 360.613281 L 434.238281 360.613281 L 441.882812 342.644531 C 442.089844 342.148438 442.667969 341.914062 443.167969 342.113281 C 443.992188 342.445312 463.167969 350.214844 474.335938 358.167969 C 476.453125 356.25 483.730469 349.296875 485.398438 342.816406 C 481.640625 339.976562 457.652344 322.160156 439.199219 316.636719 C 438.714844 316.492188 438.417969 316.015625 438.503906 315.527344 L 439.269531 310.941406 C 439.359375 310.414062 439.855469 310.054688 440.386719 310.125 C 440.65625 310.164062 467.640625 314 488.121094 323.664062 Z M 488.117188 323.667969 "/>
<path style=" stroke:none;fill-rule:nonzero;fill:rgb(0%,0%,0%);fill-opacity:1;" d="M 484.808594 312.6875 C 485.53125 313.074219 485.800781 313.972656 485.410156 314.699219 C 485.140625 315.199219 484.628906 315.480469 484.097656 315.480469 C 483.859375 315.480469 483.617188 315.421875 483.394531 315.304688 C 468.730469 307.402344 445.582031 303.78125 431.058594 302.210938 C 430.988281 301.605469 430.917969 301 430.839844 300.398438 C 430.785156 299.984375 430.730469 299.566406 430.671875 299.152344 C 445.328125 300.671875 469.289062 304.328125 484.808594 312.691406 Z M 484.808594 312.6875 "/>
<path style=" stroke:none;fill-rule:nonzero;fill:rgb(0%,0%,0%);fill-opacity:1;" d="M 481.882812 269.855469 C 482.695312 270 483.222656 270.78125 483.078125 271.589844 C 482.925781 272.390625 482.148438 272.925781 481.339844 272.773438 C 466.09375 269.921875 441.5 274.652344 426.015625 278.351562 C 425.863281 277.839844 425.703125 277.335938 425.539062 276.828125 C 425.402344 276.382812 425.257812 275.9375 425.109375 275.5 C 428.71875 274.632812 432.816406 273.707031 437.175781 272.839844 C 456.664062 268.949219 471.710938 267.949219 481.882812 269.855469 Z M 481.882812 269.855469 "/>
<path style=" stroke:none;fill-rule:nonzero;fill:rgb(0%,0%,0%);fill-opacity:1;" d="M 431.511719 321.613281 C 452.542969 329.003906 468.914062 341.078125 469.121094 341.230469 C 469.78125 341.71875 469.914062 342.652344 469.425781 343.308594 C 469.132812 343.695312 468.6875 343.90625 468.226562 343.90625 C 467.917969 343.90625 467.605469 343.808594 467.339844 343.613281 C 467.140625 343.464844 451.460938 331.90625 431.253906 324.671875 C 431.316406 324.054688 431.371094 323.433594 431.417969 322.808594 C 431.417969 322.800781 431.425781 322.789062 431.425781 322.78125 C 431.453125 322.386719 431.484375 322.003906 431.511719 321.609375 Z M 431.511719 321.613281 "/>
<path style=" stroke:none;fill-rule:nonzero;fill:rgb(0%,0%,0%);fill-opacity:1;" d="M 431.058594 302.207031 C 431.796875 308.789062 431.949219 315.300781 431.511719 321.613281 C 430.707031 321.332031 429.894531 321.054688 429.082031 320.785156 C 429.464844 314.65625 429.273438 308.335938 428.523438 301.945312 C 429.332031 302.027344 430.175781 302.113281 431.058594 302.207031 Z M 431.058594 302.207031 "/>
<path style=" stroke:none;fill-rule:nonzero;fill:rgb(0%,0%,0%);fill-opacity:1;" d="M 430.191406 322.710938 L 431.421875 322.8125 C 431.371094 323.4375 431.316406 324.054688 431.253906 324.675781 C 430.460938 324.386719 429.652344 324.109375 428.84375 323.835938 C 428.882812 323.433594 428.917969 323.039062 428.949219 322.636719 L 430.1875 322.710938 Z M 430.191406 322.710938 "/>
<path style=" stroke:none;fill-rule:nonzero;fill:rgb(0%,0%,0%);fill-opacity:1;" d="M 430.835938 300.394531 C 430.917969 301 430.984375 301.605469 431.054688 302.207031 C 430.175781 302.113281 429.332031 302.027344 428.523438 301.945312 C 428.476562 301.535156 428.425781 301.117188 428.375 300.707031 C 428.296875 300.101562 428.214844 299.5 428.125 298.894531 C 428.933594 298.972656 429.785156 299.054688 430.667969 299.148438 C 430.730469 299.5625 430.785156 299.980469 430.835938 300.394531 Z M 430.835938 300.394531 "/>
<path style=" stroke:none;fill-rule:nonzero;fill:rgb(0%,0%,0%);fill-opacity:1;" d="M 430.191406 322.710938 L 430.1875 322.710938 L 428.949219 322.636719 C 428.949219 322.636719 428.953125 322.617188 428.953125 322.609375 C 429.003906 322.003906 429.046875 321.394531 429.082031 320.785156 C 429.898438 321.054688 430.710938 321.332031 431.515625 321.613281 C 431.488281 322.003906 431.460938 322.390625 431.429688 322.78125 C 431.429688 322.792969 431.425781 322.804688 431.425781 322.8125 L 430.195312 322.710938 Z M 430.191406 322.710938 "/>
<path style=" stroke:none;fill-rule:nonzero;fill:rgb(0%,0%,0%);fill-opacity:1;" d="M 426.015625 278.351562 C 428.171875 285.386719 429.734375 292.371094 430.667969 299.148438 C 429.785156 299.054688 428.933594 298.972656 428.125 298.894531 C 427.191406 292.386719 425.671875 285.6875 423.597656 278.9375 C 424.378906 278.742188 425.183594 278.550781 426.015625 278.351562 Z M 426.015625 278.351562 "/>
<path style=" stroke:none;fill-rule:nonzero;fill:rgb(0%,0%,0%);fill-opacity:1;" d="M 429.082031 320.785156 C 429.046875 321.394531 429 322.003906 428.949219 322.609375 C 428.949219 322.617188 428.949219 322.628906 428.945312 322.636719 C 428.914062 323.039062 428.878906 323.433594 428.839844 323.835938 C 423.816406 322.152344 418.542969 320.769531 413.1875 319.910156 C 412.375 319.773438 411.824219 319.011719 411.953125 318.207031 C 412.085938 317.394531 412.851562 316.84375 413.664062 316.972656 C 418.933594 317.820312 424.121094 319.15625 429.082031 320.789062 Z M 429.082031 320.785156 "/>
<path style=" stroke:none;fill-rule:nonzero;fill:rgb(0%,0%,0%);fill-opacity:1;" d="M 428.375 300.707031 C 428.429688 301.117188 428.480469 301.535156 428.523438 301.945312 C 422.105469 301.308594 417.894531 301.105469 417.761719 301.101562 C 416.9375 301.066406 416.300781 300.375 416.34375 299.550781 C 416.378906 298.734375 417.078125 298.09375 417.894531 298.132812 C 418.410156 298.160156 422.300781 298.339844 428.125 298.890625 C 428.214844 299.496094 428.296875 300.101562 428.375 300.703125 Z M 428.375 300.707031 "/>
<path style=" stroke:none;fill-rule:nonzero;fill:rgb(0%,0%,0%);fill-opacity:1;" d="M 423.75 271.535156 C 423.355469 270.433594 422.949219 269.339844 422.539062 268.25 C 433.035156 245.417969 439.792969 223.269531 442.621094 202.382812 C 444.964844 185.078125 444.644531 168.59375 441.652344 153.386719 C 438.996094 139.859375 434.683594 129.867188 431.53125 123.867188 C 429.082031 119.199219 426.929688 116.160156 425.902344 114.800781 C 426.210938 114.617188 426.523438 114.429688 426.839844 114.246094 C 427.429688 113.898438 427.621094 113.140625 427.273438 112.550781 C 427.246094 112.5 427.214844 112.457031 427.179688 112.414062 C 427.972656 113.355469 438.898438 126.6875 444.054688 152.734375 C 447.125 168.210938 447.46875 184.988281 445.097656 202.582031 C 442.152344 224.441406 434.96875 247.636719 423.746094 271.535156 Z M 423.75 271.535156 "/>
<path style=" stroke:none;fill-rule:nonzero;fill:rgb(0%,0%,0%);fill-opacity:1;" d="M 427.054688 112.277344 C 427.085938 112.304688 427.117188 112.335938 427.140625 112.367188 C 427.117188 112.339844 427.085938 112.308594 427.054688 112.277344 Z M 427.054688 112.277344 "/>
<path style=" stroke:none;fill-rule:nonzero;fill:rgb(0%,0%,0%);fill-opacity:1;" d="M 427.054688 112.277344 C 426.957031 112.183594 426.84375 112.113281 426.71875 112.054688 C 426.84375 112.113281 426.957031 112.1875 427.054688 112.277344 Z M 427.054688 112.277344 "/>
<path style=" stroke:none;fill-rule:nonzero;fill:rgb(0%,0%,0%);fill-opacity:1;" d="M 426.71875 112.054688 C 426.679688 112.035156 426.636719 112.023438 426.59375 112.007812 C 426.636719 112.015625 426.679688 112.035156 426.71875 112.054688 Z M 426.71875 112.054688 "/>
<path style=" stroke:none;fill-rule:nonzero;fill:rgb(0%,0%,0%);fill-opacity:1;" d="M 426.59375 112.007812 C 426.554688 111.992188 426.507812 111.980469 426.460938 111.972656 C 426.507812 111.976562 426.554688 111.992188 426.59375 112.007812 Z M 426.59375 112.007812 "/>
<path style=" stroke:none;fill-rule:nonzero;fill:rgb(0%,0%,0%);fill-opacity:1;" d="M 423.832031 114.523438 C 424.996094 113.3125 425.667969 112.667969 425.695312 112.640625 C 425.992188 112.359375 426.457031 112.367188 426.746094 112.671875 C 427.027344 112.96875 427.015625 113.4375 426.714844 113.722656 C 426.695312 113.742188 426.367188 114.054688 425.78125 114.648438 C 425.726562 114.574219 425.675781 114.507812 425.628906 114.445312 C 425.027344 114.472656 424.425781 114.496094 423.832031 114.527344 Z M 423.832031 114.523438 "/>
<path style=" stroke:none;fill-rule:nonzero;fill:rgb(0%,0%,0%);fill-opacity:1;" d="M 426.355469 111.953125 C 426.308594 111.949219 426.269531 111.945312 426.226562 111.945312 C 426.269531 111.945312 426.316406 111.949219 426.355469 111.953125 Z M 426.355469 111.953125 "/>
<path style=" stroke:none;fill-rule:nonzero;fill:rgb(92.941177%,92.941177%,92.941177%);fill-opacity:1;" d="M 71.210938 120.382812 C 71.199219 120.382812 71.183594 120.390625 71.167969 120.394531 C 71.15625 120.394531 71.148438 120.394531 71.144531 120.398438 C 71.078125 120.414062 71.011719 120.433594 70.949219 120.457031 C 70.863281 120.488281 70.792969 120.527344 70.71875 120.578125 C 70.667969 120.613281 70.621094 120.648438 70.578125 120.6875 C 70.550781 120.71875 70.515625 120.75 70.484375 120.785156 C 70.480469 120.792969 70.46875 120.804688 70.453125 120.820312 C 70.449219 120.824219 70.445312 120.828125 70.4375 120.839844 C 69.519531 121.878906 58.980469 134.277344 54.769531 158.78125 C 52.25 173.449219 52.558594 189.425781 55.6875 206.265625 C 59.585938 227.265625 67.902344 249.679688 80.410156 272.882812 C 80.484375 273.023438 80.578125 273.136719 80.6875 273.238281 C 79.464844 276.5625 78.472656 279.632812 77.679688 282.410156 C 73.902344 281.617188 69.640625 280.796875 65.113281 280.054688 C 44.078125 276.621094 27.695312 276.492188 16.425781 279.675781 C 15.636719 279.898438 15.175781 280.722656 15.398438 281.507812 C 15.621094 282.296875 16.445312 282.757812 17.234375 282.535156 C 33.972656 277.804688 60.230469 281.816406 76.890625 285.300781 C 75.046875 292.414062 73.894531 299.496094 73.46875 306.402344 C 70.097656 306.5625 66.265625 306.824219 62.179688 307.226562 C 49.234375 308.503906 30.933594 311.519531 17.292969 318.589844 C 16.566406 318.96875 16.28125 319.867188 16.65625 320.59375 C 16.921875 321.105469 17.441406 321.398438 17.984375 321.398438 C 18.210938 321.398438 18.445312 321.34375 18.667969 321.230469 C 35 312.761719 58.539062 310.167969 73.328125 309.402344 C 73.113281 316.261719 73.609375 323.066406 74.808594 329.683594 C 62.429688 335.230469 45.847656 343.152344 31.457031 351.691406 C 30.753906 352.113281 30.519531 353.023438 30.941406 353.726562 C 31.21875 354.191406 31.710938 354.453125 32.222656 354.453125 C 32.480469 354.453125 32.742188 354.382812 32.980469 354.246094 C 47.019531 345.914062 63.179688 338.167969 75.402344 332.667969 C 76.859375 339.429688 79.089844 346.117188 82.054688 352.582031 C 82.253906 353.023438 82.695312 353.304688 83.179688 353.304688 L 83.191406 353.304688 L 108.804688 353.148438 C 108.675781 354.742188 108.710938 356.332031 108.898438 357.898438 C 108.910156 357.976562 108.925781 358.058594 108.941406 358.144531 C 110.804688 372.058594 125.101562 382.019531 140.242188 385.101562 C 143.488281 385.769531 146.773438 386.113281 149.984375 386.113281 C 150.257812 386.113281 150.535156 386.113281 150.808594 386.109375 C 155.699219 386.011719 160.917969 385.058594 165.925781 383.332031 C 165.929688 383.332031 165.9375 383.328125 165.945312 383.328125 C 177.335938 379.410156 189.996094 370.433594 191.359375 356.972656 C 191.394531 356.640625 191.417969 356.3125 191.441406 355.988281 L 191.441406 355.972656 C 191.5 354.953125 191.488281 353.917969 191.414062 352.878906 L 318.65625 352.085938 C 318.660156 352.15625 318.660156 352.230469 318.664062 352.300781 C 318.675781 352.4375 318.683594 352.582031 318.695312 352.695312 C 319.796875 367.980469 335.464844 379.269531 351.707031 382.058594 C 354.269531 382.503906 356.84375 382.730469 359.382812 382.730469 C 360.101562 382.730469 360.824219 382.710938 361.539062 382.671875 C 370.511719 382.199219 380.011719 378.59375 387.597656 372.777344 C 395.480469 366.738281 400.320312 359.148438 401.28125 351.335938 L 423.949219 351.191406 C 424.457031 351.1875 424.910156 350.875 425.097656 350.40625 C 428.3125 342.1875 430.386719 333.546875 431.257812 324.679688 C 451.464844 331.914062 467.144531 343.46875 467.34375 343.621094 C 467.609375 343.816406 467.925781 343.914062 468.230469 343.914062 C 468.6875 343.914062 469.136719 343.703125 469.429688 343.316406 C 469.921875 342.65625 469.789062 341.726562 469.125 341.238281 C 468.917969 341.085938 452.550781 329.011719 431.515625 321.621094 C 431.953125 315.308594 431.800781 308.796875 431.0625 302.214844 C 445.585938 303.785156 468.734375 307.410156 483.398438 315.308594 C 483.621094 315.429688 483.867188 315.484375 484.105469 315.484375 C 484.632812 315.484375 485.144531 315.203125 485.414062 314.703125 C 485.808594 313.980469 485.539062 313.078125 484.8125 312.691406 C 469.292969 304.328125 445.332031 300.671875 430.671875 299.152344 C 429.738281 292.375 428.175781 285.390625 426.023438 278.355469 C 441.503906 274.652344 466.097656 269.921875 481.34375 272.777344 C 482.152344 272.929688 482.925781 272.394531 483.082031 271.59375 C 483.230469 270.785156 482.699219 270.007812 481.890625 269.855469 C 471.714844 267.949219 456.667969 268.949219 437.179688 272.839844 C 432.824219 273.707031 428.722656 274.632812 425.113281 275.5 C 424.683594 274.167969 424.226562 272.847656 423.753906 271.535156 C 434.972656 247.640625 442.160156 224.441406 445.105469 202.585938 C 447.476562 184.988281 447.128906 168.21875 444.0625 152.734375 C 438.90625 126.6875 427.980469 113.355469 427.1875 112.417969 C 427.175781 112.402344 427.160156 112.390625 427.15625 112.382812 L 427.144531 112.371094 C 427.121094 112.335938 427.089844 112.304688 427.0625 112.28125 C 426.960938 112.1875 426.847656 112.113281 426.722656 112.058594 C 426.683594 112.039062 426.644531 112.019531 426.597656 112.007812 C 426.558594 111.992188 426.511719 111.980469 426.46875 111.972656 C 426.433594 111.964844 426.398438 111.960938 426.355469 111.953125 C 426.316406 111.949219 426.273438 111.945312 426.226562 111.945312 L 426.160156 111.945312 C 397.464844 113 371.320312 119.527344 348.457031 131.34375 C 329.976562 140.894531 317.421875 151.980469 309.957031 159.878906 C 291.722656 151.660156 269.933594 147.644531 247.226562 148.464844 C 227.367188 149.175781 208.296875 153.609375 192.710938 160.949219 C 183.390625 153.058594 166.015625 141.0625 146.3125 132.109375 C 118.714844 119.570312 93.445312 115.617188 71.210938 120.386719 Z M 494.894531 307.332031 C 494.492188 316.789062 489.632812 322.203125 488.117188 323.667969 C 467.640625 314.003906 440.65625 310.167969 440.382812 310.128906 C 439.851562 310.058594 439.355469 310.414062 439.265625 310.945312 L 438.5 315.527344 C 438.417969 316.019531 438.714844 316.492188 439.195312 316.636719 C 457.648438 322.160156 481.640625 339.976562 485.394531 342.820312 C 483.726562 349.300781 476.449219 356.253906 474.332031 358.171875 C 463.164062 350.21875 443.988281 342.445312 443.164062 342.117188 C 442.664062 341.914062 442.089844 342.152344 441.878906 342.648438 L 434.234375 360.613281 L 410.164062 360.613281 C 409.753906 360.613281 409.382812 360.871094 409.234375 361.257812 C 409.207031 361.328125 406.515625 368.386719 399.425781 375.339844 C 387.613281 386.925781 372.828125 389.363281 362.5 389.363281 C 343.757812 389.363281 331.082031 381.644531 323.746094 375.167969 C 315.773438 368.125 312.195312 360.988281 312.160156 360.914062 C 311.992188 360.578125 311.644531 360.363281 311.265625 360.363281 L 311.261719 360.363281 L 201.914062 361.125 C 201.398438 361.125 200.972656 361.527344 200.933594 362.042969 C 200.921875 362.125 200.21875 370.453125 193.949219 378.644531 C 185.652344 389.484375 171.355469 395.214844 152.601562 395.214844 C 133.851562 395.214844 119.292969 389.691406 110.535156 379.246094 C 103.925781 371.359375 102.875 363.347656 102.863281 363.269531 C 102.804688 362.769531 102.382812 362.398438 101.878906 362.398438 C 89.828125 362.398438 80.472656 362.5 78.113281 362.53125 L 68.328125 345.84375 C 68.09375 345.449219 67.625 345.261719 67.183594 345.390625 C 55.148438 348.964844 32.929688 366.421875 29.136719 369.453125 C 25.511719 366.988281 19.574219 354.972656 17.164062 349.617188 C 35.140625 331.972656 65.066406 325.753906 65.371094 325.691406 C 65.714844 325.621094 65.996094 325.371094 66.109375 325.039062 C 66.222656 324.707031 66.15625 324.34375 65.925781 324.074219 C 65.042969 323.050781 65.203125 320.144531 65.511719 318.554688 C 65.566406 318.261719 65.492188 317.953125 65.296875 317.726562 C 65.109375 317.496094 64.824219 317.367188 64.523438 317.371094 C 44.621094 317.609375 17.472656 330.429688 13.054688 332.578125 C 10.203125 329.773438 8.472656 319.011719 7.953125 314.234375 C 9.277344 313.367188 13.480469 310.839844 20.730469 308.320312 C 28.941406 305.46875 42.835938 302.058594 62.421875 301.996094 C 62.894531 301.996094 63.308594 301.652344 63.390625 301.179688 L 65.015625 292.054688 C 65.066406 291.769531 64.992188 291.484375 64.8125 291.261719 C 64.636719 291.039062 64.367188 290.902344 64.082031 290.890625 C 62.648438 290.828125 29.367188 289.511719 9.617188 298.320312 C 7.613281 291.320312 3.808594 275.613281 5.476562 270.289062 C 8.765625 268.847656 33.730469 258.683594 62.394531 268.300781 L 62.953125 268.488281 C 63.355469 268.625 63.796875 268.496094 64.058594 268.160156 C 64.316406 267.828125 64.335938 267.363281 64.109375 267.011719 C 64.003906 266.847656 53.527344 250.558594 47.644531 223.039062 C 44.191406 206.878906 42.972656 190.0625 44.027344 173.058594 C 45.335938 151.929688 50.175781 130.4375 58.410156 109.1875 C 60.765625 108.195312 74.691406 102.835938 96.695312 104.097656 C 110.851562 104.910156 125.542969 108.265625 140.355469 114.070312 C 158.894531 121.332031 177.675781 132.476562 196.1875 147.183594 C 196.507812 147.4375 196.949219 147.46875 197.300781 147.269531 C 197.417969 147.199219 208.90625 140.660156 227.824219 137.375 C 245.265625 134.347656 272.785156 133.550781 304.808594 146.941406 C 305.171875 147.09375 305.589844 147.015625 305.871094 146.753906 C 306.011719 146.625 319.984375 133.699219 342.609375 121.742188 C 363.367188 110.765625 395.84375 98.382812 432.914062 101.570312 C 434.757812 104.300781 446.09375 121.816406 452.671875 148.277344 C 456.859375 165.125 458.332031 182.261719 457.03125 199.195312 C 455.414062 220.359375 449.449219 241.285156 439.304688 261.390625 C 439.128906 261.746094 439.179688 262.175781 439.441406 262.484375 C 439.707031 262.785156 440.128906 262.898438 440.511719 262.773438 C 440.738281 262.695312 463.523438 255.238281 490.722656 261.503906 C 491.5 265.859375 492.894531 275.636719 491.996094 279.632812 C 486.746094 279.410156 456.597656 278.421875 437.765625 284.164062 C 437.359375 284.289062 437.082031 284.652344 437.066406 285.078125 L 436.875 290.804688 C 436.859375 291.34375 437.277344 291.796875 437.816406 291.824219 C 438.179688 291.84375 473.621094 293.722656 494.890625 307.332031 Z M 494.894531 307.332031 "/>
<path style=" stroke:none;fill-rule:nonzero;fill:rgb(0%,0%,0%);fill-opacity:1;" d="M 425.539062 276.824219 C 425.703125 277.335938 425.863281 277.839844 426.015625 278.347656 C 425.183594 278.546875 424.378906 278.742188 423.597656 278.933594 C 423.460938 278.480469 423.320312 278.027344 423.179688 277.578125 C 423.019531 277.078125 422.859375 276.582031 422.691406 276.085938 C 423.464844 275.894531 424.277344 275.695312 425.109375 275.496094 C 425.257812 275.9375 425.402344 276.378906 425.539062 276.824219 Z M 425.539062 276.824219 "/>
<path style=" stroke:none;fill-rule:nonzero;fill:rgb(0%,0%,0%);fill-opacity:1;" d="M 425.902344 114.800781 C 425.6875 114.9375 425.46875 115.0625 425.246094 115.203125 C 425.445312 114.996094 425.625 114.8125 425.785156 114.648438 C 425.824219 114.699219 425.863281 114.75 425.902344 114.800781 Z M 425.902344 114.800781 "/>
<path style=" stroke:none;fill-rule:nonzero;fill:rgb(0%,0%,0%);fill-opacity:1;" d="M 423.179688 277.578125 C 423.320312 278.027344 423.460938 278.480469 423.597656 278.933594 C 416.589844 280.660156 411.964844 282.035156 411.820312 282.078125 C 411.679688 282.117188 411.535156 282.144531 411.390625 282.144531 C 410.75 282.144531 410.160156 281.730469 409.964844 281.085938 C 409.726562 280.296875 410.171875 279.46875 410.960938 279.230469 C 411.03125 279.210938 415.667969 277.824219 422.691406 276.085938 C 422.859375 276.582031 423.019531 277.078125 423.175781 277.578125 Z M 423.179688 277.578125 "/>
<path style=" stroke:none;fill-rule:nonzero;fill:rgb(100%,62.7451%,63.921571%);fill-opacity:1;" d="M 422.539062 268.25 C 412.054688 240.867188 394.859375 217.761719 383.882812 204.714844 C 385.90625 176.941406 397.3125 153.808594 406.582031 139.242188 C 414.4375 126.882812 422.117188 118.441406 425.25 115.203125 C 425.46875 115.0625 425.6875 114.933594 425.90625 114.800781 C 426.933594 116.15625 429.082031 119.199219 431.535156 123.863281 C 434.6875 129.867188 439 139.859375 441.65625 153.382812 C 444.648438 168.589844 444.972656 185.078125 442.621094 202.382812 C 439.792969 223.265625 433.039062 245.414062 422.539062 268.246094 Z M 422.539062 268.25 "/>
<path style=" stroke:none;fill-rule:nonzero;fill:rgb(0%,0%,0%);fill-opacity:1;" d="M 421.445312 114.660156 C 422.785156 113.796875 424.160156 112.949219 425.574219 112.117188 C 425.769531 112 425.980469 111.949219 426.195312 111.945312 L 426.226562 111.945312 C 426.273438 111.945312 426.3125 111.949219 426.355469 111.953125 C 426.398438 111.960938 426.433594 111.964844 426.46875 111.972656 C 426.511719 111.984375 426.558594 111.992188 426.597656 112.007812 C 426.644531 112.023438 426.683594 112.039062 426.722656 112.058594 C 426.847656 112.113281 426.960938 112.1875 427.0625 112.28125 C 427.089844 112.3125 427.121094 112.339844 427.144531 112.371094 L 427.15625 112.382812 C 427.15625 112.382812 427.175781 112.402344 427.1875 112.417969 C 427.222656 112.460938 427.25 112.507812 427.28125 112.554688 C 427.628906 113.144531 427.433594 113.902344 426.847656 114.25 C 426.53125 114.429688 426.21875 114.621094 425.910156 114.804688 C 425.871094 114.75 425.832031 114.699219 425.792969 114.652344 C 426.378906 114.054688 426.707031 113.742188 426.726562 113.722656 C 427.023438 113.441406 427.039062 112.972656 426.753906 112.675781 C 426.46875 112.371094 426 112.363281 425.703125 112.644531 C 425.679688 112.667969 425.003906 113.3125 423.84375 114.527344 C 423.042969 114.566406 422.25 114.605469 421.457031 114.660156 Z M 421.445312 114.660156 "/>
<path style=" stroke:none;fill-rule:nonzero;fill:rgb(0%,0%,0%);fill-opacity:1;" d="M 421.953125 272.4375 C 422.125 272.515625 422.304688 272.550781 422.476562 272.550781 C 422.941406 272.550781 423.390625 272.289062 423.605469 271.84375 C 423.65625 271.738281 423.699219 271.640625 423.746094 271.535156 C 424.21875 272.847656 424.675781 274.167969 425.109375 275.5 C 424.273438 275.695312 423.464844 275.898438 422.691406 276.089844 C 422.222656 274.667969 421.738281 273.257812 421.226562 271.859375 L 421.34375 271.820312 C 421.460938 272.082031 421.667969 272.304688 421.953125 272.4375 Z M 421.953125 272.4375 "/>
<path style=" stroke:none;fill-rule:nonzero;fill:rgb(0%,0%,0%);fill-opacity:1;" d="M 383.070312 206.382812 C 383.460938 206.382812 383.785156 206.078125 383.8125 205.683594 C 383.832031 205.359375 383.855469 205.039062 383.882812 204.71875 C 394.859375 217.761719 412.054688 240.867188 422.539062 268.25 C 422.148438 269.097656 421.753906 269.941406 421.355469 270.789062 C 421.195312 271.125 421.207031 271.5 421.34375 271.820312 L 421.226562 271.859375 C 411.039062 243.710938 393.34375 219.835938 382.121094 206.484375 L 382.523438 206.144531 C 382.648438 206.28125 382.828125 206.367188 383.019531 206.378906 C 383.035156 206.378906 383.050781 206.382812 383.070312 206.382812 Z M 383.070312 206.382812 "/>
<path style=" stroke:none;fill-rule:nonzero;fill:rgb(0%,0%,0%);fill-opacity:1;" d="M 422.480469 272.550781 C 422.308594 272.550781 422.125 272.515625 421.953125 272.433594 C 421.671875 272.300781 421.460938 272.078125 421.347656 271.8125 C 421.210938 271.496094 421.199219 271.121094 421.359375 270.785156 C 421.753906 269.9375 422.152344 269.09375 422.539062 268.246094 C 422.949219 269.335938 423.359375 270.433594 423.753906 271.53125 C 423.703125 271.636719 423.65625 271.734375 423.609375 271.839844 C 423.398438 272.285156 422.949219 272.546875 422.480469 272.546875 Z M 422.480469 272.550781 "/>
<path style=" stroke:none;fill-rule:nonzero;fill:rgb(0%,0%,0%);fill-opacity:1;" d="M 425.246094 115.203125 C 423.554688 116.230469 421.925781 117.273438 420.347656 118.332031 C 421.753906 116.738281 422.9375 115.460938 423.832031 114.523438 C 424.429688 114.492188 425.03125 114.46875 425.628906 114.445312 C 425.679688 114.503906 425.730469 114.574219 425.78125 114.648438 C 425.625 114.808594 425.441406 114.992188 425.246094 115.203125 Z M 425.246094 115.203125 "/>
<path style=" stroke:none;fill-rule:nonzero;fill:rgb(65.882355%,38.82353%,41.176471%);fill-opacity:1;" d="M 420.347656 118.332031 C 416.476562 122.75 410.957031 129.59375 405.347656 138.40625 C 396.144531 152.871094 384.859375 175.675781 382.515625 203.113281 C 378.171875 198.039062 375 194.753906 373.933594 193.675781 C 374.03125 191.222656 374.753906 179.976562 380.566406 165.863281 C 386.097656 152.414062 397.433594 133.75 420.347656 118.332031 Z M 420.347656 118.332031 "/>
<path style=" stroke:none;fill-rule:nonzero;fill:rgb(0%,0%,0%);fill-opacity:1;" d="M 401.394531 350.25 C 401.429688 349.785156 401.453125 349.316406 401.453125 348.847656 L 423.085938 348.710938 C 426.125 340.757812 428.054688 332.394531 428.84375 323.835938 C 429.652344 324.109375 430.464844 324.386719 431.257812 324.671875 C 430.386719 333.539062 428.3125 342.179688 425.097656 350.398438 C 424.914062 350.867188 424.457031 351.179688 423.949219 351.183594 L 401.28125 351.328125 C 401.304688 351.140625 401.324219 350.945312 401.34375 350.757812 L 401.390625 350.292969 C 401.390625 350.277344 401.394531 350.261719 401.394531 350.246094 Z M 401.394531 350.25 "/>
<path style=" stroke:none;fill-rule:nonzero;fill:rgb(0%,0%,0%);fill-opacity:1;" d="M 399.421875 351.339844 L 399.410156 351.339844 C 398.734375 351.339844 398.175781 350.789062 398.171875 350.113281 C 398.171875 350.066406 398.171875 350.023438 398.175781 349.972656 C 398.242188 349.355469 398.761719 348.871094 399.402344 348.863281 L 401.449219 348.847656 C 401.449219 349.320312 401.425781 349.785156 401.390625 350.253906 C 401.390625 350.265625 401.386719 350.28125 401.386719 350.296875 L 401.339844 350.761719 C 401.320312 350.949219 401.300781 351.144531 401.277344 351.332031 L 399.417969 351.34375 Z M 399.421875 351.339844 "/>
<path style=" stroke:none;fill-rule:nonzero;fill:rgb(0%,0%,0%);fill-opacity:1;" d="M 352.183594 380.679688 C 352.535156 380.679688 352.882812 380.492188 353.0625 380.15625 C 353.316406 379.671875 353.132812 379.070312 352.648438 378.820312 C 352.242188 378.605469 351.851562 378.3125 351.488281 377.960938 C 354.796875 378.617188 358.125 378.882812 361.328125 378.714844 C 365.121094 378.515625 369.019531 377.699219 372.8125 376.339844 C 372.898438 376.871094 372.996094 377.332031 373.125 377.703125 C 373.261719 378.113281 373.652344 378.375 374.0625 378.375 C 374.167969 378.375 374.277344 378.359375 374.386719 378.324219 C 374.902344 378.144531 375.179688 377.582031 375.003906 377.066406 C 374.878906 376.699219 374.785156 376.207031 374.714844 375.617188 C 378.417969 374.109375 381.976562 372.085938 385.171875 369.632812 C 392.371094 364.121094 396.710938 357.277344 397.394531 350.375 L 397.441406 349.933594 L 398.179688 349.972656 C 398.175781 350.023438 398.175781 350.070312 398.175781 350.113281 C 398.179688 350.789062 398.734375 351.339844 399.414062 351.339844 L 399.425781 351.339844 L 401.28125 351.328125 C 400.320312 359.140625 395.480469 366.738281 387.597656 372.773438 C 380.011719 378.589844 370.511719 382.195312 361.539062 382.664062 C 360.824219 382.707031 360.101562 382.726562 359.382812 382.726562 C 356.84375 382.726562 354.269531 382.5 351.707031 382.054688 L 351.945312 380.652344 C 352.027344 380.671875 352.105469 380.679688 352.183594 380.679688 Z M 352.183594 380.679688 "/>
<path style=" stroke:none;fill-rule:nonzero;fill:rgb(64.313728%,64.313728%,64.313728%);fill-opacity:1;" d="M 397.429688 346.890625 C 397.507812 347.898438 397.511719 348.917969 397.4375 349.933594 L 397.394531 350.375 C 396.710938 357.277344 392.371094 364.121094 385.171875 369.632812 C 381.976562 372.085938 378.414062 374.105469 374.714844 375.617188 C 374.171875 371.113281 375.089844 360.828125 375.546875 356.789062 C 375.613281 356.246094 375.21875 355.753906 374.671875 355.6875 C 374.132812 355.628906 373.636719 356.023438 373.574219 356.566406 C 373.398438 358.136719 371.992188 370.933594 372.8125 376.339844 C 369.019531 377.699219 365.121094 378.515625 361.328125 378.714844 C 358.125 378.882812 354.792969 378.613281 351.488281 377.960938 C 346.964844 373.589844 345.714844 359.402344 345.628906 353.898438 C 345.617188 353.347656 345.152344 352.917969 344.617188 352.921875 C 344.070312 352.933594 343.632812 353.382812 343.644531 353.925781 C 343.65625 354.695312 343.957031 369.890625 348.472656 377.257812 C 335.414062 373.746094 323.515625 364.378906 322.652344 352.382812 C 322.648438 352.292969 322.636719 352.199219 322.632812 352.09375 C 322.609375 351.589844 322.597656 351.097656 322.613281 350.621094 L 322.613281 350.605469 C 322.894531 335.515625 340.589844 323.078125 356.300781 321.355469 C 357.660156 321.207031 359.046875 321.132812 360.449219 321.132812 C 370.265625 321.132812 380.75 324.726562 388.109375 330.792969 C 392.023438 334.015625 396.828125 339.433594 397.429688 346.890625 Z M 397.429688 346.890625 "/>
<path style=" stroke:none;fill-rule:nonzero;fill:rgb(78.823531%,46.27451%,47.058824%);fill-opacity:1;" d="M 406.582031 139.242188 C 397.3125 153.8125 385.90625 176.941406 383.882812 204.714844 C 383.414062 204.160156 382.957031 203.625 382.515625 203.113281 C 384.859375 175.675781 396.144531 152.871094 405.347656 138.40625 C 410.957031 129.59375 416.476562 122.746094 420.347656 118.332031 C 421.925781 117.273438 423.554688 116.230469 425.246094 115.203125 C 422.117188 118.445312 414.4375 126.886719 406.578125 139.246094 Z M 406.582031 139.242188 "/>
<path style=" stroke:none;fill-rule:nonzero;fill:rgb(0%,0%,0%);fill-opacity:1;" d="M 383.8125 205.683594 C 383.785156 206.082031 383.457031 206.382812 383.070312 206.382812 C 383.050781 206.382812 383.035156 206.375 383.023438 206.375 C 382.828125 206.367188 382.648438 206.277344 382.527344 206.144531 C 382.390625 206 382.3125 205.800781 382.328125 205.589844 C 382.382812 204.757812 382.445312 203.933594 382.515625 203.113281 C 382.957031 203.625 383.414062 204.160156 383.882812 204.714844 C 383.855469 205.039062 383.832031 205.359375 383.8125 205.679688 Z M 383.8125 205.683594 "/>
<path style=" stroke:none;fill-rule:nonzero;fill:rgb(0%,0%,0%);fill-opacity:1;" d="M 374.671875 355.6875 C 375.21875 355.753906 375.613281 356.246094 375.546875 356.789062 C 375.089844 360.828125 374.171875 371.113281 374.714844 375.617188 C 374.082031 375.875 373.449219 376.117188 372.8125 376.339844 C 371.992188 370.929688 373.398438 358.136719 373.574219 356.566406 C 373.636719 356.023438 374.132812 355.628906 374.671875 355.6875 Z M 374.671875 355.6875 "/>
<path style=" stroke:none;fill-rule:nonzero;fill:rgb(0%,0%,0%);fill-opacity:1;" d="M 375 377.0625 C 375.179688 377.578125 374.902344 378.144531 374.386719 378.320312 C 374.273438 378.355469 374.167969 378.371094 374.0625 378.371094 C 373.652344 378.371094 373.261719 378.113281 373.121094 377.699219 C 372.992188 377.328125 372.894531 376.867188 372.808594 376.339844 C 373.445312 376.117188 374.078125 375.875 374.710938 375.617188 C 374.78125 376.207031 374.875 376.695312 375 377.0625 Z M 375 377.0625 "/>
<path style=" stroke:none;fill-rule:nonzero;fill:rgb(0%,0%,0%);fill-opacity:1;" d="M 371.441406 194.035156 C 371.460938 192.574219 371.808594 180.660156 378.222656 165.039062 C 384.085938 150.746094 396.3125 130.738281 421.449219 114.65625 C 422.242188 114.601562 423.035156 114.5625 423.835938 114.523438 C 422.941406 115.460938 421.753906 116.738281 420.351562 118.332031 C 397.4375 133.753906 386.101562 152.414062 380.566406 165.863281 C 374.753906 179.972656 374.03125 191.222656 373.9375 193.675781 C 373.703125 193.4375 373.570312 193.300781 373.546875 193.28125 C 373.0625 192.800781 372.277344 192.808594 371.796875 193.296875 C 371.59375 193.5 371.472656 193.765625 371.445312 194.035156 Z M 371.441406 194.035156 "/>
<path style=" stroke:none;fill-rule:nonzero;fill:rgb(0%,0%,0%);fill-opacity:1;" d="M 371.542969 194.652344 C 371.527344 194.613281 371.511719 194.578125 371.496094 194.542969 C 371.480469 194.496094 371.472656 194.445312 371.460938 194.402344 C 371.453125 194.328125 371.441406 194.25 371.441406 194.171875 L 371.441406 194.035156 C 371.472656 193.769531 371.589844 193.5 371.796875 193.300781 C 372.277344 192.808594 373.058594 192.804688 373.546875 193.285156 C 373.566406 193.304688 373.699219 193.4375 373.933594 193.675781 C 373.925781 193.988281 373.925781 194.15625 373.925781 194.171875 C 373.917969 194.855469 373.363281 195.402344 372.683594 195.402344 L 372.679688 195.402344 C 372.347656 195.402344 372.042969 195.273438 371.824219 195.0625 L 371.808594 195.046875 L 371.800781 195.035156 C 371.691406 194.925781 371.601562 194.792969 371.542969 194.648438 Z M 371.542969 194.652344 "/>
<path style=" stroke:none;fill-rule:nonzero;fill:rgb(0%,0%,0%);fill-opacity:1;" d="M 371.824219 195.0625 C 372.042969 195.273438 372.347656 195.402344 372.679688 195.402344 L 372.683594 195.402344 C 373.363281 195.402344 373.917969 194.855469 373.925781 194.171875 C 373.925781 194.15625 373.925781 193.988281 373.933594 193.675781 C 375 194.757812 378.171875 198.042969 382.515625 203.113281 C 382.441406 203.9375 382.378906 204.757812 382.328125 205.589844 C 382.3125 205.804688 382.394531 206 382.527344 206.144531 L 382.121094 206.484375 C 376.230469 199.472656 372.125 195.367188 371.824219 195.0625 Z M 371.824219 195.0625 "/>
<path style=" stroke:none;fill-rule:nonzero;fill:rgb(0%,0%,0%);fill-opacity:1;" d="M 371.542969 194.652344 C 371.601562 194.792969 371.691406 194.929688 371.800781 195.039062 C 371.683594 194.925781 371.597656 194.792969 371.542969 194.652344 Z M 371.542969 194.652344 "/>
<path style=" stroke:none;fill-rule:nonzero;fill:rgb(0%,0%,0%);fill-opacity:1;" d="M 371.496094 194.542969 C 371.511719 194.578125 371.527344 194.613281 371.542969 194.652344 C 371.523438 194.613281 371.507812 194.578125 371.496094 194.542969 Z M 371.496094 194.542969 "/>
<path style=" stroke:none;fill-rule:nonzero;fill:rgb(64.313728%,64.313728%,64.313728%);fill-opacity:1;" d="M 378.222656 165.039062 C 371.808594 180.660156 371.460938 192.578125 371.441406 194.035156 L 371.441406 194.046875 C 371.433594 194.167969 371.4375 194.285156 371.460938 194.402344 C 371.472656 194.449219 371.480469 194.5 371.496094 194.542969 C 371.507812 194.578125 371.523438 194.613281 371.542969 194.652344 C 371.597656 194.789062 371.683594 194.925781 371.800781 195.039062 L 371.808594 195.050781 L 371.824219 195.0625 C 372.128906 195.367188 376.234375 199.472656 382.125 206.484375 C 393.347656 219.832031 411.042969 243.710938 421.230469 271.859375 C 421.742188 273.257812 422.226562 274.667969 422.695312 276.089844 C 415.671875 277.828125 411.035156 279.214844 410.96875 279.234375 C 410.179688 279.472656 409.730469 280.300781 409.96875 281.085938 C 410.164062 281.730469 410.753906 282.148438 411.394531 282.148438 C 411.539062 282.148438 411.683594 282.121094 411.828125 282.082031 C 411.96875 282.035156 416.59375 280.660156 423.605469 278.9375 C 425.679688 285.6875 427.199219 292.386719 428.132812 298.894531 C 422.304688 298.347656 418.417969 298.164062 417.902344 298.136719 C 417.082031 298.097656 416.382812 298.738281 416.347656 299.554688 C 416.308594 300.378906 416.945312 301.070312 417.769531 301.105469 C 417.902344 301.109375 422.113281 301.3125 428.527344 301.949219 C 429.277344 308.339844 429.46875 314.660156 429.085938 320.789062 C 424.125 319.15625 418.941406 317.820312 413.667969 316.972656 C 412.859375 316.84375 412.089844 317.394531 411.960938 318.207031 C 411.828125 319.011719 412.378906 319.773438 413.195312 319.910156 C 418.550781 320.773438 423.824219 322.15625 428.84375 323.835938 C 428.054688 332.398438 426.125 340.757812 423.085938 348.714844 L 401.453125 348.847656 C 401.472656 348.09375 401.449219 347.328125 401.386719 346.574219 C 400.816406 339.574219 397.101562 333.058594 390.632812 327.734375 C 381.4375 320.15625 367.785156 316.109375 355.859375 317.410156 C 347.132812 318.371094 338.082031 322.234375 331.015625 328.019531 C 323.640625 334.058594 319.304688 341.503906 318.707031 349.113281 L 191 349.910156 C 187.78125 333.699219 168.386719 319.507812 149.460938 319.820312 C 130.613281 320.144531 112.054688 334.441406 109.128906 350.660156 L 83.984375 350.820312 C 81.183594 344.582031 79.082031 338.136719 77.71875 331.632812 C 87.542969 327.261719 94.316406 324.554688 94.472656 324.5 C 95.234375 324.191406 95.609375 323.332031 95.300781 322.566406 C 94.996094 321.804688 94.132812 321.433594 93.367188 321.734375 C 93.222656 321.796875 86.6875 324.40625 77.140625 328.636719 C 76.039062 322.324219 75.59375 315.832031 75.816406 309.28125 C 82.585938 308.992188 87 309.097656 87.132812 309.101562 C 87.941406 309.109375 88.640625 308.476562 88.664062 307.660156 C 88.6875 306.839844 88.035156 306.15625 87.21875 306.136719 C 87.148438 306.128906 82.734375 306.015625 75.960938 306.285156 C 76.390625 299.585938 77.519531 292.707031 79.316406 285.808594 C 87.148438 287.515625 92.347656 288.96875 92.503906 289.015625 C 92.640625 289.054688 92.777344 289.074219 92.910156 289.074219 C 93.558594 289.074219 94.15625 288.648438 94.339844 287.992188 C 94.5625 287.203125 94.109375 286.378906 93.320312 286.15625 C 93.238281 286.132812 88.003906 284.660156 80.109375 282.925781 C 88.945312 252.164062 109.4375 226.261719 122.441406 212.117188 C 129.121094 204.855469 133.828125 200.691406 133.964844 200.570312 C 134.292969 200.28125 134.449219 199.835938 134.371094 199.402344 C 134.339844 199.261719 131.457031 184.472656 122.367188 167.476562 C 114.378906 152.53125 99.886719 132.882812 75.679688 122.054688 C 96.414062 118.648438 119.804688 122.777344 145.285156 134.359375 C 164.179688 142.945312 180.890625 154.355469 190.265625 162.128906 C 185.914062 164.3125 181.859375 166.730469 178.164062 169.363281 C 177.496094 169.839844 177.34375 170.765625 177.816406 171.433594 C 178.109375 171.839844 178.566406 172.058594 179.03125 172.058594 C 179.332031 172.058594 179.632812 171.96875 179.898438 171.78125 C 183.953125 168.890625 188.457031 166.269531 193.324219 163.933594 C 208.65625 156.582031 227.578125 152.136719 247.328125 151.429688 C 269.875 150.617188 291.464844 154.652344 309.421875 162.894531 C 313.285156 164.664062 316.972656 166.628906 320.472656 168.785156 C 321.171875 169.214844 322.089844 168.996094 322.519531 168.300781 C 322.953125 167.601562 322.734375 166.683594 322.035156 166.253906 C 318.941406 164.347656 315.695312 162.585938 312.324219 160.976562 C 319.722656 153.261719 331.886719 142.691406 349.59375 133.539062 C 370.84375 122.554688 394.992188 116.207031 421.441406 114.65625 C 396.304688 130.734375 384.082031 150.746094 378.21875 165.039062 Z M 374.886719 268.578125 C 374.886719 248.289062 358.96875 231.71875 338.921875 230.625 C 338.542969 230.570312 338.195312 230.539062 337.882812 230.539062 C 337.417969 230.539062 336.949219 230.550781 336.488281 230.570312 C 315.597656 230.734375 298.714844 247.683594 298.714844 268.578125 C 298.714844 289.46875 315.765625 306.589844 336.800781 306.589844 C 337.164062 306.589844 337.523438 306.582031 337.882812 306.566406 C 358.417969 306.003906 374.886719 289.210938 374.886719 268.578125 Z M 208.289062 272.296875 C 208.289062 252.136719 192.5625 235.644531 172.691406 234.371094 C 172.183594 234.296875 171.714844 234.261719 171.285156 234.261719 C 170.820312 234.261719 170.351562 234.269531 169.890625 234.289062 C 149 234.453125 132.117188 251.40625 132.117188 272.296875 C 132.117188 293.1875 149.167969 310.308594 170.203125 310.308594 C 170.75 310.308594 171.289062 310.296875 171.832031 310.269531 C 192.109375 309.421875 208.289062 292.746094 208.289062 272.296875 Z M 208.289062 272.296875 "/>
<path style=" stroke:none;fill-rule:nonzero;fill:rgb(0%,0%,0%);fill-opacity:1;" d="M 371.441406 194.171875 C 371.441406 194.25 371.453125 194.328125 371.460938 194.402344 C 371.4375 194.285156 371.433594 194.167969 371.441406 194.046875 Z M 371.441406 194.171875 "/>
<path style=" stroke:none;fill-rule:nonzero;fill:rgb(20.784314%,20.784314%,20.784314%);fill-opacity:1;" d="M 338.921875 230.625 C 358.96875 231.71875 374.886719 248.289062 374.886719 268.578125 C 374.886719 288.863281 358.417969 306.003906 337.878906 306.566406 L 337.878906 306.5625 C 346.539062 306.5625 367.09375 289.542969 367.09375 268.550781 C 367.09375 244.21875 346.597656 231.742188 338.921875 230.625 Z M 338.921875 230.625 "/>
<path style=" stroke:none;fill-rule:nonzero;fill:rgb(0%,0%,0%);fill-opacity:1;" d="M 367.09375 268.550781 C 367.09375 289.542969 346.539062 306.5625 337.878906 306.5625 C 316.84375 306.5625 299.792969 289.542969 299.792969 268.550781 C 299.792969 247.5625 316.09375 231.300781 336.484375 230.570312 C 336.589844 230.566406 336.691406 230.566406 336.796875 230.566406 C 337.507812 230.566406 338.21875 230.585938 338.917969 230.625 C 346.59375 231.742188 367.089844 244.21875 367.089844 268.550781 Z M 367.09375 268.550781 "/>
<path style=" stroke:none;fill-rule:nonzero;fill:rgb(0%,0%,0%);fill-opacity:1;" d="M 352.644531 378.820312 C 353.128906 379.070312 353.316406 379.671875 353.058594 380.15625 C 352.882812 380.492188 352.535156 380.679688 352.179688 380.679688 C 352.101562 380.679688 352.023438 380.671875 351.941406 380.652344 C 351.863281 380.636719 351.789062 380.605469 351.714844 380.566406 C 350.445312 379.894531 349.375 378.734375 348.46875 377.257812 C 349.464844 377.527344 350.476562 377.761719 351.488281 377.957031 C 351.851562 378.3125 352.238281 378.605469 352.644531 378.816406 Z M 352.644531 378.820312 "/>
<path style=" stroke:none;fill-rule:nonzero;fill:rgb(0%,0%,0%);fill-opacity:1;" d="M 351.488281 377.960938 C 350.476562 377.761719 349.46875 377.53125 348.46875 377.257812 C 343.953125 369.886719 343.648438 354.695312 343.640625 353.925781 C 343.628906 353.382812 344.066406 352.933594 344.613281 352.921875 C 345.148438 352.917969 345.613281 353.347656 345.625 353.898438 C 345.714844 359.40625 346.957031 373.59375 351.484375 377.960938 Z M 351.488281 377.960938 "/>
<path style=" stroke:none;fill-rule:nonzero;fill:rgb(0%,0%,0%);fill-opacity:1;" d="M 337.882812 230.539062 C 338.195312 230.539062 338.542969 230.570312 338.921875 230.625 C 338.222656 230.585938 337.511719 230.566406 336.800781 230.566406 C 336.695312 230.566406 336.59375 230.566406 336.488281 230.570312 C 336.949219 230.550781 337.417969 230.539062 337.882812 230.539062 Z M 337.882812 230.539062 "/>
<path style=" stroke:none;fill-rule:nonzero;fill:rgb(0%,0%,0%);fill-opacity:1;" d="M 356.296875 321.355469 C 340.585938 323.082031 322.890625 335.515625 322.609375 350.605469 L 322.113281 350.585938 L 322.113281 350.578125 C 322.105469 349.757812 321.441406 349.097656 320.625 349.097656 L 320.613281 349.097656 L 318.707031 349.109375 C 319.308594 341.5 323.640625 334.054688 331.015625 328.015625 C 338.082031 322.234375 347.132812 318.371094 355.859375 317.40625 C 367.785156 316.105469 381.4375 320.152344 390.632812 327.734375 C 397.101562 333.058594 400.816406 339.574219 401.386719 346.570312 C 401.449219 347.324219 401.472656 348.085938 401.453125 348.847656 L 399.40625 348.863281 C 398.761719 348.867188 398.242188 349.351562 398.179688 349.972656 L 397.441406 349.933594 C 397.515625 348.917969 397.511719 347.898438 397.429688 346.890625 C 396.824219 339.429688 392.023438 334.015625 388.109375 330.789062 C 380.746094 324.722656 370.265625 321.128906 360.449219 321.128906 C 359.046875 321.128906 357.660156 321.207031 356.300781 321.351562 Z M 356.296875 321.355469 "/>
<path style=" stroke:none;fill-rule:nonzero;fill:rgb(0%,0%,0%);fill-opacity:1;" d="M 322.628906 352.09375 C 322.632812 352.195312 322.644531 352.289062 322.648438 352.378906 C 323.511719 364.375 335.410156 373.746094 348.46875 377.257812 C 349.375 378.734375 350.445312 379.894531 351.714844 380.566406 C 351.789062 380.605469 351.863281 380.636719 351.941406 380.652344 L 351.707031 382.054688 C 335.457031 379.261719 319.792969 367.972656 318.691406 352.691406 C 318.683594 352.578125 318.671875 352.433594 318.664062 352.292969 C 318.65625 352.222656 318.65625 352.152344 318.652344 352.082031 L 320.632812 352.070312 C 321.453125 352.066406 322.113281 351.402344 322.113281 350.585938 L 322.609375 350.605469 L 322.609375 350.621094 C 322.59375 351.097656 322.605469 351.585938 322.628906 352.09375 Z M 322.628906 352.09375 "/>
<path style=" stroke:none;fill-rule:nonzero;fill:rgb(0%,0%,0%);fill-opacity:1;" d="M 322.113281 350.578125 L 322.113281 350.585938 C 322.113281 351.40625 321.449219 352.066406 320.632812 352.070312 L 318.648438 352.082031 C 318.628906 351.550781 318.621094 351.027344 318.636719 350.53125 C 318.644531 350.058594 318.664062 349.582031 318.707031 349.109375 L 320.613281 349.097656 L 320.621094 349.097656 C 321.441406 349.097656 322.105469 349.757812 322.109375 350.578125 Z M 322.113281 350.578125 "/>
<path style=" stroke:none;fill-rule:nonzero;fill:rgb(0%,0%,0%);fill-opacity:1;" d="M 191 349.90625 L 318.707031 349.109375 C 318.667969 349.578125 318.648438 350.054688 318.636719 350.53125 C 318.621094 351.027344 318.632812 351.550781 318.652344 352.082031 L 191.410156 352.875 C 191.367188 352.289062 191.296875 351.699219 191.214844 351.117188 C 191.152344 350.710938 191.082031 350.308594 191 349.90625 Z M 191 349.90625 "/>
<path style=" stroke:none;fill-rule:nonzero;fill:rgb(0%,0%,0%);fill-opacity:1;" d="M 349.597656 133.539062 C 331.890625 142.691406 319.726562 153.261719 312.328125 160.976562 C 311.542969 160.597656 310.753906 160.226562 309.957031 159.875 C 317.421875 151.976562 329.976562 140.894531 348.453125 131.339844 C 371.316406 119.527344 397.460938 112.996094 426.160156 111.941406 L 426.195312 111.941406 C 425.980469 111.945312 425.769531 112 425.574219 112.113281 C 424.15625 112.945312 422.78125 113.792969 421.441406 114.65625 C 394.992188 116.207031 370.84375 122.554688 349.59375 133.539062 Z M 349.597656 133.539062 "/>
<path style=" stroke:none;fill-rule:nonzero;fill:rgb(0%,0%,0%);fill-opacity:1;" d="M 309.53125 162.671875 C 310.003906 162.914062 310.605469 162.8125 310.988281 162.402344 C 311.414062 161.9375 311.871094 161.460938 312.332031 160.976562 C 315.699219 162.585938 318.945312 164.347656 322.039062 166.253906 C 322.738281 166.683594 322.957031 167.601562 322.523438 168.300781 C 322.09375 168.996094 321.175781 169.21875 320.476562 168.785156 C 316.976562 166.628906 313.289062 164.664062 309.425781 162.894531 L 309.53125 162.667969 Z M 309.53125 162.671875 "/>
<path style=" stroke:none;fill-rule:nonzero;fill:rgb(0%,0%,0%);fill-opacity:1;" d="M 310.988281 162.402344 C 310.605469 162.8125 310.003906 162.914062 309.527344 162.671875 C 309.421875 162.621094 309.324219 162.554688 309.234375 162.472656 C 308.734375 162.007812 308.699219 161.226562 309.164062 160.71875 C 309.421875 160.441406 309.683594 160.164062 309.953125 159.878906 C 310.753906 160.230469 311.542969 160.601562 312.324219 160.976562 C 311.863281 161.460938 311.410156 161.9375 310.984375 162.40625 Z M 310.988281 162.402344 "/>
<path style=" stroke:none;fill-rule:nonzero;fill:rgb(20.784314%,20.784314%,20.784314%);fill-opacity:1;" d="M 298.714844 268.578125 C 298.714844 247.6875 315.59375 230.734375 336.488281 230.570312 C 316.097656 231.296875 299.796875 248.023438 299.796875 268.550781 C 299.796875 289.082031 316.847656 306.5625 337.882812 306.5625 L 337.882812 306.566406 C 337.523438 306.582031 337.164062 306.589844 336.800781 306.589844 C 315.765625 306.589844 298.714844 289.570312 298.714844 268.578125 Z M 298.714844 268.578125 "/>
<path style=" stroke:none;fill-rule:nonzero;fill:rgb(20.784314%,20.784314%,20.784314%);fill-opacity:1;" d="M 172.691406 234.371094 C 192.5625 235.644531 208.289062 252.136719 208.289062 272.296875 C 208.289062 292.457031 192.109375 309.421875 171.832031 310.269531 C 183.386719 309.75 203.390625 292.933594 203.390625 272.273438 C 203.390625 248.078125 181.878906 235.601562 172.691406 234.371094 Z M 172.691406 234.371094 "/>
<path style=" stroke:none;fill-rule:nonzero;fill:rgb(0%,0%,0%);fill-opacity:1;" d="M 247.328125 151.429688 C 227.578125 152.136719 208.660156 156.585938 193.324219 163.9375 L 193.214844 163.703125 C 193.378906 163.636719 193.523438 163.527344 193.644531 163.386719 C 194.097656 162.867188 194.039062 162.085938 193.519531 161.640625 C 193.257812 161.414062 192.984375 161.179688 192.707031 160.949219 C 208.292969 153.609375 227.363281 149.179688 247.222656 148.464844 C 269.929688 147.640625 291.71875 151.65625 309.957031 159.878906 C 309.6875 160.164062 309.425781 160.441406 309.167969 160.71875 C 308.699219 161.226562 308.734375 162.007812 309.238281 162.472656 C 309.328125 162.558594 309.425781 162.621094 309.53125 162.671875 L 309.425781 162.898438 C 291.464844 154.65625 269.878906 150.617188 247.328125 151.429688 Z M 247.328125 151.429688 "/>
<path style=" stroke:none;fill-rule:nonzero;fill:rgb(0%,0%,0%);fill-opacity:1;" d="M 193.523438 161.640625 C 194.039062 162.085938 194.101562 162.867188 193.648438 163.386719 C 193.523438 163.523438 193.382812 163.636719 193.21875 163.703125 C 193.058594 163.78125 192.886719 163.816406 192.710938 163.816406 C 192.425781 163.816406 192.136719 163.714844 191.902344 163.511719 C 191.386719 163.066406 190.839844 162.605469 190.269531 162.128906 C 191.074219 161.726562 191.886719 161.328125 192.710938 160.945312 C 192.988281 161.175781 193.261719 161.410156 193.527344 161.636719 Z M 193.523438 161.640625 "/>
<path style=" stroke:none;fill-rule:nonzero;fill:rgb(0%,0%,0%);fill-opacity:1;" d="M 203.390625 272.273438 C 203.390625 292.933594 183.386719 309.75 171.832031 310.269531 C 171.648438 310.277344 171.460938 310.28125 171.285156 310.28125 C 150.25 310.28125 133.191406 293.261719 133.191406 272.273438 C 133.191406 251.28125 149.496094 235.019531 169.890625 234.289062 C 169.996094 234.285156 170.097656 234.285156 170.203125 234.285156 C 171.035156 234.285156 171.867188 234.308594 172.691406 234.371094 C 181.878906 235.601562 203.390625 248.078125 203.390625 272.273438 Z M 203.390625 272.273438 "/>
<path style=" stroke:none;fill-rule:nonzero;fill:rgb(0%,0%,0%);fill-opacity:1;" d="M 192.710938 163.816406 C 192.882812 163.816406 193.058594 163.78125 193.214844 163.703125 L 193.324219 163.9375 C 188.460938 166.269531 183.953125 168.890625 179.898438 171.785156 C 179.636719 171.972656 179.332031 172.0625 179.035156 172.0625 C 178.570312 172.0625 178.109375 171.84375 177.820312 171.4375 C 177.34375 170.765625 177.496094 169.84375 178.167969 169.367188 C 181.859375 166.734375 185.917969 164.316406 190.269531 162.128906 C 190.839844 162.605469 191.386719 163.066406 191.902344 163.511719 C 192.136719 163.714844 192.425781 163.816406 192.710938 163.816406 Z M 192.710938 163.816406 "/>
<path style=" stroke:none;fill-rule:nonzero;fill:rgb(0%,0%,0%);fill-opacity:1;" d="M 191.410156 352.875 L 189.257812 352.890625 L 189.246094 352.890625 C 188.480469 352.890625 187.847656 352.308594 187.765625 351.5625 C 187.761719 351.511719 187.757812 351.460938 187.757812 351.414062 C 187.753906 350.59375 188.414062 349.925781 189.238281 349.917969 L 191 349.910156 C 191.082031 350.3125 191.152344 350.710938 191.210938 351.121094 C 191.296875 351.703125 191.363281 352.292969 191.410156 352.875 Z M 191.410156 352.875 "/>
<path style=" stroke:none;fill-rule:nonzero;fill:rgb(64.313728%,64.313728%,64.313728%);fill-opacity:1;" d="M 187.285156 351.695312 C 187.488281 353.050781 187.550781 354.410156 187.476562 355.738281 C 187.457031 356.023438 187.433594 356.304688 187.40625 356.582031 C 186.378906 366.730469 177.550781 374.042969 168.503906 378.066406 C 169.769531 375.125 170.355469 371.582031 170.226562 367.605469 C 170.078125 363.132812 169.09375 359.695312 169.054688 359.554688 C 168.902344 359.027344 168.351562 358.726562 167.824219 358.882812 C 167.300781 359.035156 166.996094 359.585938 167.152344 360.109375 C 167.1875 360.230469 170.382812 371.589844 165.695312 379.210938 C 165.347656 379.339844 165.003906 379.464844 164.65625 379.582031 C 160.03125 381.171875 155.21875 382.0625 150.738281 382.144531 C 147.890625 382.195312 144.941406 381.929688 142.003906 381.386719 C 142.503906 373.292969 137.585938 364.449219 137.363281 364.050781 C 137.09375 363.578125 136.488281 363.40625 136.007812 363.675781 C 135.53125 363.941406 135.363281 364.546875 135.628906 365.023438 C 135.679688 365.113281 140.359375 373.53125 140.042969 380.980469 C 126.84375 377.945312 114.410156 369.265625 112.871094 357.578125 C 112.867188 357.542969 112.863281 357.523438 112.851562 357.488281 C 112.851562 357.464844 112.847656 357.445312 112.847656 357.425781 C 112.632812 355.707031 112.65625 353.933594 112.902344 352.167969 C 112.902344 352.15625 112.90625 352.148438 112.90625 352.136719 C 114.992188 337.582031 132.433594 324.074219 149.53125 323.78125 C 149.710938 323.773438 149.894531 323.773438 150.082031 323.773438 C 158.28125 323.773438 167.046875 326.8125 174.21875 332.152344 C 181.464844 337.542969 186.21875 344.648438 187.273438 351.640625 C 187.277344 351.660156 187.277344 351.675781 187.285156 351.695312 Z M 187.285156 351.695312 "/>
<path style=" stroke:none;fill-rule:nonzero;fill:rgb(0%,0%,0%);fill-opacity:1;" d="M 171.285156 234.261719 C 171.710938 234.261719 172.183594 234.296875 172.691406 234.371094 C 171.867188 234.3125 171.035156 234.289062 170.203125 234.289062 C 170.097656 234.289062 169.996094 234.289062 169.890625 234.292969 C 170.351562 234.273438 170.820312 234.261719 171.285156 234.261719 Z M 171.285156 234.261719 "/>
<path style=" stroke:none;fill-rule:nonzero;fill:rgb(0%,0%,0%);fill-opacity:1;" d="M 170.226562 367.605469 C 170.359375 371.582031 169.773438 375.125 168.503906 378.066406 C 167.566406 378.480469 166.628906 378.863281 165.695312 379.210938 C 170.378906 371.589844 167.183594 360.230469 167.148438 360.109375 C 166.996094 359.585938 167.296875 359.035156 167.824219 358.882812 C 168.347656 358.730469 168.898438 359.027344 169.054688 359.554688 C 169.09375 359.695312 170.074219 363.132812 170.226562 367.605469 Z M 170.226562 367.605469 "/>
<path style=" stroke:none;fill-rule:nonzero;fill:rgb(0%,0%,0%);fill-opacity:1;" d="M 165.695312 379.207031 C 166.628906 378.859375 167.566406 378.480469 168.507812 378.0625 C 167.867188 379.570312 167.046875 380.917969 166.058594 382.089844 C 165.933594 382.234375 165.78125 382.339844 165.613281 382.394531 C 165.511719 382.429688 165.40625 382.445312 165.300781 382.445312 C 165.074219 382.445312 164.851562 382.363281 164.660156 382.210938 C 164.242188 381.859375 164.1875 381.234375 164.539062 380.8125 C 164.96875 380.304688 165.351562 379.769531 165.695312 379.207031 Z M 165.695312 379.207031 "/>
<path style=" stroke:none;fill-rule:nonzero;fill:rgb(0%,0%,0%);fill-opacity:1;" d="M 166.058594 382.09375 C 167.046875 380.917969 167.867188 379.570312 168.507812 378.066406 C 177.550781 374.042969 186.382812 366.730469 187.410156 356.582031 C 187.433594 356.304688 187.460938 356.023438 187.480469 355.738281 C 187.554688 354.410156 187.488281 353.050781 187.285156 351.695312 C 187.28125 351.675781 187.28125 351.660156 187.277344 351.640625 L 187.773438 351.5625 C 187.851562 352.308594 188.480469 352.890625 189.253906 352.890625 L 189.261719 352.890625 L 191.417969 352.875 C 191.492188 353.914062 191.503906 354.949219 191.441406 355.96875 L 191.441406 355.984375 C 191.421875 356.3125 191.398438 356.640625 191.363281 356.96875 C 189.996094 370.429688 177.339844 379.40625 165.945312 383.324219 C 165.941406 383.324219 165.933594 383.328125 165.925781 383.328125 L 165.613281 382.390625 C 165.78125 382.335938 165.9375 382.234375 166.058594 382.089844 Z M 166.058594 382.09375 "/>
<path style=" stroke:none;fill-rule:nonzero;fill:rgb(0%,0%,0%);fill-opacity:1;" d="M 137.363281 364.050781 C 137.585938 364.449219 142.503906 373.292969 142.003906 381.386719 C 141.347656 381.261719 140.695312 381.128906 140.042969 380.980469 C 140.363281 373.535156 135.679688 365.113281 135.628906 365.023438 C 135.363281 364.550781 135.53125 363.945312 136.007812 363.675781 C 136.488281 363.410156 137.09375 363.578125 137.363281 364.054688 Z M 137.363281 364.050781 "/>
<path style=" stroke:none;fill-rule:nonzero;fill:rgb(0%,0%,0%);fill-opacity:1;" d="M 142.003906 381.382812 C 141.976562 381.976562 141.910156 382.5625 141.8125 383.140625 C 141.726562 383.625 141.304688 383.96875 140.835938 383.96875 C 140.78125 383.96875 140.71875 383.964844 140.667969 383.953125 C 140.605469 383.945312 140.546875 383.929688 140.496094 383.910156 C 140.054688 383.75 139.773438 383.289062 139.851562 382.8125 C 139.957031 382.207031 140.015625 381.597656 140.046875 380.976562 C 140.695312 381.125 141.351562 381.257812 142.007812 381.382812 Z M 142.003906 381.382812 "/>
<path style=" stroke:none;fill-rule:nonzero;fill:rgb(0%,0%,0%);fill-opacity:1;" d="M 165.609375 382.394531 L 165.925781 383.332031 C 160.921875 385.054688 155.699219 386.011719 150.808594 386.105469 C 150.535156 386.109375 150.257812 386.109375 149.984375 386.109375 C 146.773438 386.109375 143.488281 385.761719 140.242188 385.101562 L 140.488281 383.910156 C 140.542969 383.929688 140.605469 383.945312 140.660156 383.957031 C 140.71875 383.964844 140.777344 383.972656 140.828125 383.972656 C 141.300781 383.972656 141.722656 383.628906 141.808594 383.144531 C 141.90625 382.5625 141.96875 381.976562 142 381.386719 C 144.933594 381.929688 147.882812 382.195312 150.730469 382.144531 C 155.214844 382.058594 160.027344 381.171875 164.648438 379.582031 C 164.996094 379.464844 165.34375 379.339844 165.691406 379.210938 C 165.347656 379.769531 164.96875 380.304688 164.535156 380.816406 C 164.179688 381.234375 164.234375 381.859375 164.65625 382.214844 C 164.84375 382.367188 165.066406 382.445312 165.296875 382.445312 C 165.402344 382.445312 165.507812 382.429688 165.609375 382.394531 Z M 165.609375 382.394531 "/>
<path style=" stroke:none;fill-rule:nonzero;fill:rgb(20.784314%,20.784314%,20.784314%);fill-opacity:1;" d="M 133.195312 272.273438 C 133.195312 293.261719 150.25 310.28125 171.289062 310.28125 C 171.464844 310.28125 171.652344 310.277344 171.832031 310.269531 C 171.292969 310.296875 170.75 310.308594 170.207031 310.308594 C 149.167969 310.308594 132.117188 293.292969 132.117188 272.296875 C 132.117188 251.300781 149 234.457031 169.890625 234.289062 C 149.503906 235.019531 133.195312 251.742188 133.195312 272.273438 Z M 133.195312 272.273438 "/>
<path style=" stroke:none;fill-rule:nonzero;fill:rgb(65.882355%,38.82353%,41.176471%);fill-opacity:1;" d="M 120.140625 168.578125 C 127.976562 183.214844 131.117188 196.148438 131.789062 199.195312 C 130.453125 200.40625 126.773438 203.828125 121.886719 209.03125 C 120.140625 189.28125 112.496094 169.726562 99.152344 150.851562 C 90.953125 139.261719 82.386719 130.519531 76.667969 125.242188 C 99.011719 135.9375 112.558594 154.414062 120.140625 168.578125 Z M 120.140625 168.578125 "/>
<path style=" stroke:none;fill-rule:nonzero;fill:rgb(0%,0%,0%);fill-opacity:1;" d="M 122.070312 211.402344 C 122.019531 210.613281 121.960938 209.820312 121.886719 209.035156 C 126.773438 203.828125 130.453125 200.410156 131.789062 199.195312 C 131.117188 196.148438 127.976562 183.214844 120.140625 168.582031 C 112.558594 154.421875 99.011719 135.941406 76.667969 125.246094 C 75.488281 124.160156 74.4375 123.226562 73.53125 122.441406 C 74.238281 122.304688 74.960938 122.171875 75.679688 122.058594 C 99.886719 132.882812 114.375 152.535156 122.367188 167.480469 C 131.457031 184.476562 134.34375 199.265625 134.371094 199.40625 C 134.449219 199.835938 134.292969 200.285156 133.964844 200.570312 C 133.828125 200.695312 129.121094 204.855469 122.441406 212.117188 L 122.015625 211.726562 C 122.058594 211.625 122.082031 211.511719 122.070312 211.398438 Z M 122.070312 211.402344 "/>
<path style=" stroke:none;fill-rule:nonzero;fill:rgb(0%,0%,0%);fill-opacity:1;" d="M 122.070312 211.402344 C 122.082031 211.515625 122.058594 211.628906 122.015625 211.730469 C 121.910156 211.984375 121.667969 212.167969 121.375 212.1875 C 121.359375 212.195312 121.34375 212.195312 121.328125 212.195312 C 120.9375 212.195312 120.609375 211.890625 120.585938 211.496094 C 120.566406 211.167969 120.539062 210.835938 120.515625 210.511719 C 120.980469 210.007812 121.4375 209.511719 121.886719 209.035156 C 121.960938 209.820312 122.019531 210.613281 122.066406 211.402344 Z M 122.070312 211.402344 "/>
<path style=" stroke:none;fill-rule:nonzero;fill:rgb(78.823531%,46.27451%,47.058824%);fill-opacity:1;" d="M 120.515625 210.507812 C 117.097656 165.027344 82.171875 131.855469 72.21875 123.273438 C 73.738281 123.894531 75.222656 124.554688 76.667969 125.246094 C 82.386719 130.519531 90.953125 139.265625 99.152344 150.859375 C 112.492188 169.730469 120.140625 189.285156 121.886719 209.035156 C 121.441406 209.511719 120.984375 210.007812 120.515625 210.511719 Z M 120.515625 210.507812 "/>
<path style=" stroke:none;fill-rule:nonzero;fill:rgb(100%,62.7451%,63.921571%);fill-opacity:1;" d="M 72.21875 123.269531 C 82.171875 131.851562 117.09375 165.027344 120.515625 210.507812 C 117.285156 214.007812 113.617188 218.214844 109.796875 223.007812 C 95.441406 241.035156 86.898438 257.355469 81.820312 270.257812 C 69.894531 247.84375 61.9375 226.21875 58.15625 205.953125 C 55.066406 189.417969 54.746094 173.746094 57.1875 159.375 C 60.808594 138.082031 69.527344 125.941406 71.792969 123.089844 C 71.933594 123.148438 72.078125 123.203125 72.21875 123.261719 C 72.222656 123.261719 72.222656 123.265625 72.222656 123.265625 Z M 72.21875 123.269531 "/>
<path style=" stroke:none;fill-rule:nonzero;fill:rgb(0%,0%,0%);fill-opacity:1;" d="M 149.53125 323.78125 C 132.433594 324.074219 114.992188 337.585938 112.90625 352.140625 L 112.171875 352.019531 C 112.179688 351.96875 112.179688 351.925781 112.179688 351.882812 C 112.171875 351.203125 111.617188 350.65625 110.9375 350.65625 L 110.929688 350.65625 L 109.132812 350.664062 C 112.054688 334.441406 130.613281 320.144531 149.460938 319.824219 C 168.390625 319.511719 187.78125 333.703125 191.003906 349.910156 L 189.242188 349.921875 C 188.417969 349.925781 187.761719 350.59375 187.761719 351.417969 C 187.761719 351.46875 187.765625 351.515625 187.773438 351.5625 L 187.277344 351.644531 C 186.222656 344.648438 181.46875 337.542969 174.222656 332.15625 C 167.050781 326.816406 158.28125 323.78125 150.082031 323.78125 C 149.894531 323.78125 149.714844 323.78125 149.53125 323.785156 Z M 149.53125 323.78125 "/>
<path style=" stroke:none;fill-rule:nonzero;fill:rgb(0%,0%,0%);fill-opacity:1;" d="M 112.902344 352.167969 C 112.65625 353.933594 112.632812 355.710938 112.847656 357.425781 C 112.847656 357.445312 112.851562 357.464844 112.851562 357.488281 C 112.863281 357.523438 112.867188 357.542969 112.871094 357.578125 C 114.410156 369.265625 126.84375 377.945312 140.042969 380.980469 C 140.011719 381.597656 139.953125 382.210938 139.851562 382.816406 C 139.769531 383.289062 140.046875 383.753906 140.492188 383.910156 L 140.242188 385.101562 C 125.105469 382.019531 110.808594 372.058594 108.941406 358.140625 C 108.925781 358.058594 108.910156 357.972656 108.902344 357.894531 C 108.714844 356.328125 108.679688 354.738281 108.808594 353.144531 L 110.945312 353.128906 C 111.585938 353.125 112.109375 352.640625 112.171875 352.019531 L 112.90625 352.140625 C 112.90625 352.140625 112.898438 352.160156 112.898438 352.167969 Z M 112.902344 352.167969 "/>
<path style=" stroke:none;fill-rule:nonzero;fill:rgb(0%,0%,0%);fill-opacity:1;" d="M 112.179688 351.878906 C 112.179688 351.925781 112.179688 351.96875 112.171875 352.015625 C 112.109375 352.636719 111.585938 353.121094 110.949219 353.125 L 108.808594 353.140625 C 108.84375 352.632812 108.90625 352.125 108.972656 351.617188 C 109.015625 351.292969 109.066406 350.976562 109.128906 350.660156 L 110.925781 350.652344 L 110.9375 350.652344 C 111.613281 350.652344 112.171875 351.203125 112.175781 351.878906 Z M 112.179688 351.878906 "/>
<path style=" stroke:none;fill-rule:nonzero;fill:rgb(0%,0%,0%);fill-opacity:1;" d="M 83.984375 350.820312 L 109.128906 350.660156 C 109.066406 350.980469 109.015625 351.296875 108.972656 351.617188 C 108.902344 352.125 108.84375 352.632812 108.808594 353.140625 L 83.195312 353.300781 L 83.1875 353.300781 C 82.699219 353.300781 82.257812 353.015625 82.058594 352.578125 C 79.097656 346.113281 76.863281 339.425781 75.410156 332.664062 C 76.199219 332.308594 76.972656 331.964844 77.71875 331.632812 C 79.085938 338.136719 81.183594 344.582031 83.984375 350.820312 Z M 83.984375 350.820312 "/>
<path style=" stroke:none;fill-rule:nonzero;fill:rgb(0%,0%,0%);fill-opacity:1;" d="M 95.300781 322.566406 C 95.609375 323.332031 95.234375 324.191406 94.472656 324.5 C 94.316406 324.554688 87.542969 327.265625 77.71875 331.632812 C 77.632812 331.222656 77.550781 330.816406 77.46875 330.410156 C 77.355469 329.820312 77.246094 329.230469 77.140625 328.636719 C 86.6875 324.40625 93.21875 321.796875 93.367188 321.738281 C 94.132812 321.433594 94.996094 321.808594 95.300781 322.570312 Z M 95.300781 322.566406 "/>
<path style=" stroke:none;fill-rule:nonzero;fill:rgb(0%,0%,0%);fill-opacity:1;" d="M 93.320312 286.160156 C 94.109375 286.382812 94.566406 287.203125 94.34375 287.996094 C 94.160156 288.652344 93.558594 289.078125 92.914062 289.078125 C 92.777344 289.078125 92.640625 289.054688 92.507812 289.015625 C 92.347656 288.972656 87.152344 287.515625 79.320312 285.8125 C 79.445312 285.347656 79.566406 284.882812 79.691406 284.425781 C 79.828125 283.925781 79.96875 283.425781 80.113281 282.929688 C 88.007812 284.664062 93.242188 286.132812 93.320312 286.160156 Z M 93.320312 286.160156 "/>
<path style=" stroke:none;fill-rule:nonzero;fill:rgb(0%,0%,0%);fill-opacity:1;" d="M 87.21875 306.136719 C 88.039062 306.15625 88.691406 306.839844 88.664062 307.660156 C 88.644531 308.476562 87.945312 309.109375 87.136719 309.101562 C 87 309.097656 82.589844 308.992188 75.820312 309.28125 C 75.835938 308.816406 75.847656 308.347656 75.875 307.882812 C 75.898438 307.351562 75.929688 306.816406 75.964844 306.285156 C 82.742188 306.015625 87.152344 306.128906 87.222656 306.136719 Z M 87.21875 306.136719 "/>
<path style=" stroke:none;fill-rule:nonzero;fill:rgb(0%,0%,0%);fill-opacity:1;" d="M 80.113281 282.929688 C 79.96875 283.425781 79.828125 283.925781 79.691406 284.425781 C 79.566406 284.882812 79.445312 285.347656 79.320312 285.8125 C 78.535156 285.644531 77.726562 285.46875 76.890625 285.296875 C 77.027344 284.792969 77.160156 284.28125 77.296875 283.769531 C 77.421875 283.328125 77.546875 282.867188 77.679688 282.410156 C 78.515625 282.585938 79.328125 282.761719 80.113281 282.929688 Z M 80.113281 282.929688 "/>
<path style=" stroke:none;fill-rule:nonzero;fill:rgb(0%,0%,0%);fill-opacity:1;" d="M 77.46875 330.410156 C 77.550781 330.816406 77.632812 331.222656 77.71875 331.632812 C 76.96875 331.964844 76.195312 332.308594 75.40625 332.664062 C 75.277344 332.066406 75.152344 331.476562 75.039062 330.886719 C 74.957031 330.484375 74.886719 330.078125 74.808594 329.675781 C 75.605469 329.3125 76.382812 328.96875 77.140625 328.636719 C 77.246094 329.230469 77.355469 329.820312 77.46875 330.40625 Z M 77.46875 330.410156 "/>
<path style=" stroke:none;fill-rule:nonzero;fill:rgb(0%,0%,0%);fill-opacity:1;" d="M 77.679688 282.40625 C 77.546875 282.867188 77.421875 283.324219 77.296875 283.769531 C 77.160156 284.277344 77.023438 284.789062 76.890625 285.292969 C 60.230469 281.8125 33.96875 277.800781 17.234375 282.527344 C 16.445312 282.75 15.621094 282.292969 15.398438 281.503906 C 15.175781 280.714844 15.636719 279.894531 16.425781 279.671875 C 27.695312 276.488281 44.078125 276.613281 65.113281 280.050781 C 69.640625 280.792969 73.902344 281.613281 77.679688 282.40625 Z M 77.679688 282.40625 "/>
<path style=" stroke:none;fill-rule:nonzero;fill:rgb(0%,0%,0%);fill-opacity:1;" d="M 79.320312 285.8125 C 77.523438 292.710938 76.394531 299.589844 75.960938 306.285156 C 75.164062 306.320312 74.328125 306.355469 73.464844 306.402344 C 73.890625 299.496094 75.042969 292.410156 76.890625 285.300781 C 77.722656 285.472656 78.53125 285.644531 79.316406 285.8125 Z M 79.320312 285.8125 "/>
<path style=" stroke:none;fill-rule:nonzero;fill:rgb(0%,0%,0%);fill-opacity:1;" d="M 75.960938 306.285156 C 75.925781 306.820312 75.898438 307.355469 75.871094 307.886719 C 75.847656 308.351562 75.832031 308.816406 75.816406 309.28125 C 75.019531 309.3125 74.1875 309.351562 73.324219 309.398438 C 73.34375 308.851562 73.363281 308.3125 73.390625 307.769531 C 73.410156 307.3125 73.433594 306.855469 73.464844 306.402344 C 74.328125 306.355469 75.164062 306.320312 75.960938 306.285156 Z M 75.960938 306.285156 "/>
<path style=" stroke:none;fill-rule:nonzero;fill:rgb(0%,0%,0%);fill-opacity:1;" d="M 75.820312 309.28125 C 75.597656 315.832031 76.042969 322.324219 77.144531 328.636719 C 76.386719 328.96875 75.605469 329.3125 74.8125 329.675781 C 73.609375 323.0625 73.113281 316.253906 73.328125 309.394531 C 74.195312 309.347656 75.023438 309.308594 75.820312 309.277344 Z M 75.820312 309.28125 "/>
<path style=" stroke:none;fill-rule:nonzero;fill:rgb(0%,0%,0%);fill-opacity:1;" d="M 75.039062 330.886719 C 75.15625 331.480469 75.277344 332.070312 75.410156 332.664062 C 63.183594 338.164062 47.019531 345.910156 32.984375 354.242188 C 32.746094 354.378906 32.484375 354.449219 32.226562 354.449219 C 31.714844 354.449219 31.222656 354.1875 30.945312 353.722656 C 30.523438 353.019531 30.757812 352.105469 31.460938 351.6875 C 45.851562 343.148438 62.433594 335.226562 74.816406 329.675781 C 74.890625 330.078125 74.960938 330.484375 75.042969 330.886719 Z M 75.039062 330.886719 "/>
<path style=" stroke:none;fill-rule:nonzero;fill:rgb(0%,0%,0%);fill-opacity:1;" d="M 73.464844 306.398438 C 73.433594 306.851562 73.410156 307.3125 73.390625 307.765625 C 73.363281 308.3125 73.34375 308.851562 73.324219 309.394531 C 58.539062 310.164062 35 312.753906 18.664062 321.226562 C 18.441406 321.339844 18.207031 321.394531 17.980469 321.394531 C 17.4375 321.394531 16.917969 321.101562 16.65625 320.589844 C 16.277344 319.863281 16.558594 318.964844 17.292969 318.582031 C 30.929688 311.511719 49.230469 308.503906 62.175781 307.222656 C 66.261719 306.820312 70.09375 306.558594 73.464844 306.394531 Z M 73.464844 306.398438 "/>
<path style=" stroke:none;fill-rule:nonzero;fill:rgb(0%,0%,0%);fill-opacity:1;" d="M 76.667969 125.242188 C 75.21875 124.554688 73.738281 123.890625 72.21875 123.269531 C 72.21875 123.269531 72.21875 123.265625 72.214844 123.265625 C 72.03125 123.109375 71.851562 122.953125 71.683594 122.8125 C 72.292969 122.679688 72.910156 122.558594 73.53125 122.4375 C 74.4375 123.222656 75.492188 124.160156 76.667969 125.242188 Z M 76.667969 125.242188 "/>
<path style=" stroke:none;fill-rule:nonzero;fill:rgb(0%,0%,0%);fill-opacity:1;" d="M 71.210938 120.382812 C 93.445312 115.617188 118.714844 119.566406 146.3125 132.109375 C 166.015625 141.0625 183.386719 153.058594 192.710938 160.945312 C 191.886719 161.328125 191.070312 161.722656 190.265625 162.128906 C 180.890625 154.359375 164.179688 142.949219 145.285156 134.363281 C 119.808594 122.78125 96.414062 118.648438 75.679688 122.058594 C 74.433594 121.5 73.15625 120.964844 71.855469 120.453125 C 71.648438 120.367188 71.425781 120.347656 71.210938 120.382812 Z M 71.210938 120.382812 "/>
<path style=" stroke:none;fill-rule:nonzero;fill:rgb(0%,0%,0%);fill-opacity:1;" d="M 70.835938 121.132812 C 71.097656 120.8125 71.5625 120.773438 71.882812 121.035156 C 72.351562 121.433594 72.910156 121.898438 73.53125 122.4375 C 72.910156 122.558594 72.292969 122.679688 71.683594 122.8125 C 71.40625 122.578125 71.152344 122.367188 70.929688 122.175781 C 70.613281 121.914062 70.570312 121.445312 70.835938 121.132812 Z M 70.835938 121.132812 "/>
<path style=" stroke:none;fill-rule:nonzero;fill:rgb(0%,0%,0%);fill-opacity:1;" d="M 71.210938 120.382812 C 71.199219 120.390625 71.183594 120.390625 71.167969 120.394531 C 71.183594 120.390625 71.199219 120.382812 71.210938 120.382812 Z M 71.210938 120.382812 "/>
<path style=" stroke:none;fill-rule:nonzero;fill:rgb(0%,0%,0%);fill-opacity:1;" d="M 71.144531 120.398438 C 71.074219 120.414062 71.007812 120.433594 70.949219 120.457031 C 71.015625 120.433594 71.078125 120.414062 71.144531 120.398438 Z M 71.144531 120.398438 "/>
<path style=" stroke:none;fill-rule:nonzero;fill:rgb(0%,0%,0%);fill-opacity:1;" d="M 70.71875 120.578125 C 70.667969 120.613281 70.621094 120.648438 70.578125 120.6875 C 70.625 120.648438 70.667969 120.613281 70.71875 120.578125 Z M 70.71875 120.578125 "/>
<path style=" stroke:none;fill-rule:nonzero;fill:rgb(0%,0%,0%);fill-opacity:1;" d="M 71.882812 121.039062 C 71.5625 120.777344 71.097656 120.816406 70.835938 121.132812 C 70.570312 121.445312 70.613281 121.917969 70.929688 122.179688 C 71.152344 122.367188 71.40625 122.582031 71.683594 122.8125 C 71.679688 122.820312 71.671875 122.820312 71.667969 122.820312 C 70.996094 122.960938 70.339844 122.542969 70.191406 121.875 C 70.113281 121.496094 70.214844 121.121094 70.4375 120.839844 C 70.441406 120.828125 70.445312 120.824219 70.453125 120.820312 C 70.492188 120.773438 70.53125 120.730469 70.578125 120.6875 C 70.621094 120.648438 70.667969 120.613281 70.714844 120.578125 C 70.789062 120.527344 70.863281 120.488281 70.945312 120.457031 C 71.007812 120.433594 71.074219 120.414062 71.140625 120.398438 C 71.144531 120.394531 71.15625 120.394531 71.164062 120.394531 C 71.179688 120.390625 71.195312 120.390625 71.210938 120.382812 C 71.421875 120.347656 71.644531 120.367188 71.855469 120.453125 C 73.15625 120.964844 74.429688 121.5 75.679688 122.058594 C 74.960938 122.171875 74.238281 122.300781 73.53125 122.441406 C 72.910156 121.902344 72.351562 121.4375 71.882812 121.039062 Z M 71.882812 121.039062 "/>
<path style=" stroke:none;fill-rule:nonzero;fill:rgb(0%,0%,0%);fill-opacity:1;" d="M 70.578125 120.6875 C 70.53125 120.726562 70.492188 120.769531 70.453125 120.816406 C 70.464844 120.800781 70.476562 120.792969 70.480469 120.78125 C 70.511719 120.746094 70.546875 120.714844 70.578125 120.6875 Z M 70.578125 120.6875 "/>
<path style=" stroke:none;fill-rule:nonzero;fill:rgb(0%,0%,0%);fill-opacity:1;" d="M 70.4375 120.835938 C 70.214844 121.117188 70.117188 121.496094 70.195312 121.871094 C 70.339844 122.542969 71 122.960938 71.671875 122.816406 C 71.675781 122.816406 71.679688 122.816406 71.6875 122.8125 C 71.855469 122.953125 72.035156 123.109375 72.21875 123.265625 C 72.078125 123.207031 71.933594 123.152344 71.792969 123.09375 C 69.527344 125.945312 60.808594 138.089844 57.1875 159.378906 C 54.746094 173.753906 55.070312 189.417969 58.15625 205.957031 C 61.9375 226.222656 69.894531 247.851562 81.820312 270.261719 C 86.898438 257.363281 95.441406 241.039062 109.796875 223.011719 C 113.617188 218.21875 117.285156 214.011719 120.515625 210.511719 C 120.542969 210.839844 120.566406 211.171875 120.585938 211.496094 C 120.613281 211.894531 120.941406 212.195312 121.332031 212.195312 C 121.347656 212.195312 121.363281 212.195312 121.375 212.1875 C 121.667969 212.167969 121.914062 211.984375 122.019531 211.730469 L 122.445312 212.121094 C 109.4375 226.261719 88.949219 252.167969 80.113281 282.929688 C 79.328125 282.765625 78.515625 282.589844 77.679688 282.410156 C 78.472656 279.632812 79.460938 276.5625 80.6875 273.238281 C 80.578125 273.136719 80.484375 273.023438 80.410156 272.882812 C 67.902344 249.679688 59.582031 227.265625 55.6875 206.265625 C 52.5625 189.425781 52.253906 173.449219 54.769531 158.78125 C 58.976562 134.277344 69.519531 121.878906 70.4375 120.839844 Z M 70.4375 120.835938 "/>
<path style=" stroke:none;fill-rule:nonzero;fill:rgb(33.725491%,33.725491%,33.725491%);fill-opacity:1;" d="M 257.84375 267.613281 C 257.84375 266.335938 256.804688 265.296875 255.523438 265.296875 C 254.242188 265.296875 253.203125 266.335938 253.203125 267.613281 C 253.203125 268.894531 254.242188 269.933594 255.523438 269.933594 C 256.804688 269.933594 257.84375 268.894531 257.84375 267.613281 Z M 257.84375 267.613281 "/>
</g>
</svg>
