<?xml version="1.0" encoding="UTF-8" ?>
<!DOCTYPE svg PUBLIC "-//W3C//DTD SVG 1.1//EN" "http://www.w3.org/Graphics/SVG/1.1/DTD/svg11.dtd">
<svg width="500pt" height="500pt" viewBox="0 0 500 500" version="1.1" xmlns="http://www.w3.org/2000/svg">
<g id="#5b0afbff">
<path fill="#5b0afb" opacity="1.00" d=" M 0.00 0.00 L 500.00 0.00 L 500.00 80.02 C 431.87 80.02 363.73 79.90 295.60 80.08 C 295.53 80.57 295.37 81.56 295.29 82.05 C 293.92 81.36 292.56 80.62 291.11 80.12 C 290.01 80.83 289.02 81.68 288.00 82.51 C 286.31 82.35 284.63 82.17 282.95 81.97 C 283.93 82.62 284.90 83.27 285.87 83.93 C 281.76 83.71 277.61 80.86 273.81 83.78 C 275.50 83.72 277.20 83.64 278.90 83.55 C 279.07 83.78 279.43 84.23 279.61 84.45 C 279.27 84.71 278.59 85.24 278.25 85.50 C 279.95 85.87 281.66 86.26 283.34 86.71 C 270.06 85.44 256.53 84.57 243.29 86.68 C 239.64 85.75 236.33 83.89 233.37 81.59 C 230.78 79.33 227.16 80.12 224.02 79.97 C 149.34 80.04 74.67 79.94 0.00 80.02 L 0.00 0.00 Z" />
</g>
<g id="#640ef8ff">
<path fill="#640ef8" opacity="1.00" d=" M 0.00 80.02 C 74.67 79.94 149.34 80.04 224.02 79.97 C 227.16 80.12 230.78 79.33 233.37 81.59 C 236.33 83.89 239.64 85.75 243.29 86.68 C 238.95 87.36 234.65 88.26 230.47 89.62 C 226.45 91.05 222.14 89.84 218.00 90.49 C 211.55 91.40 204.07 92.13 199.85 97.79 C 194.00 97.97 189.26 101.57 184.34 104.26 C 175.95 109.32 169.48 116.78 162.47 123.48 C 154.20 132.77 147.82 143.66 143.29 155.23 C 142.34 154.24 141.40 153.26 140.46 152.28 C 139.80 153.82 139.14 155.36 138.48 156.91 C 138.33 156.37 138.04 155.29 137.89 154.75 C 134.98 155.48 131.96 155.12 129.00 155.05 C 86.00 154.94 43.00 155.05 0.00 154.95 L 0.00 80.02 Z" />
<path fill="#640ef8" opacity="1.00" d=" M 288.00 82.51 C 289.02 81.68 290.01 80.83 291.11 80.12 C 292.56 80.62 293.92 81.36 295.29 82.05 C 295.37 81.56 295.53 80.57 295.60 80.08 C 363.73 79.90 431.87 80.02 500.00 80.02 L 500.00 150.03 C 462.34 149.93 424.69 150.01 387.03 149.98 C 374.99 149.76 362.91 150.42 350.89 149.53 C 350.74 151.49 350.69 153.46 350.76 155.42 C 349.45 154.33 348.00 153.40 346.48 152.64 C 344.56 146.85 342.76 141.01 340.41 135.38 C 339.09 132.54 337.89 129.21 334.77 127.90 C 327.37 116.70 319.35 105.68 308.82 97.20 C 305.89 95.32 302.49 94.34 299.55 92.46 C 294.59 89.45 288.88 88.20 283.34 86.71 C 281.66 86.26 279.95 85.87 278.25 85.50 C 278.59 85.24 279.27 84.71 279.61 84.45 C 279.43 84.23 279.07 83.78 278.90 83.55 C 277.20 83.64 275.50 83.72 273.81 83.78 C 277.61 80.86 281.76 83.71 285.87 83.93 C 284.90 83.27 283.93 82.62 282.95 81.97 C 284.63 82.17 286.31 82.35 288.00 82.51 Z" />
</g>
<g id="#abd97fff">
<path fill="#abd97f" opacity="1.00" d=" M 243.29 86.68 C 256.53 84.57 270.06 85.44 283.34 86.71 C 288.88 88.20 294.59 89.45 299.55 92.46 C 302.49 94.34 305.89 95.32 308.82 97.20 C 319.35 105.68 327.37 116.70 334.77 127.90 C 340.34 135.21 342.55 144.24 345.16 152.87 C 348.17 162.35 349.72 172.19 352.09 181.83 C 355.31 194.88 356.75 208.30 357.60 221.69 C 357.81 227.85 359.23 233.86 360.10 239.94 C 359.41 246.26 359.92 252.62 361.72 258.73 C 360.94 259.57 360.18 260.41 359.41 261.26 C 358.03 256.04 356.07 250.97 353.66 246.13 C 350.32 239.85 350.84 232.44 348.44 225.85 C 348.45 228.26 348.54 230.70 349.01 233.08 C 351.06 243.58 352.65 254.24 352.59 264.97 C 352.57 271.81 349.18 277.98 345.82 283.73 C 344.24 286.52 342.27 289.07 339.99 291.32 C 337.12 291.40 334.17 291.50 331.58 292.87 C 327.97 294.74 323.77 294.68 320.08 296.35 C 319.51 296.04 318.37 295.43 317.81 295.12 C 317.32 294.70 316.35 293.87 315.86 293.45 C 319.19 286.59 320.57 279.00 320.49 271.41 C 320.52 271.01 320.58 270.20 320.61 269.79 C 320.43 268.56 320.17 267.35 319.91 266.14 C 318.69 274.40 315.64 282.37 310.83 289.20 C 308.94 290.86 307.44 293.72 304.49 292.50 C 301.75 293.21 299.23 291.80 296.74 290.92 C 293.31 289.60 289.63 288.73 286.62 286.54 C 284.97 285.21 282.94 284.63 280.95 284.07 C 280.32 283.40 279.80 282.64 279.40 281.81 C 281.74 279.60 283.55 276.92 284.95 274.04 C 283.31 276.12 281.73 278.26 280.05 280.32 C 279.87 279.56 279.51 278.03 279.33 277.27 C 284.68 265.05 285.93 251.55 288.12 238.52 C 288.44 238.89 289.08 239.63 289.40 240.00 C 290.03 235.56 291.87 230.64 289.53 226.40 C 289.07 225.26 288.55 224.13 288.32 222.91 C 289.78 215.19 286.62 207.78 283.26 201.03 L 283.05 202.20 C 281.37 197.93 279.62 193.68 278.18 189.32 C 280.56 189.59 282.95 189.79 285.35 189.87 C 283.15 188.05 280.29 187.77 277.57 187.43 C 276.74 186.47 275.91 185.52 275.09 184.56 C 275.00 185.37 274.81 186.99 274.72 187.81 C 272.50 188.17 270.29 188.66 268.04 188.68 C 265.98 187.19 264.35 185.21 262.40 183.59 C 262.59 185.72 262.83 187.84 263.09 189.96 C 261.83 190.26 260.58 190.57 259.33 190.87 C 256.20 187.19 253.14 183.37 251.18 178.93 C 249.27 175.22 248.53 170.72 245.08 168.01 C 244.77 166.66 244.51 165.30 244.27 163.95 C 243.77 161.06 243.42 158.16 243.10 155.26 C 240.72 155.76 241.90 158.43 241.88 160.14 C 243.21 169.08 241.62 178.12 242.15 187.07 C 242.85 183.98 243.36 180.86 243.77 177.72 C 244.37 184.57 242.74 191.28 242.06 198.05 C 243.09 198.81 244.08 199.58 245.09 200.38 C 243.56 200.50 242.03 200.67 240.52 200.90 C 240.63 195.96 242.05 191.14 241.73 186.18 C 239.36 198.22 238.28 210.48 235.51 222.46 C 235.07 222.44 234.18 222.40 233.73 222.39 C 233.27 221.25 232.53 220.53 231.52 220.23 C 231.04 221.57 231.76 223.03 232.44 224.18 L 230.69 224.30 C 229.03 226.83 229.10 230.04 228.74 232.95 C 228.23 236.91 230.12 240.57 231.01 244.33 C 227.86 242.12 225.10 239.36 223.15 236.03 C 223.23 236.49 223.39 237.40 223.47 237.86 C 220.08 236.85 216.68 235.84 213.17 235.39 C 211.89 233.99 210.64 232.57 209.42 231.12 C 211.08 233.83 211.95 236.90 211.79 240.11 C 209.03 237.30 207.67 233.58 205.81 230.19 C 199.93 218.91 195.36 206.79 194.36 194.01 C 194.71 200.59 195.56 207.13 196.05 213.70 C 195.63 214.22 194.79 215.27 194.37 215.79 C 191.58 212.29 191.20 207.49 188.02 204.26 C 185.35 190.01 183.92 175.49 184.23 160.98 C 184.87 153.21 186.66 145.57 188.53 138.01 C 190.46 130.48 193.73 123.27 198.83 117.35 C 193.36 122.67 190.31 129.82 188.29 137.05 C 185.11 148.75 183.11 160.88 183.46 173.03 C 183.28 178.19 181.10 183.01 180.62 188.13 C 179.45 201.45 177.09 214.91 179.25 228.25 C 178.51 228.34 177.04 228.52 176.31 228.61 C 174.37 224.46 172.20 220.40 171.02 215.94 C 167.62 207.73 167.00 198.75 166.42 189.98 C 166.15 196.70 167.14 203.42 168.58 209.97 C 169.83 214.68 167.86 219.42 167.80 224.16 C 167.51 228.19 167.38 232.26 166.72 236.26 C 166.97 236.69 167.22 237.11 167.47 237.55 C 167.91 246.62 168.80 256.22 174.32 263.79 C 174.60 266.61 175.99 269.07 177.81 271.18 C 177.12 272.30 176.44 273.44 175.77 274.58 C 175.14 274.55 173.89 274.50 173.26 274.48 C 172.96 274.17 172.37 273.55 172.07 273.24 C 173.52 276.89 175.19 280.50 177.78 283.50 C 177.53 285.17 177.27 286.84 177.01 288.51 C 174.92 289.13 173.08 290.35 171.17 291.37 C 168.39 293.11 164.56 291.56 162.07 293.98 C 158.39 297.04 154.60 299.97 150.34 302.18 C 149.08 302.97 147.90 303.87 146.74 304.79 C 142.84 303.35 141.82 298.90 140.38 295.47 C 137.94 287.17 138.24 278.35 138.45 269.78 C 138.66 267.10 138.60 264.41 138.64 261.73 C 139.08 259.15 139.02 256.47 137.37 254.30 C 136.64 249.54 136.30 244.72 136.57 239.91 C 136.97 233.51 136.62 227.00 135.37 220.71 C 134.55 227.43 134.17 234.56 136.43 241.05 C 136.17 243.02 136.12 245.19 134.74 246.77 C 130.43 252.53 124.62 257.23 117.97 259.98 C 117.26 259.58 115.84 258.78 115.13 258.38 C 120.50 254.71 123.11 248.50 125.16 242.57 C 126.96 236.42 128.59 230.20 129.79 223.90 C 130.63 219.64 131.44 215.36 131.43 211.00 C 131.53 202.92 132.88 194.95 134.10 186.99 C 134.58 175.82 139.41 165.53 143.29 155.23 C 147.82 143.66 154.20 132.77 162.47 123.48 C 169.48 116.78 175.95 109.32 184.34 104.26 C 189.26 101.57 194.00 97.97 199.85 97.79 C 204.07 92.13 211.55 91.40 218.00 90.49 C 222.14 89.84 226.45 91.05 230.47 89.62 C 234.65 88.26 238.95 87.36 243.29 86.68 M 240.84 100.59 C 246.17 101.58 251.71 100.70 257.03 102.01 C 264.05 102.91 270.56 105.71 277.19 108.00 C 273.12 104.06 267.27 102.98 261.99 101.56 C 255.06 100.29 247.79 98.63 240.84 100.59 M 208.32 116.39 C 204.69 123.65 202.58 131.85 203.35 140.00 C 204.51 134.36 204.89 128.53 206.92 123.10 C 208.03 119.07 210.28 115.54 212.10 111.82 C 210.59 113.12 209.18 114.57 208.32 116.39 M 298.06 115.86 C 305.90 125.05 311.10 136.09 317.54 146.20 C 314.50 137.61 309.43 130.01 304.57 122.38 C 302.85 119.83 301.06 117.02 298.06 115.86 M 279.18 146.01 C 284.99 162.50 287.63 179.84 290.48 197.03 C 291.56 203.36 289.02 209.79 290.50 216.01 C 291.76 206.67 291.56 197.24 289.80 187.98 C 286.82 173.88 285.21 159.26 279.18 146.01 M 324.26 163.90 C 324.88 182.60 327.45 201.20 327.88 219.90 C 326.27 224.83 327.50 230.02 327.16 235.07 C 326.83 239.34 326.68 243.62 326.53 247.91 C 325.61 237.62 327.15 227.04 324.44 216.95 C 323.72 225.96 325.34 234.95 324.98 243.97 C 324.61 257.00 326.41 270.47 322.12 283.06 C 321.12 286.48 319.04 289.64 319.11 293.32 C 320.06 292.46 320.89 291.47 321.32 290.25 C 323.80 284.08 326.00 277.67 326.30 270.97 C 326.69 263.27 328.17 255.67 328.33 247.96 C 330.58 221.20 326.74 194.46 325.26 167.78 C 325.07 166.45 324.66 165.17 324.26 163.90 M 144.20 217.63 C 143.52 222.07 144.18 226.55 144.04 231.02 C 143.74 244.67 144.09 258.32 143.93 271.97 C 143.82 276.92 144.22 281.90 145.35 286.74 C 146.33 290.78 147.52 295.14 150.89 297.89 C 149.60 293.90 147.51 290.19 146.73 286.04 C 144.86 278.15 145.49 270.00 145.45 261.97 C 145.54 253.29 144.98 244.61 145.30 235.94 C 145.11 229.85 146.02 223.52 144.20 217.63 M 291.17 222.23 C 289.58 225.21 294.47 222.41 291.17 222.23 M 340.74 251.07 C 340.90 264.67 337.60 278.11 332.55 290.67 C 333.76 289.78 334.77 288.65 335.29 287.22 C 337.24 282.65 338.82 277.91 339.71 273.01 C 341.31 264.37 342.63 255.52 341.59 246.73 C 340.96 248.09 340.67 249.56 340.74 251.07 M 156.59 281.26 C 157.85 284.58 159.29 288.05 162.19 290.30 C 158.94 283.41 156.08 276.35 154.41 268.88 C 153.55 273.16 155.14 277.31 156.59 281.26 Z" />
</g>
<g id="#88b166ff">
<path fill="#88b166" opacity="1.00" d=" M 240.84 100.59 C 247.79 98.63 255.06 100.29 261.99 101.56 C 267.27 102.98 273.12 104.06 277.19 108.00 C 270.56 105.71 264.05 102.91 257.03 102.01 C 251.71 100.70 246.17 101.58 240.84 100.59 Z" />
</g>
<g id="#6b8a51ff">
<path fill="#6b8a51" opacity="1.00" d=" M 208.32 116.39 C 209.18 114.57 210.59 113.12 212.10 111.82 C 210.28 115.54 208.03 119.07 206.92 123.10 C 204.89 128.53 204.51 134.36 203.35 140.00 C 202.58 131.85 204.69 123.65 208.32 116.39 Z" />
<path fill="#6b8a51" opacity="1.00" d=" M 298.06 115.86 C 301.06 117.02 302.85 119.83 304.57 122.38 C 309.43 130.01 314.50 137.61 317.54 146.20 C 311.10 136.09 305.90 125.05 298.06 115.86 Z" />
<path fill="#6b8a51" opacity="1.00" d=" M 324.26 163.90 C 324.66 165.17 325.07 166.45 325.26 167.78 C 326.74 194.46 330.58 221.20 328.33 247.96 C 328.17 255.67 326.69 263.27 326.30 270.97 C 326.00 277.67 323.80 284.08 321.32 290.25 C 320.89 291.47 320.06 292.46 319.11 293.32 C 319.04 289.64 321.12 286.48 322.12 283.06 C 326.41 270.47 324.61 257.00 324.98 243.97 C 325.34 234.95 323.72 225.96 324.44 216.95 C 327.15 227.04 325.61 237.62 326.53 247.91 C 326.68 243.62 326.83 239.34 327.16 235.07 C 327.50 230.02 326.27 224.83 327.88 219.90 C 327.45 201.20 324.88 182.60 324.26 163.90 Z" />
<path fill="#6b8a51" opacity="1.00" d=" M 156.59 281.26 C 155.14 277.31 153.55 273.16 154.41 268.88 C 156.08 276.35 158.94 283.41 162.19 290.30 C 159.29 288.05 157.85 284.58 156.59 281.26 Z" />
</g>
<g id="#251f1bff">
<path fill="#251f1b" opacity="1.00" d=" M 198.83 117.35 C 193.73 123.27 190.46 130.48 188.53 138.01 C 186.66 145.57 184.87 153.21 184.23 160.98 C 183.92 175.49 185.35 190.01 188.02 204.26 C 188.60 211.64 192.70 217.85 195.49 224.47 C 195.49 224.89 195.49 225.72 195.49 226.14 C 192.70 220.75 189.80 215.32 188.33 209.39 C 187.74 206.87 187.15 204.34 186.51 201.82 C 185.23 195.83 183.72 189.86 182.95 183.77 C 181.93 190.44 180.12 196.97 179.64 203.73 C 179.58 204.59 179.45 206.30 179.38 207.16 C 178.89 213.45 179.22 219.76 179.87 226.03 C 180.05 226.51 180.43 227.46 180.61 227.93 L 180.76 228.31 C 180.70 229.32 180.57 231.34 180.51 232.35 C 183.71 232.53 186.92 232.57 190.10 233.02 C 195.05 234.26 199.67 236.48 204.37 238.40 C 202.84 236.13 201.32 233.61 198.64 232.57 C 199.81 232.51 200.99 232.43 202.17 232.34 C 202.70 233.33 203.29 234.30 203.86 235.28 C 204.40 235.43 205.47 235.73 206.01 235.88 C 206.32 236.36 206.93 237.33 207.24 237.82 C 206.44 237.26 204.85 236.15 204.05 235.60 C 203.79 239.60 207.96 240.66 210.32 242.95 C 208.68 242.59 207.06 242.18 205.44 241.75 C 204.67 246.43 204.31 252.19 199.82 254.93 C 195.92 256.28 190.98 256.24 187.95 253.05 C 185.25 250.06 182.64 246.01 183.90 241.81 C 184.24 239.18 186.11 237.23 187.76 235.33 C 181.94 235.33 176.13 235.85 170.44 237.07 C 171.63 240.16 172.29 243.46 173.65 246.49 C 175.97 249.71 179.22 252.08 182.11 254.76 C 177.46 251.65 173.21 247.82 170.61 242.79 C 169.91 241.63 169.19 240.48 168.49 239.33 C 168.23 238.89 167.72 237.99 167.47 237.55 C 167.22 237.11 166.97 236.69 166.72 236.26 C 167.38 232.26 167.51 228.19 167.80 224.16 C 168.09 227.83 168.03 231.52 167.97 235.20 C 169.21 234.98 170.46 234.76 171.70 234.48 C 172.98 233.92 174.25 233.35 175.52 232.77 C 176.93 232.56 178.36 232.46 179.79 232.35 C 179.63 230.98 179.47 229.61 179.25 228.25 C 177.09 214.91 179.45 201.45 180.62 188.13 C 181.10 183.01 183.28 178.19 183.46 173.03 C 183.11 160.88 185.11 148.75 188.29 137.05 C 190.31 129.82 193.36 122.67 198.83 117.35 M 187.68 236.41 C 183.99 241.06 183.24 248.74 188.38 252.65 C 191.20 255.70 195.63 254.45 199.28 254.45 C 203.26 251.23 204.35 244.74 201.30 240.63 C 197.19 238.24 192.59 235.84 187.68 236.41 Z" />
<path fill="#251f1b" opacity="1.00" d=" M 241.88 160.14 C 241.90 158.43 240.72 155.76 243.10 155.26 C 243.42 158.16 243.77 161.06 244.27 163.95 C 244.77 168.53 244.23 173.15 243.77 177.72 C 243.36 180.86 242.85 183.98 242.15 187.07 C 241.62 178.12 243.21 169.08 241.88 160.14 Z" />
</g>
<g id="#747278ff">
<path fill="#747278" opacity="1.00" d=" M 334.77 127.90 C 337.89 129.21 339.09 132.54 340.41 135.38 C 342.76 141.01 344.56 146.85 346.48 152.64 C 350.51 169.17 354.31 185.76 357.09 202.55 C 357.07 208.93 359.62 215.43 357.60 221.69 C 356.75 208.30 355.31 194.88 352.09 181.83 C 349.72 172.19 348.17 162.35 345.16 152.87 C 342.55 144.24 340.34 135.21 334.77 127.90 Z" />
<path fill="#747278" opacity="1.00" d=" M 129.36 308.94 C 130.28 309.56 131.20 310.17 132.10 310.83 C 132.94 311.57 133.78 312.32 134.62 313.07 C 134.22 313.52 133.41 314.42 133.00 314.88 C 131.51 314.89 129.48 313.82 128.39 315.35 C 126.26 317.13 128.31 319.73 128.43 321.93 C 128.73 326.43 128.88 331.09 130.76 335.28 C 132.49 337.44 134.77 339.08 136.92 340.81 C 140.17 340.07 143.42 341.13 145.63 343.62 C 147.24 343.55 148.98 343.14 150.40 344.16 C 148.69 344.44 146.96 344.65 145.24 344.85 C 143.32 342.23 140.33 341.30 137.18 341.50 C 135.75 341.18 134.24 339.47 132.83 340.72 C 131.76 347.35 131.75 354.77 126.79 359.94 C 128.87 364.29 123.96 368.90 127.17 372.77 C 129.23 376.18 130.22 380.25 133.03 383.20 C 134.22 383.61 135.51 383.44 136.76 383.49 C 137.26 384.29 137.76 385.10 138.27 385.91 C 142.22 386.27 146.20 386.98 150.17 386.42 C 152.53 386.09 154.90 386.33 157.24 386.73 C 153.81 386.95 150.42 387.45 147.03 387.98 C 146.98 391.12 146.86 394.26 146.86 397.41 C 145.80 395.43 145.55 393.19 145.14 391.02 C 144.42 389.46 143.09 388.28 142.03 386.95 C 140.65 387.10 139.28 387.27 137.91 387.42 C 137.62 386.79 137.06 385.54 136.77 384.91 C 135.37 384.71 133.95 384.61 132.58 384.25 C 128.92 381.30 128.65 376.15 126.09 372.48 C 123.54 372.21 121.74 374.53 119.96 376.02 C 115.23 380.07 112.32 385.69 108.04 390.14 C 108.19 391.60 108.36 393.07 108.52 394.53 C 106.26 397.07 103.89 399.73 102.96 403.08 C 101.95 406.70 102.90 410.93 100.24 413.98 C 100.96 410.03 101.30 405.99 102.42 402.13 C 103.25 399.28 105.58 397.28 107.09 394.82 C 107.70 392.49 106.91 389.67 108.86 387.86 C 113.62 382.07 117.55 374.79 124.86 371.88 C 125.43 367.98 126.80 364.06 125.93 360.09 C 127.54 357.49 129.67 355.07 130.25 351.98 C 131.49 347.72 131.19 343.18 132.70 339.00 C 131.73 337.83 130.76 336.69 129.78 335.54 C 128.66 330.66 128.03 325.70 127.49 320.73 L 126.80 319.46 C 125.72 316.26 128.35 314.15 130.97 313.04 C 130.42 311.67 129.86 310.32 129.36 308.94 Z" />
<path fill="#747278" opacity="1.00" d=" M 306.31 443.43 C 309.53 440.14 311.27 435.64 313.77 431.79 C 314.17 432.15 314.96 432.88 315.35 433.24 C 314.63 442.75 310.49 451.52 309.38 460.97 C 309.35 462.57 310.38 463.94 310.86 465.43 L 310.84 465.55 C 310.53 467.69 310.20 469.84 309.85 471.99 C 308.35 473.41 307.91 475.80 309.81 477.12 C 309.67 478.21 309.31 479.22 308.74 480.17 C 307.18 477.13 307.61 473.82 308.89 470.78 C 310.44 467.56 308.74 464.26 308.38 461.00 C 309.03 451.96 313.46 443.73 313.98 434.66 C 310.83 438.08 309.99 443.42 305.58 445.58 L 304.72 446.17 C 303.84 449.87 302.46 453.46 299.35 455.87 C 300.22 461.33 297.51 466.36 295.53 471.26 C 293.55 478.07 293.62 485.45 290.51 491.95 C 291.03 486.25 292.54 480.71 293.35 475.06 C 294.10 468.79 298.49 463.47 298.19 456.99 C 297.86 453.98 301.55 452.87 302.13 450.15 C 302.86 447.47 303.36 444.51 306.31 443.43 Z" />
</g>
<g id="#30312aff">
<path fill="#30312a" opacity="1.00" d=" M 279.18 146.01 C 285.21 159.26 286.82 173.88 289.80 187.98 C 291.56 197.24 291.76 206.67 290.50 216.01 C 289.02 209.79 291.56 203.36 290.48 197.03 C 287.63 179.84 284.99 162.50 279.18 146.01 Z" />
<path fill="#30312a" opacity="1.00" d=" M 166.42 189.98 C 167.00 198.75 167.62 207.73 171.02 215.94 C 172.20 220.40 174.37 224.46 176.31 228.61 C 173.55 225.40 171.81 221.52 169.99 217.74 C 169.73 222.62 169.26 227.49 169.20 232.38 C 169.43 232.75 169.88 233.48 170.11 233.85 C 170.51 234.01 171.30 234.32 171.70 234.48 C 170.46 234.76 169.21 234.98 167.97 235.20 C 168.03 231.52 168.09 227.83 167.80 224.16 C 167.86 219.42 169.83 214.68 168.58 209.97 C 167.14 203.42 166.15 196.70 166.42 189.98 Z" />
<path fill="#30312a" opacity="1.00" d=" M 196.05 213.70 C 195.56 207.13 194.71 200.59 194.36 194.01 C 195.36 206.79 199.93 218.91 205.81 230.19 C 207.67 233.58 209.03 237.30 211.79 240.11 C 211.95 236.90 211.08 233.83 209.42 231.12 C 210.64 232.57 211.89 233.99 213.17 235.39 C 216.49 238.99 219.89 242.52 222.94 246.37 C 223.14 243.53 223.49 240.70 223.47 237.86 C 223.39 237.40 223.23 236.49 223.15 236.03 C 225.10 239.36 227.86 242.12 231.01 244.33 C 230.12 240.57 228.23 236.91 228.74 232.95 C 229.10 230.04 229.03 226.83 230.69 224.30 C 230.25 227.85 229.26 231.36 229.46 234.97 C 229.60 238.52 231.05 241.81 232.00 245.19 C 229.22 244.19 226.71 242.60 224.36 240.84 C 224.46 243.95 224.43 247.06 224.04 250.15 C 221.91 244.14 215.72 241.21 212.14 236.21 C 212.58 239.19 213.16 242.19 213.10 245.22 C 212.40 243.51 211.75 241.80 211.11 240.08 C 205.30 232.34 201.20 223.48 197.23 214.70 C 197.38 216.76 197.61 218.82 198.03 220.85 L 196.94 220.34 C 196.54 218.14 196.31 215.91 196.05 213.70 Z" />
<path fill="#30312a" opacity="1.00" d=" M 187.55 386.20 C 191.01 386.85 194.47 387.49 197.91 388.23 C 201.31 386.25 205.30 385.51 209.04 386.99 C 209.49 386.83 210.37 386.51 210.82 386.34 C 213.01 387.05 215.22 386.57 217.29 385.70 C 214.74 389.04 210.53 388.31 206.86 388.25 C 205.32 394.05 205.56 400.11 204.76 406.03 C 204.05 412.15 204.90 418.33 204.19 424.45 C 202.95 433.62 203.96 442.88 203.49 452.09 C 201.42 467.97 202.85 484.03 202.63 500.00 L 201.17 500.00 C 201.63 485.34 200.75 470.61 202.48 456.02 C 202.96 446.35 201.92 436.62 203.29 427.00 C 204.10 417.76 202.73 408.47 203.67 399.24 C 204.23 395.21 205.18 391.24 205.61 387.19 C 202.07 387.40 199.06 390.39 195.46 389.40 C 192.60 388.97 189.71 388.24 187.55 386.20 Z" />
</g>
<g id="#6c13f6ff">
<path fill="#6c13f6" opacity="1.00" d=" M 350.89 149.53 C 362.91 150.42 374.99 149.76 387.03 149.98 C 424.69 150.01 462.34 149.93 500.00 150.03 L 500.00 202.01 C 452.99 201.93 405.98 202.08 358.97 201.94 C 359.16 197.89 359.93 193.89 359.81 189.83 C 358.14 193.88 358.19 198.34 357.09 202.55 C 354.31 185.76 350.51 169.17 346.48 152.64 C 348.00 153.40 349.45 154.33 350.76 155.42 C 350.69 153.46 350.74 151.49 350.89 149.53 Z" />
</g>
<g id="#6e13f5ff">
<path fill="#6e13f5" opacity="1.00" d=" M 140.46 152.28 C 141.40 153.26 142.34 154.24 143.29 155.23 C 139.41 165.53 134.58 175.82 134.10 186.99 C 132.88 194.95 131.53 202.92 131.43 211.00 C 131.44 215.36 130.63 219.64 129.79 223.90 C 130.07 220.11 129.87 216.27 128.80 212.61 C 126.22 212.82 123.64 213.01 121.06 213.05 C 80.71 213.00 40.35 213.03 0.00 213.02 L 0.00 154.95 C 43.00 155.05 86.00 154.94 129.00 155.05 C 131.96 155.12 134.98 155.48 137.89 154.75 C 138.04 155.29 138.33 156.37 138.48 156.91 C 139.14 155.36 139.80 153.82 140.46 152.28 Z" />
</g>
<g id="#fce3cdff">
<path fill="#fce3cd" opacity="1.00" d=" M 244.27 163.95 C 244.51 165.30 244.77 166.66 245.08 168.01 C 247.39 176.51 251.25 184.91 257.51 191.25 L 258.15 192.26 C 253.36 193.01 249.05 195.32 244.93 197.75 C 248.65 196.23 252.14 194.20 255.94 192.85 L 256.90 194.42 L 256.23 194.80 C 252.59 196.81 248.73 198.37 245.09 200.38 C 244.08 199.58 243.09 198.81 242.06 198.05 C 242.74 191.28 244.37 184.57 243.77 177.72 C 244.23 173.15 244.77 168.53 244.27 163.95 Z" />
<path fill="#fce3cd" opacity="1.00" d=" M 177.78 283.50 C 179.02 285.01 180.07 286.66 180.96 288.40 C 179.97 288.43 178.00 288.48 177.01 288.51 C 177.27 286.84 177.53 285.17 177.78 283.50 Z" />
</g>
<g id="#99b27aff">
<path fill="#99b27a" opacity="1.00" d=" M 245.08 168.01 C 248.53 170.72 249.27 175.22 251.18 178.93 C 253.14 183.37 256.20 187.19 259.33 190.87 C 260.58 190.57 261.83 190.26 263.09 189.96 C 262.83 187.84 262.59 185.72 262.40 183.59 C 264.35 185.21 265.98 187.19 268.04 188.68 C 270.29 188.66 272.50 188.17 274.72 187.81 C 274.81 186.99 275.00 185.37 275.09 184.56 C 275.91 185.52 276.74 186.47 277.57 187.43 C 280.29 187.77 283.15 188.05 285.35 189.87 C 282.95 189.79 280.56 189.59 278.18 189.32 C 279.62 193.68 281.37 197.93 283.05 202.20 C 284.17 205.88 286.70 209.07 287.09 212.96 C 286.89 213.81 286.50 215.50 286.31 216.34 C 282.92 212.13 283.79 205.89 280.18 201.87 C 275.41 198.21 270.61 194.57 266.06 190.64 C 266.70 195.10 268.09 199.40 269.40 203.70 C 265.22 201.55 262.74 197.38 259.78 193.92 C 259.03 193.01 258.28 192.13 257.51 191.25 C 251.25 184.91 247.39 176.51 245.08 168.01 M 269.65 190.40 C 272.36 192.96 275.65 194.76 278.80 196.72 C 277.90 194.30 276.94 191.92 275.94 189.55 C 273.84 189.82 271.74 190.09 269.65 190.40 Z" />
<path fill="#99b27a" opacity="1.00" d=" M 256.81 223.68 C 260.45 223.27 264.00 222.09 267.69 222.16 C 264.26 224.77 259.84 225.07 255.86 226.34 C 256.10 225.68 256.58 224.35 256.81 223.68 Z" />
<path fill="#99b27a" opacity="1.00" d=" M 360.10 239.94 C 360.34 241.71 360.48 243.49 360.65 245.27 C 361.65 256.17 365.73 266.88 364.17 277.94 C 363.40 281.72 362.61 285.53 361.08 289.09 C 360.80 282.92 361.04 276.76 361.04 270.60 C 361.88 274.10 361.98 277.72 362.20 281.30 C 364.14 273.91 363.38 266.10 361.72 258.73 C 359.92 252.62 359.41 246.26 360.10 239.94 Z" />
<path fill="#99b27a" opacity="1.00" d=" M 396.24 410.76 C 398.99 417.05 402.11 423.34 402.70 430.30 C 400.23 425.86 398.57 421.05 397.65 416.07 C 397.21 414.28 396.76 412.51 396.24 410.76 Z" />
</g>
<g id="#fce5d0ff">
<path fill="#fce5d0" opacity="1.00" d=" M 182.95 183.77 C 183.72 189.86 185.23 195.83 186.51 201.82 C 186.42 202.62 186.23 204.21 186.13 205.00 C 183.97 204.57 181.81 204.14 179.64 203.73 C 180.12 196.97 181.93 190.44 182.95 183.77 Z" />
<path fill="#fce5d0" opacity="1.00" d=" M 283.26 201.03 C 286.62 207.78 289.78 215.19 288.32 222.91 C 287.58 219.64 287.51 216.28 287.09 212.96 C 286.70 209.07 284.17 205.88 283.05 202.20 L 283.26 201.03 Z" />
</g>
<g id="#080a08ff">
<path fill="#080a08" opacity="1.00" d=" M 235.51 222.46 C 238.28 210.48 239.36 198.22 241.73 186.18 C 242.05 191.14 240.63 195.96 240.52 200.90 C 239.14 211.91 235.95 222.64 233.59 233.48 C 233.43 231.08 233.39 228.69 233.33 226.29 C 233.66 226.39 234.33 226.59 234.66 226.68 C 234.94 225.27 235.23 223.86 235.51 222.46 Z" />
<path fill="#080a08" opacity="1.00" d=" M 257.51 191.25 C 258.28 192.13 259.03 193.01 259.78 193.92 C 254.01 196.20 248.45 198.94 242.98 201.86 C 243.51 201.49 244.56 200.75 245.09 200.38 C 248.73 198.37 252.59 196.81 256.23 194.80 L 256.90 194.42 C 258.03 194.20 258.37 193.59 257.93 192.59 L 256.89 193.20 L 256.90 194.42 L 255.94 192.85 C 252.14 194.20 248.65 196.23 244.93 197.75 C 249.05 195.32 253.36 193.01 258.15 192.26 L 257.51 191.25 Z" />
<path fill="#080a08" opacity="1.00" d=" M 287.09 212.96 C 287.51 216.28 287.58 219.64 288.32 222.91 C 288.55 224.13 289.07 225.26 289.53 226.40 C 289.65 230.50 288.64 234.48 288.12 238.52 C 285.93 251.55 284.68 265.05 279.33 277.27 C 278.30 279.59 273.48 283.91 279.11 284.12 C 279.20 283.40 279.38 281.98 279.47 281.26 C 279.61 281.03 279.91 280.55 280.05 280.32 C 281.73 278.26 283.31 276.12 284.95 274.04 C 283.55 276.92 281.74 279.60 279.40 281.81 C 279.80 282.64 280.32 283.40 280.95 284.07 C 282.94 284.63 284.97 285.21 286.62 286.54 C 289.63 288.73 293.31 289.60 296.74 290.92 C 299.23 291.80 301.75 293.21 304.49 292.50 C 307.44 293.72 308.94 290.86 310.83 289.20 C 315.64 282.37 318.69 274.40 319.91 266.14 C 320.17 267.35 320.43 268.56 320.61 269.79 C 319.10 272.65 318.42 275.83 317.30 278.85 C 314.78 284.47 310.53 289.16 308.24 294.90 C 310.82 294.09 313.37 293.16 315.93 292.28 C 319.31 285.81 318.94 278.36 320.49 271.41 C 320.57 279.00 319.19 286.59 315.86 293.45 C 316.35 293.87 317.32 294.70 317.81 295.12 C 316.58 294.46 315.38 293.67 314.02 293.33 C 312.28 293.74 310.70 294.59 309.10 295.34 C 305.71 293.33 301.65 293.31 298.08 291.77 C 293.81 290.14 289.07 289.38 285.41 286.46 C 283.37 284.64 280.47 285.72 278.01 285.63 C 275.28 280.58 269.10 283.42 264.68 283.52 C 263.83 282.69 262.97 281.86 262.12 281.04 C 261.10 281.58 260.08 282.12 259.07 282.67 C 258.35 282.06 257.64 281.46 256.93 280.86 C 254.88 281.03 252.84 281.20 250.80 281.32 C 249.49 280.50 248.32 278.59 246.57 279.34 C 241.36 280.86 235.90 281.33 230.49 281.27 C 230.06 281.20 229.19 281.06 228.76 280.99 C 235.34 280.75 241.97 280.32 248.32 278.43 C 249.11 279.20 249.91 279.98 250.71 280.77 C 253.48 280.73 256.71 279.69 258.92 281.96 C 259.99 281.50 261.06 281.04 262.12 280.58 C 265.58 285.11 271.09 280.54 275.47 282.62 C 278.14 278.29 280.76 273.82 281.85 268.79 C 285.13 255.37 287.06 241.64 288.51 227.92 C 285.27 228.80 284.23 232.41 282.75 235.02 C 280.47 239.95 276.47 243.82 271.88 246.61 C 277.59 242.58 282.59 237.00 283.99 229.97 C 279.26 229.13 274.64 227.64 269.82 227.35 C 270.78 229.06 271.90 230.71 272.69 232.52 C 272.66 234.42 272.62 236.33 272.57 238.24 C 272.09 234.45 271.58 229.81 268.11 227.55 C 262.60 227.28 257.46 229.56 252.60 231.86 C 251.84 234.70 250.77 237.82 252.17 240.66 C 254.09 244.53 258.44 247.67 262.92 246.79 C 267.36 246.42 270.50 242.68 271.75 238.66 C 271.64 239.49 271.41 241.13 271.29 241.96 C 268.64 244.36 265.93 247.22 262.16 247.62 C 258.40 248.58 255.13 245.75 252.75 243.21 C 249.98 239.76 250.42 235.08 252.49 231.42 C 250.60 233.00 248.73 234.63 247.19 236.57 C 245.62 236.55 244.05 236.53 242.49 236.50 C 246.09 232.15 250.82 228.82 255.86 226.34 C 259.84 225.07 264.26 224.77 267.69 222.16 C 268.93 221.35 270.20 220.58 271.51 219.86 C 270.03 221.42 268.42 222.85 266.85 224.32 C 271.18 225.08 275.43 223.95 279.29 222.00 C 278.43 222.90 276.72 224.72 275.86 225.62 L 279.50 225.48 C 279.29 225.09 278.87 224.30 278.65 223.91 C 279.77 223.82 281.99 223.64 283.11 223.55 C 281.76 224.34 280.42 225.16 279.11 226.01 C 281.99 227.84 285.33 228.16 288.62 227.50 C 287.82 223.78 287.39 219.99 286.31 216.34 C 286.50 215.50 286.89 213.81 287.09 212.96 Z" />
<path fill="#080a08" opacity="1.00" d=" M 220.62 387.25 C 220.86 387.28 221.34 387.35 221.58 387.38 C 219.56 403.51 218.39 419.76 218.66 436.02 C 218.89 448.04 217.62 459.99 217.60 472.00 C 216.03 481.27 216.98 490.66 216.62 500.00 L 216.21 500.00 C 216.37 494.33 216.32 488.67 216.22 483.00 C 216.11 477.96 217.37 473.02 217.30 467.99 C 217.20 460.66 217.64 453.34 217.58 446.01 C 217.59 426.41 216.41 406.54 220.62 387.25 Z" />
<path fill="#080a08" opacity="1.00" d=" M 356.85 404.34 C 346.80 416.92 339.41 431.28 332.43 445.71 C 329.97 450.31 328.44 455.37 325.65 459.81 C 322.37 465.38 320.73 471.70 319.33 477.97 C 319.81 466.80 327.06 457.85 330.96 447.80 C 338.39 432.69 345.50 416.99 356.85 404.34 Z" />
<path fill="#080a08" opacity="1.00" d=" M 99.49 441.27 C 99.66 440.99 100.00 440.44 100.17 440.17 C 100.53 442.17 100.95 444.18 101.46 446.16 C 100.34 448.34 98.89 450.40 98.19 452.78 C 98.51 455.45 101.43 456.90 102.19 459.44 C 102.78 461.65 103.23 463.90 103.80 466.11 C 105.04 470.65 103.74 475.37 104.26 479.98 C 104.34 483.46 105.63 486.72 107.14 489.81 C 105.55 493.17 106.30 496.86 108.01 500.00 L 107.53 500.00 C 104.74 495.79 105.91 490.55 104.55 485.91 C 102.13 477.67 105.48 468.70 101.60 460.79 C 100.65 457.65 96.57 455.59 97.56 451.98 C 98.56 448.87 100.46 445.90 99.54 442.50 C 99.53 442.19 99.50 441.57 99.49 441.27 Z" />
</g>
<g id="#add787ff">
<path fill="#add787" opacity="1.00" d=" M 269.65 190.40 C 271.74 190.09 273.84 189.82 275.94 189.55 C 276.94 191.92 277.90 194.30 278.80 196.72 C 275.65 194.76 272.36 192.96 269.65 190.40 Z" />
</g>
<g id="#7416f3ff">
<path fill="#7416f3" opacity="1.00" d=" M 357.09 202.55 C 358.19 198.34 358.14 193.88 359.81 189.83 C 359.93 193.89 359.16 197.89 358.97 201.94 C 405.98 202.08 452.99 201.93 500.00 202.01 L 500.00 238.04 C 456.64 237.92 413.28 238.06 369.92 237.98 C 368.76 238.15 367.01 237.79 366.54 239.22 C 366.37 241.09 366.60 242.96 366.75 244.83 C 365.60 242.83 364.31 240.86 362.34 239.59 C 362.85 240.82 363.39 242.04 363.93 243.26 C 362.84 243.93 361.74 244.59 360.65 245.27 C 360.48 243.49 360.34 241.71 360.10 239.94 C 359.23 233.86 357.81 227.85 357.60 221.69 C 359.62 215.43 357.07 208.93 357.09 202.55 Z" />
</g>
<g id="#fde2cdff">
<path fill="#fde2cd" opacity="1.00" d=" M 266.06 190.64 C 270.61 194.57 275.41 198.21 280.18 201.87 C 283.79 205.89 282.92 212.13 286.31 216.34 C 287.39 219.99 287.82 223.78 288.62 227.50 C 285.33 228.16 281.99 227.84 279.11 226.01 C 280.42 225.16 281.76 224.34 283.11 223.55 C 281.99 223.64 279.77 223.82 278.65 223.91 C 278.87 224.30 279.29 225.09 279.50 225.48 L 275.86 225.62 C 276.72 224.72 278.43 222.90 279.29 222.00 C 275.43 223.95 271.18 225.08 266.85 224.32 C 268.42 222.85 270.03 221.42 271.51 219.86 C 270.20 220.58 268.93 221.35 267.69 222.16 C 264.00 222.09 260.45 223.27 256.81 223.68 C 256.58 224.35 256.10 225.68 255.86 226.34 C 250.82 228.82 246.09 232.15 242.49 236.50 C 241.70 237.60 240.98 238.75 240.25 239.89 C 241.31 241.19 242.07 242.69 242.64 244.27 C 244.04 241.64 245.47 239.01 247.19 236.57 C 248.73 234.63 250.60 233.00 252.49 231.42 C 250.42 235.08 249.98 239.76 252.75 243.21 C 255.13 245.75 258.40 248.58 262.16 247.62 C 265.93 247.22 268.64 244.36 271.29 241.96 C 273.88 239.64 274.17 235.52 272.69 232.52 C 271.90 230.71 270.78 229.06 269.82 227.35 C 274.64 227.64 279.26 229.13 283.99 229.97 C 282.59 237.00 277.59 242.58 271.88 246.61 C 276.47 243.82 280.47 239.95 282.75 235.02 C 284.23 232.41 285.27 228.80 288.51 227.92 C 287.06 241.64 285.13 255.37 281.85 268.79 C 280.76 273.82 278.14 278.29 275.47 282.62 C 271.09 280.54 265.58 285.11 262.12 280.58 C 261.06 281.04 259.99 281.50 258.92 281.96 C 256.71 279.69 253.48 280.73 250.71 280.77 C 249.91 279.98 249.11 279.20 248.32 278.43 C 241.97 280.32 235.34 280.75 228.76 280.99 C 224.50 280.78 220.20 280.86 216.01 279.97 C 214.10 279.28 212.55 280.91 210.89 281.56 C 204.80 284.94 197.14 280.20 191.44 284.61 C 188.03 284.16 185.10 285.76 182.08 287.06 C 179.01 284.63 177.18 281.09 175.16 277.83 C 181.16 280.20 187.77 281.63 194.19 280.35 C 190.77 279.49 186.62 279.88 184.16 276.89 C 180.41 272.91 176.77 268.72 174.32 263.79 C 168.80 256.22 167.91 246.62 167.47 237.55 C 167.72 237.99 168.23 238.89 168.49 239.33 C 168.30 246.32 169.77 253.25 172.69 259.60 C 171.82 253.65 170.17 247.84 169.29 241.89 L 170.61 242.79 C 173.21 247.82 177.46 251.65 182.11 254.76 C 179.22 252.08 175.97 249.71 173.65 246.49 C 172.29 243.46 171.63 240.16 170.44 237.07 C 176.13 235.85 181.94 235.33 187.76 235.33 C 186.11 237.23 184.24 239.18 183.90 241.81 C 182.64 246.01 185.25 250.06 187.95 253.05 C 190.98 256.24 195.92 256.28 199.82 254.93 C 204.31 252.19 204.67 246.43 205.44 241.75 C 207.06 242.18 208.68 242.59 210.32 242.95 C 207.96 240.66 203.79 239.60 204.05 235.60 C 204.85 236.15 206.44 237.26 207.24 237.82 C 206.93 237.33 206.32 236.36 206.01 235.88 C 205.47 235.73 204.40 235.43 203.86 235.28 C 203.29 234.30 202.70 233.33 202.17 232.34 C 200.67 228.55 199.63 224.60 198.03 220.85 C 197.61 218.82 197.38 216.76 197.23 214.70 C 201.20 223.48 205.30 232.34 211.11 240.08 C 211.75 241.80 212.40 243.51 213.10 245.22 C 213.16 242.19 212.58 239.19 212.14 236.21 C 215.72 241.21 221.91 244.14 224.04 250.15 C 224.43 247.06 224.46 243.95 224.36 240.84 C 226.71 242.60 229.22 244.19 232.00 245.19 C 231.05 241.81 229.60 238.52 229.46 234.97 C 229.26 231.36 230.25 227.85 230.69 224.30 L 232.44 224.18 L 233.07 224.13 C 233.23 223.70 233.56 222.82 233.73 222.39 C 234.18 222.40 235.07 222.44 235.51 222.46 C 235.23 223.86 234.94 225.27 234.66 226.68 C 234.33 226.59 233.66 226.39 233.33 226.29 C 233.39 228.69 233.43 231.08 233.59 233.48 C 235.95 222.64 239.14 211.91 240.52 200.90 C 242.03 200.67 243.56 200.50 245.09 200.38 C 244.56 200.75 243.51 201.49 242.98 201.86 C 248.45 198.94 254.01 196.20 259.78 193.92 C 262.74 197.38 265.22 201.55 269.40 203.70 C 268.09 199.40 266.70 195.10 266.06 190.64 M 278.14 219.60 C 277.56 221.45 281.29 222.88 282.01 221.03 C 281.49 219.66 279.40 218.95 278.14 219.60 M 273.03 248.33 C 272.66 249.73 273.17 250.25 274.56 249.90 C 274.92 248.50 274.41 247.98 273.03 248.33 M 269.09 249.38 C 268.72 250.79 269.23 251.28 270.61 250.84 C 270.97 249.43 270.47 248.94 269.09 249.38 M 177.01 254.23 C 175.44 257.21 180.32 254.37 177.01 254.23 M 180.13 256.22 C 178.71 259.29 183.45 256.20 180.13 256.22 M 224.20 265.81 C 224.16 267.77 223.14 270.54 225.77 271.13 C 225.94 269.17 226.25 266.88 224.20 265.81 Z" />
</g>
<g id="#ecdacbff">
<path fill="#ecdacb" opacity="1.00" d=" M 256.89 193.20 L 257.93 192.59 C 258.37 193.59 258.03 194.20 256.90 194.42 L 256.89 193.20 Z" />
</g>
<g id="#dfcebaff">
<path fill="#dfceba" opacity="1.00" d=" M 186.51 201.82 C 187.15 204.34 187.74 206.87 188.33 209.39 C 185.30 208.84 182.32 208.07 179.38 207.16 C 179.45 206.30 179.58 204.59 179.64 203.73 C 181.81 204.14 183.97 204.57 186.13 205.00 C 186.23 204.21 186.42 202.62 186.51 201.82 Z" />
</g>
<g id="#c1db99ff">
<path fill="#c1db99" opacity="1.00" d=" M 188.02 204.26 C 191.20 207.49 191.58 212.29 194.37 215.79 C 194.79 215.27 195.63 214.22 196.05 213.70 C 196.31 215.91 196.54 218.14 196.94 220.34 C 197.53 223.51 198.41 226.62 199.08 229.77 C 197.79 228.07 196.55 226.33 195.49 224.47 C 192.70 217.85 188.60 211.64 188.02 204.26 Z" />
</g>
<g id="#fee4ceff">
<path fill="#fee4ce" opacity="1.00" d=" M 179.38 207.16 C 182.32 208.07 185.30 208.84 188.33 209.39 C 189.80 215.32 192.70 220.75 195.49 226.14 C 196.11 227.62 196.77 229.09 197.45 230.56 C 192.26 227.82 186.33 227.69 180.61 227.93 C 180.43 227.46 180.05 226.51 179.87 226.03 C 179.22 219.76 178.89 213.45 179.38 207.16 Z" />
<path fill="#fee4ce" opacity="1.00" d=" M 289.53 226.40 C 291.87 230.64 290.03 235.56 289.40 240.00 C 289.08 239.63 288.44 238.89 288.12 238.52 C 288.64 234.48 289.65 230.50 289.53 226.40 Z" />
</g>
<g id="#7818f3ff">
<path fill="#7818f3" opacity="1.00" d=" M 121.06 213.05 C 123.64 213.01 126.22 212.82 128.80 212.61 C 129.87 216.27 130.07 220.11 129.79 223.90 C 128.59 230.20 126.96 236.42 125.16 242.57 C 123.11 248.50 120.50 254.71 115.13 258.38 C 111.68 260.92 107.55 262.08 103.43 262.97 C 108.42 263.21 113.39 261.89 117.97 259.98 C 124.62 257.23 130.43 252.53 134.74 246.77 C 136.12 245.19 136.17 243.02 136.43 241.05 L 136.57 239.91 C 136.30 244.72 136.64 249.54 137.37 254.30 C 135.57 256.81 135.32 259.89 135.03 262.86 C 133.76 268.43 131.92 273.84 130.31 279.31 C 129.19 277.91 128.36 276.16 126.83 275.17 C 124.56 274.81 122.26 274.93 119.98 274.93 C 79.99 275.01 39.99 274.92 0.00 274.97 L 0.00 213.02 C 40.35 213.03 80.71 213.00 121.06 213.05 Z" />
</g>
<g id="#68874cff">
<path fill="#68874c" opacity="1.00" d=" M 144.20 217.63 C 146.02 223.52 145.11 229.85 145.30 235.94 C 144.98 244.61 145.54 253.29 145.45 261.97 C 145.49 270.00 144.86 278.15 146.73 286.04 C 147.51 290.19 149.60 293.90 150.89 297.89 C 147.52 295.14 146.33 290.78 145.35 286.74 C 144.22 281.90 143.82 276.92 143.93 271.97 C 144.09 258.32 143.74 244.67 144.04 231.02 C 144.18 226.55 143.52 222.07 144.20 217.63 Z" />
</g>
<g id="#fde4cfff">
<path fill="#fde4cf" opacity="1.00" d=" M 169.99 217.74 C 171.81 221.52 173.55 225.40 176.31 228.61 C 173.96 228.93 171.49 229.64 170.23 231.85 C 171.33 231.76 172.44 231.68 173.55 231.59 C 174.04 231.88 175.03 232.47 175.52 232.77 C 174.25 233.35 172.98 233.92 171.70 234.48 C 171.30 234.32 170.51 234.01 170.11 233.85 C 169.88 233.48 169.43 232.75 169.20 232.38 C 169.26 227.49 169.73 222.62 169.99 217.74 Z" />
</g>
<g id="#d7c2aeff">
<path fill="#d7c2ae" opacity="1.00" d=" M 278.14 219.60 C 279.40 218.95 281.49 219.66 282.01 221.03 C 281.29 222.88 277.56 221.45 278.14 219.60 Z" />
</g>
<g id="#709151ff">
<path fill="#709151" opacity="1.00" d=" M 231.52 220.23 C 232.53 220.53 233.27 221.25 233.73 222.39 C 233.56 222.82 233.23 223.70 233.07 224.13 L 232.44 224.18 C 231.76 223.03 231.04 221.57 231.52 220.23 Z" />
</g>
<g id="#729258ff">
<path fill="#729258" opacity="1.00" d=" M 135.37 220.71 C 136.62 227.00 136.97 233.51 136.57 239.91 L 136.43 241.05 C 134.17 234.56 134.55 227.43 135.37 220.71 Z" />
</g>
<g id="#a29882ff">
<path fill="#a29882" opacity="1.00" d=" M 196.94 220.34 L 198.03 220.85 C 199.63 224.60 200.67 228.55 202.17 232.34 C 200.99 232.43 199.81 232.51 198.64 232.57 C 194.15 231.11 189.76 228.88 184.89 229.33 C 186.35 230.90 188.01 232.36 190.10 233.02 C 186.92 232.57 183.71 232.53 180.51 232.35 C 182.13 232.22 183.75 232.08 185.37 231.92 C 183.98 230.54 182.41 229.36 180.76 228.31 L 180.61 227.93 C 186.33 227.69 192.26 227.82 197.45 230.56 C 196.77 229.09 196.11 227.62 195.49 226.14 C 195.49 225.72 195.49 224.89 195.49 224.47 C 196.55 226.33 197.79 228.07 199.08 229.77 C 198.41 226.62 197.53 223.51 196.94 220.34 Z" />
</g>
<g id="#7aa055ff">
<path fill="#7aa055" opacity="1.00" d=" M 291.17 222.23 C 294.47 222.41 289.58 225.21 291.17 222.23 Z" />
</g>
<g id="#564d46ff">
<path fill="#564d46" opacity="1.00" d=" M 348.44 225.85 C 350.84 232.44 350.32 239.85 353.66 246.13 C 356.07 250.97 358.03 256.04 359.41 261.26 C 360.06 264.35 360.46 267.49 361.04 270.60 C 361.04 276.76 360.80 282.92 361.08 289.09 C 360.22 290.89 359.15 292.59 358.16 294.33 C 360.65 296.34 363.48 297.87 366.17 299.60 C 365.68 302.37 365.08 305.15 365.50 307.99 C 366.18 312.73 364.08 317.28 364.41 322.00 C 364.42 322.39 364.44 323.18 364.45 323.58 C 363.34 325.59 362.09 327.61 362.00 329.98 C 362.42 330.29 363.26 330.91 363.68 331.22 L 363.75 332.36 C 362.98 332.11 361.45 331.63 360.68 331.38 C 359.66 332.34 358.65 333.30 357.63 334.26 C 356.55 334.56 355.48 334.92 354.43 335.32 C 353.09 339.67 351.83 344.55 347.62 347.05 C 347.52 348.47 347.44 349.90 347.36 351.33 C 346.78 351.58 345.60 352.08 345.02 352.34 C 345.36 351.82 346.04 350.79 346.38 350.27 C 345.67 346.10 350.26 344.72 351.50 341.32 C 352.47 339.22 353.03 336.96 353.68 334.75 C 355.75 334.00 358.22 333.49 359.44 331.44 C 360.74 328.89 361.65 326.10 363.64 323.95 C 363.05 319.86 364.32 315.91 365.00 311.92 C 365.76 307.92 363.89 303.75 365.73 299.91 C 362.86 298.47 360.41 296.29 357.36 295.20 C 357.10 294.69 356.56 293.67 356.30 293.16 C 353.71 293.27 350.91 293.49 348.89 291.53 C 346.92 291.62 344.93 291.58 343.07 290.87 C 340.35 293.39 336.46 292.05 333.26 293.32 C 329.01 294.88 324.51 295.53 320.08 296.35 C 323.77 294.68 327.97 294.74 331.58 292.87 C 334.17 291.50 337.12 291.40 339.99 291.32 C 342.27 289.07 344.24 286.52 345.82 283.73 C 349.18 277.98 352.57 271.81 352.59 264.97 C 352.65 254.24 351.06 243.58 349.01 233.08 C 348.54 230.70 348.45 228.26 348.44 225.85 M 352.32 246.80 C 353.86 257.14 354.31 268.21 349.71 277.90 C 347.90 282.23 344.81 285.88 343.10 290.26 C 343.82 290.56 345.26 291.18 345.99 291.49 C 346.48 291.25 347.47 290.76 347.96 290.52 C 348.64 290.77 349.34 291.01 350.04 291.25 C 351.83 293.72 355.55 292.21 358.17 292.67 C 360.42 286.27 360.36 279.31 359.48 272.67 C 357.69 268.52 358.86 263.96 357.73 259.69 L 357.74 260.36 C 356.38 255.71 355.41 250.68 352.32 246.80 Z" />
<path fill="#564d46" opacity="1.00" d=" M 240.25 239.89 C 240.98 238.75 241.70 237.60 242.49 236.50 C 244.05 236.53 245.62 236.55 247.19 236.57 C 245.47 239.01 244.04 241.64 242.64 244.27 C 242.07 242.69 241.31 241.19 240.25 239.89 Z" />
<path fill="#564d46" opacity="1.00" d=" M 172.69 259.60 C 169.77 253.25 168.30 246.32 168.49 239.33 C 169.19 240.48 169.91 241.63 170.61 242.79 L 169.29 241.89 C 170.17 247.84 171.82 253.65 172.69 259.60 Z" />
<path fill="#564d46" opacity="1.00" d=" M 177.81 271.18 C 175.99 269.07 174.60 266.61 174.32 263.79 C 176.77 268.72 180.41 272.91 184.16 276.89 C 186.62 279.88 190.77 279.49 194.19 280.35 C 187.77 281.63 181.16 280.20 175.16 277.83 C 177.18 281.09 179.01 284.63 182.08 287.06 C 185.10 285.76 188.03 284.16 191.44 284.61 C 197.14 280.20 204.80 284.94 210.89 281.56 C 212.55 280.91 214.10 279.28 216.01 279.97 C 220.20 280.86 224.50 280.78 228.76 280.99 C 229.19 281.06 230.06 281.20 230.49 281.27 C 225.29 281.75 220.06 281.43 214.92 280.60 C 212.39 281.20 210.22 282.77 207.71 283.41 C 202.29 284.09 196.39 281.97 191.53 285.24 C 186.86 284.54 183.43 288.14 179.09 289.01 C 174.08 290.08 169.86 293.38 164.61 293.58 C 159.62 295.98 155.96 300.85 150.34 302.18 C 154.60 299.97 158.39 297.04 162.07 293.98 C 164.56 291.56 168.39 293.11 171.17 291.37 C 173.08 290.35 174.92 289.13 177.01 288.51 C 178.00 288.48 179.97 288.43 180.96 288.40 C 180.07 286.66 179.02 285.01 177.78 283.50 C 175.19 280.50 173.52 276.89 172.07 273.24 C 172.37 273.55 172.96 274.17 173.26 274.48 C 176.00 278.38 181.07 278.63 185.29 279.67 C 183.02 276.65 180.20 274.11 177.81 271.18 Z" />
<path fill="#564d46" opacity="1.00" d=" M 310.86 298.58 C 313.89 299.69 317.08 299.93 319.95 298.21 C 318.95 298.98 317.99 299.83 316.89 300.46 C 314.93 300.52 313.03 299.96 311.14 299.58 C 308.86 305.08 302.46 306.09 297.74 308.62 C 292.86 310.76 289.26 314.76 285.97 318.82 C 284.10 319.95 282.28 321.16 280.50 322.43 C 279.79 326.21 277.01 328.90 274.00 331.03 C 270.85 333.09 270.58 337.10 269.07 340.23 C 267.75 342.28 265.64 343.86 264.98 346.31 C 264.11 349.41 262.82 352.36 261.58 355.32 C 259.89 360.90 258.79 366.74 255.85 371.86 C 254.36 374.16 254.25 376.89 254.50 379.54 L 254.14 378.59 C 252.82 376.35 253.86 373.86 255.03 371.82 C 257.48 367.55 258.79 362.77 260.13 358.07 C 260.44 353.99 263.05 350.66 263.92 346.73 C 264.44 344.00 266.49 342.09 268.10 339.98 C 269.89 337.11 269.87 333.10 272.77 330.96 C 275.71 328.61 279.15 326.20 279.64 322.14 C 283.04 319.70 286.55 317.33 289.12 313.97 C 293.52 308.55 300.57 306.89 306.46 303.69 C 308.63 302.72 309.63 300.46 310.86 298.58 Z" />
<path fill="#564d46" opacity="1.00" d=" M 317.68 425.23 C 321.85 420.47 326.13 415.31 332.34 413.23 C 332.19 413.43 331.88 413.82 331.72 414.01 C 326.80 416.80 322.83 420.87 319.10 425.06 C 317.21 427.42 315.45 430.12 315.35 433.24 C 314.96 432.88 314.17 432.15 313.77 431.79 C 315.04 429.58 316.28 427.36 317.68 425.23 Z" />
</g>
<g id="#e6d3baff">
<path fill="#e6d3ba" opacity="1.00" d=" M 176.31 228.61 C 177.04 228.52 178.51 228.34 179.25 228.25 C 179.47 229.61 179.63 230.98 179.79 232.35 C 178.36 232.46 176.93 232.56 175.52 232.77 C 175.03 232.47 174.04 231.88 173.55 231.59 C 172.44 231.68 171.33 231.76 170.23 231.85 C 171.49 229.64 173.96 228.93 176.31 228.61 M 177.39 229.39 C 177.98 229.96 177.98 229.96 177.39 229.39 Z" />
</g>
<g id="#d145eaff">
<path fill="#d145ea" opacity="1.00" d=" M 252.60 231.86 C 257.46 229.56 262.60 227.28 268.11 227.55 C 271.58 229.81 272.09 234.45 272.57 238.24 C 272.62 236.33 272.66 234.42 272.69 232.52 C 274.17 235.52 273.88 239.64 271.29 241.96 C 271.41 241.13 271.64 239.49 271.75 238.66 C 270.50 242.68 267.36 246.42 262.92 246.79 C 258.44 247.67 254.09 244.53 252.17 240.66 C 250.77 237.82 251.84 234.70 252.60 231.86 Z" />
</g>
<g id="#4c4731ff">
<path fill="#4c4731" opacity="1.00" d=" M 177.39 229.39 C 177.98 229.96 177.98 229.96 177.39 229.39 Z" />
</g>
<g id="#e6d5c5ff">
<path fill="#e6d5c5" opacity="1.00" d=" M 180.76 228.31 C 182.41 229.36 183.98 230.54 185.37 231.92 C 183.75 232.08 182.13 232.22 180.51 232.35 C 180.57 231.34 180.70 229.32 180.76 228.31 Z" />
</g>
<g id="#fbe9cdff">
<path fill="#fbe9cd" opacity="1.00" d=" M 184.89 229.33 C 189.76 228.88 194.15 231.11 198.64 232.57 C 201.32 233.61 202.84 236.13 204.37 238.40 C 199.67 236.48 195.05 234.26 190.10 233.02 C 188.01 232.36 186.35 230.90 184.89 229.33 Z" />
<path fill="#fbe9cd" opacity="1.00" d=" M 279.11 284.12 C 273.48 283.91 278.30 279.59 279.33 277.27 C 279.51 278.03 279.87 279.56 280.05 280.32 C 279.91 280.55 279.61 281.03 279.47 281.26 C 279.38 281.98 279.20 283.40 279.11 284.12 Z" />
</g>
<g id="#bedc95ff">
<path fill="#bedc95" opacity="1.00" d=" M 213.17 235.39 C 216.68 235.84 220.08 236.85 223.47 237.86 C 223.49 240.70 223.14 243.53 222.94 246.37 C 219.89 242.52 216.49 238.99 213.17 235.39 Z" />
</g>
<g id="#d145e9ff">
<path fill="#d145e9" opacity="1.00" d=" M 187.68 236.41 C 192.59 235.84 197.19 238.24 201.30 240.63 C 204.35 244.74 203.26 251.23 199.28 254.45 C 195.63 254.45 191.20 255.70 188.38 252.65 C 183.24 248.74 183.99 241.06 187.68 236.41 Z" />
</g>
<g id="#7a19f2ff">
<path fill="#7a19f2" opacity="1.00" d=" M 366.54 239.22 C 367.01 237.79 368.76 238.15 369.92 237.98 C 413.28 238.06 456.64 237.92 500.00 238.04 L 500.00 274.99 C 456.16 274.91 412.31 275.21 368.47 274.82 C 368.06 272.42 367.41 270.06 366.29 267.89 C 366.63 271.86 366.68 275.86 365.78 279.77 C 365.24 279.16 364.70 278.55 364.17 277.94 C 365.73 266.88 361.65 256.17 360.65 245.27 C 361.74 244.59 362.84 243.93 363.93 243.26 C 363.39 242.04 362.85 240.82 362.34 239.59 C 364.31 240.86 365.60 242.83 366.75 244.83 C 366.60 242.96 366.37 241.09 366.54 239.22 Z" />
</g>
<g id="#87af64ff">
<path fill="#87af64" opacity="1.00" d=" M 340.74 251.07 C 340.67 249.56 340.96 248.09 341.59 246.73 C 342.63 255.52 341.31 264.37 339.71 273.01 C 338.82 277.91 337.24 282.65 335.29 287.22 C 334.77 288.65 333.76 289.78 332.55 290.67 C 337.60 278.11 340.90 264.67 340.74 251.07 Z" />
</g>
<g id="#7d1bf2ff">
<path fill="#7d1bf2" opacity="1.00" d=" M 352.32 246.80 C 355.41 250.68 356.38 255.71 357.74 260.36 C 357.73 264.25 358.15 268.12 358.36 272.00 C 358.15 277.34 356.22 282.46 353.98 287.27 C 353.22 289.05 351.63 290.24 350.04 291.25 C 349.34 291.01 348.64 290.77 347.96 290.52 C 347.47 290.76 346.48 291.25 345.99 291.49 C 345.26 291.18 343.82 290.56 343.10 290.26 C 344.81 285.88 347.90 282.23 349.71 277.90 C 354.31 268.21 353.86 257.14 352.32 246.80 Z" />
</g>
<g id="#cbb69fff">
<path fill="#cbb69f" opacity="1.00" d=" M 273.03 248.33 C 274.41 247.98 274.92 248.50 274.56 249.90 C 273.17 250.25 272.66 249.73 273.03 248.33 Z" />
</g>
<g id="#d8c0aaff">
<path fill="#d8c0aa" opacity="1.00" d=" M 269.09 249.38 C 270.47 248.94 270.97 249.43 270.61 250.84 C 269.23 251.28 268.72 250.79 269.09 249.38 Z" />
</g>
<g id="#d3baa4ff">
<path fill="#d3baa4" opacity="1.00" d=" M 177.01 254.23 C 180.32 254.37 175.44 257.21 177.01 254.23 Z" />
</g>
<g id="#afdb89ff">
<path fill="#afdb89" opacity="1.00" d=" M 137.37 254.30 C 139.02 256.47 139.08 259.15 138.64 261.73 C 137.24 264.97 136.82 268.47 136.94 271.97 C 137.28 275.81 134.78 278.94 133.28 282.25 C 131.33 286.11 130.63 290.42 129.13 294.45 C 128.73 283.55 135.14 273.75 135.03 262.86 C 135.32 259.89 135.57 256.81 137.37 254.30 Z" />
</g>
<g id="#cbb49dff">
<path fill="#cbb49d" opacity="1.00" d=" M 180.13 256.22 C 183.45 256.20 178.71 259.29 180.13 256.22 Z" />
</g>
<g id="#7f9c64ff">
<path fill="#7f9c64" opacity="1.00" d=" M 103.43 262.97 C 107.55 262.08 111.68 260.92 115.13 258.38 C 115.84 258.78 117.26 259.58 117.97 259.98 C 113.39 261.89 108.42 263.21 103.43 262.97 Z" />
<path fill="#7f9c64" opacity="1.00" d=" M 138.64 261.73 C 138.60 264.41 138.66 267.10 138.45 269.78 C 137.73 273.87 137.29 278.01 137.48 282.17 C 137.38 281.08 137.18 278.91 137.07 277.82 C 132.65 284.12 131.07 292.24 133.63 299.60 C 132.79 298.24 131.92 296.88 131.07 295.54 C 131.24 300.63 129.95 306.00 132.10 310.83 C 131.20 310.17 130.28 309.56 129.36 308.94 C 125.59 299.37 127.41 288.84 130.31 279.31 C 131.92 273.84 133.76 268.43 135.03 262.86 C 135.14 273.75 128.73 283.55 129.13 294.45 C 130.63 290.42 131.33 286.11 133.28 282.25 C 134.78 278.94 137.28 275.81 136.94 271.97 C 136.82 268.47 137.24 264.97 138.64 261.73 Z" />
<path fill="#7f9c64" opacity="1.00" d=" M 363.68 331.22 C 364.07 331.49 364.84 332.04 365.22 332.31 C 365.07 332.99 364.76 334.35 364.61 335.03 C 367.32 340.57 371.77 346.55 369.67 353.02 C 369.83 356.92 371.81 360.32 372.85 363.98 C 372.09 367.27 370.52 370.32 369.46 373.52 C 369.59 370.12 370.96 367.07 372.31 364.02 C 370.84 360.45 368.95 357.01 368.56 353.10 C 369.77 349.50 368.63 345.73 367.47 342.29 C 365.63 339.23 363.37 336.14 363.75 332.36 L 363.68 331.22 Z" />
</g>
<g id="#bbe199ff">
<path fill="#bbe199" opacity="1.00" d=" M 359.41 261.26 C 360.18 260.41 360.94 259.57 361.72 258.73 C 363.38 266.10 364.14 273.91 362.20 281.30 C 361.98 277.72 361.88 274.10 361.04 270.60 C 360.46 267.49 360.06 264.35 359.41 261.26 Z" />
<path fill="#bbe199" opacity="1.00" d=" M 357.74 260.36 L 357.73 259.69 C 358.86 263.96 357.69 268.52 359.48 272.67 C 360.36 279.31 360.42 286.27 358.17 292.67 C 355.55 292.21 351.83 293.72 350.04 291.25 C 351.63 290.24 353.22 289.05 353.98 287.27 C 356.22 282.46 358.15 277.34 358.36 272.00 C 358.15 268.12 357.73 264.25 357.74 260.36 Z" />
</g>
<g id="#d3bda7ff">
<path fill="#d3bda7" opacity="1.00" d=" M 224.20 265.81 C 226.25 266.88 225.94 269.17 225.77 271.13 C 223.14 270.54 224.16 267.77 224.20 265.81 Z" />
</g>
<g id="#801cf0ff">
<path fill="#801cf0" opacity="1.00" d=" M 366.29 267.89 C 367.41 270.06 368.06 272.42 368.47 274.82 C 412.31 275.21 456.16 274.91 500.00 274.99 L 500.00 320.05 C 470.32 320.02 440.65 320.00 410.97 319.99 C 396.84 320.24 382.70 319.61 368.59 320.22 C 368.12 321.27 367.61 322.29 367.08 323.31 C 366.05 323.60 365.28 322.30 364.41 322.00 C 364.08 317.28 366.18 312.73 365.50 307.99 C 365.08 305.15 365.68 302.37 366.17 299.60 C 363.48 297.87 360.65 296.34 358.16 294.33 C 359.15 292.59 360.22 290.89 361.08 289.09 C 362.61 285.53 363.40 281.72 364.17 277.94 C 364.70 278.55 365.24 279.16 365.78 279.77 C 366.68 275.86 366.63 271.86 366.29 267.89 Z" />
<path fill="#801cf0" opacity="1.00" d=" M 0.00 274.97 C 39.99 274.92 79.99 275.01 119.98 274.93 C 122.26 274.93 124.56 274.81 126.83 275.17 C 128.36 276.16 129.19 277.91 130.31 279.31 C 127.41 288.84 125.59 299.37 129.36 308.94 C 129.86 310.32 130.42 311.67 130.97 313.04 C 128.35 314.15 125.72 316.26 126.80 319.46 C 126.64 322.38 127.69 325.88 125.68 328.37 C 125.77 325.78 125.84 323.18 125.49 320.61 C 124.74 321.60 123.99 322.61 123.25 323.61 C 123.03 322.82 122.82 322.03 122.60 321.24 C 121.84 322.55 121.09 323.88 120.31 325.19 C 120.72 322.47 121.26 319.79 121.87 317.12 C 120.88 318.05 119.89 318.99 118.90 319.93 C 79.27 320.06 39.63 320.00 0.00 319.98 L 0.00 274.97 Z" />
</g>
<g id="#767d8dff">
<path fill="#767d8d" opacity="1.00" d=" M 137.48 282.17 C 137.29 278.01 137.73 273.87 138.45 269.78 C 138.24 278.35 137.94 287.17 140.38 295.47 C 141.82 298.90 142.84 303.35 146.74 304.79 C 147.90 303.87 149.08 302.97 150.34 302.18 C 148.25 305.58 144.15 306.60 140.84 308.39 C 141.95 307.46 143.02 306.50 144.10 305.54 C 139.40 298.66 137.89 290.34 137.48 282.17 Z" />
<path fill="#767d8d" opacity="1.00" d=" M 332.34 413.23 C 332.75 412.83 333.56 412.02 333.97 411.62 C 334.90 413.62 335.23 415.79 335.36 417.98 C 333.63 418.08 331.91 418.17 330.19 418.33 C 330.71 416.89 331.21 415.45 331.72 414.01 C 331.88 413.82 332.19 413.43 332.34 413.23 Z" />
<path fill="#767d8d" opacity="1.00" d=" M 245.26 419.99 C 244.92 421.51 245.46 422.83 246.65 423.85 C 246.32 424.68 245.97 425.51 245.63 426.35 C 245.33 424.90 245.04 423.45 244.76 422.00 C 244.91 421.32 245.07 420.65 245.26 419.99 Z" />
</g>
<g id="#7f1eeeff">
<path fill="#7f1eee" opacity="1.00" d=" M 317.30 278.85 C 318.42 275.83 319.10 272.65 320.61 269.79 C 320.58 270.20 320.52 271.01 320.49 271.41 C 318.94 278.36 319.31 285.81 315.93 292.28 C 313.37 293.16 310.82 294.09 308.24 294.90 C 310.53 289.16 314.78 284.47 317.30 278.85 Z" />
</g>
<g id="#bce08eff">
<path fill="#bce08e" opacity="1.00" d=" M 175.77 274.58 C 176.44 273.44 177.12 272.30 177.81 271.18 C 180.20 274.11 183.02 276.65 185.29 279.67 C 181.07 278.63 176.00 278.38 173.26 274.48 C 173.89 274.50 175.14 274.55 175.77 274.58 Z" />
</g>
<g id="#801cf2ff">
<path fill="#801cf2" opacity="1.00" d=" M 133.63 299.60 C 131.07 292.24 132.65 284.12 137.07 277.82 C 137.18 278.91 137.38 281.08 137.48 282.17 C 137.89 290.34 139.40 298.66 144.10 305.54 C 143.02 306.50 141.95 307.46 140.84 308.39 L 140.38 308.70 C 138.17 305.64 135.54 302.88 133.63 299.60 Z" />
</g>
<g id="#ffefd5ff">
<path fill="#ffefd5" opacity="1.00" d=" M 246.57 279.34 C 248.32 278.59 249.49 280.50 250.80 281.32 C 252.84 281.20 254.88 281.03 256.93 280.86 C 257.64 281.46 258.35 282.06 259.07 282.67 C 260.08 282.12 261.10 281.58 262.12 281.04 C 262.97 281.86 263.83 282.69 264.68 283.52 C 269.10 283.42 275.28 280.58 278.01 285.63 C 280.47 285.72 283.37 284.64 285.41 286.46 C 289.07 289.38 293.81 290.14 298.08 291.77 C 301.65 293.31 305.71 293.33 309.10 295.34 C 310.70 294.59 312.28 293.74 314.02 293.33 C 315.38 293.67 316.58 294.46 317.81 295.12 C 318.37 295.43 319.51 296.04 320.08 296.35 C 324.51 295.53 329.01 294.88 333.26 293.32 C 336.46 292.05 340.35 293.39 343.07 290.87 C 344.93 291.58 346.92 291.62 348.89 291.53 C 350.91 293.49 353.71 293.27 356.30 293.16 C 356.56 293.67 357.10 294.69 357.36 295.20 C 360.41 296.29 362.86 298.47 365.73 299.91 C 363.89 303.75 365.76 307.92 365.00 311.92 C 364.32 315.91 363.05 319.86 363.64 323.95 C 361.65 326.10 360.74 328.89 359.44 331.44 C 358.22 333.49 355.75 334.00 353.68 334.75 C 353.03 336.96 352.47 339.22 351.50 341.32 C 350.26 344.72 345.67 346.10 346.38 350.27 C 346.04 350.79 345.36 351.82 345.02 352.34 C 345.60 352.08 346.78 351.58 347.36 351.33 C 347.44 349.90 347.52 348.47 347.62 347.05 C 351.83 344.55 353.09 339.67 354.43 335.32 C 355.48 334.92 356.55 334.56 357.63 334.26 C 358.65 333.30 359.66 332.34 360.68 331.38 C 361.45 331.63 362.98 332.11 363.75 332.36 C 363.37 336.14 365.63 339.23 367.47 342.29 C 368.63 345.73 369.77 349.50 368.56 353.10 C 368.95 357.01 370.84 360.45 372.31 364.02 C 370.96 367.07 369.59 370.12 369.46 373.52 C 368.35 375.51 367.07 377.41 366.01 379.43 C 360.32 384.25 354.56 389.02 348.73 393.68 C 342.93 398.68 339.07 405.38 334.32 411.28 C 334.23 411.36 334.06 411.54 333.97 411.62 C 333.56 412.02 332.75 412.83 332.34 413.23 C 326.13 415.31 321.85 420.47 317.68 425.23 C 315.20 424.95 312.74 424.68 310.27 424.39 C 307.09 430.23 306.98 436.98 306.31 443.43 C 303.36 444.51 302.86 447.47 302.13 450.15 C 301.55 452.87 297.86 453.98 298.19 456.99 C 298.49 463.47 294.10 468.79 293.35 475.06 C 292.54 480.71 291.03 486.25 290.51 491.95 C 293.62 485.45 293.55 478.07 295.53 471.26 C 297.51 466.36 300.22 461.33 299.35 455.87 C 302.46 453.46 303.84 449.87 304.72 446.17 L 305.58 445.58 C 306.12 454.75 304.33 463.84 304.29 473.00 C 304.26 482.00 303.98 491.00 303.94 500.00 L 242.19 500.00 C 243.41 485.51 245.93 471.18 248.77 456.93 C 250.20 451.68 247.85 446.59 246.64 441.57 C 246.37 438.26 246.84 434.43 243.99 432.06 C 244.23 430.60 244.14 429.14 243.74 427.73 C 244.01 425.80 244.36 423.89 244.76 422.00 C 245.04 423.45 245.33 424.90 245.63 426.35 C 245.97 425.51 246.32 424.68 246.65 423.85 C 245.46 422.83 244.92 421.51 245.26 419.99 C 246.08 417.73 246.17 415.33 246.05 412.95 C 245.77 407.08 249.45 401.87 249.17 396.00 C 249.32 392.94 248.80 389.46 250.85 386.89 C 252.25 384.53 255.41 382.68 254.50 379.54 C 254.25 376.89 254.36 374.16 255.85 371.86 C 258.79 366.74 259.89 360.90 261.58 355.32 C 262.82 352.36 264.11 349.41 264.98 346.31 C 265.64 343.86 267.75 342.28 269.07 340.23 C 270.58 337.10 270.85 333.09 274.00 331.03 C 277.01 328.90 279.79 326.21 280.50 322.43 C 282.28 321.16 284.10 319.95 285.97 318.82 C 289.26 314.76 292.86 310.76 297.74 308.62 C 302.46 306.09 308.86 305.08 311.14 299.58 C 313.03 299.96 314.93 300.52 316.89 300.46 C 317.99 299.83 318.95 298.98 319.95 298.21 C 317.08 299.93 313.89 299.69 310.86 298.58 C 309.63 300.46 308.63 302.72 306.46 303.69 C 300.57 306.89 293.52 308.55 289.12 313.97 C 286.55 317.33 283.04 319.70 279.64 322.14 C 279.15 326.20 275.71 328.61 272.77 330.96 C 269.87 333.10 269.89 337.11 268.10 339.98 C 266.49 342.09 264.44 344.00 263.92 346.73 C 263.05 350.66 260.44 353.99 260.13 358.07 C 258.79 362.77 257.48 367.55 255.03 371.82 C 253.86 373.86 252.82 376.35 254.14 378.59 C 249.54 379.45 244.92 380.50 240.22 380.48 C 238.48 381.66 236.81 382.97 234.93 383.92 C 230.66 385.52 225.88 383.39 221.66 385.17 C 221.23 385.00 220.37 384.67 219.94 384.51 C 219.05 384.90 218.17 385.30 217.29 385.70 C 215.22 386.57 213.01 387.05 210.82 386.34 C 210.37 386.51 209.49 386.83 209.04 386.99 C 205.30 385.51 201.31 386.25 197.91 388.23 C 194.47 387.49 191.01 386.85 187.55 386.20 C 183.63 386.03 179.44 384.87 175.72 386.66 C 174.07 386.86 172.41 386.76 170.79 386.41 L 170.02 386.27 C 168.60 385.88 167.21 385.44 165.81 385.01 C 163.15 386.38 160.25 387.34 157.24 386.73 C 154.90 386.33 152.53 386.09 150.17 386.42 C 146.20 386.98 142.22 386.27 138.27 385.91 C 137.76 385.10 137.26 384.29 136.76 383.49 C 135.51 383.44 134.22 383.61 133.03 383.20 C 130.22 380.25 129.23 376.18 127.17 372.77 C 123.96 368.90 128.87 364.29 126.79 359.94 C 131.75 354.77 131.76 347.35 132.83 340.72 C 134.24 339.47 135.75 341.18 137.18 341.50 C 140.33 341.30 143.32 342.23 145.24 344.85 C 146.96 344.65 148.69 344.44 150.40 344.16 C 148.98 343.14 147.24 343.55 145.63 343.62 C 143.42 341.13 140.17 340.07 136.92 340.81 C 134.77 339.08 132.49 337.44 130.76 335.28 C 128.88 331.09 128.73 326.43 128.43 321.93 C 128.31 319.73 126.26 317.13 128.39 315.35 C 129.48 313.82 131.51 314.89 133.00 314.88 C 133.41 314.42 134.22 313.52 134.62 313.07 C 136.35 311.38 138.35 310.01 140.38 308.70 L 140.84 308.39 C 144.15 306.60 148.25 305.58 150.34 302.18 C 155.96 300.85 159.62 295.98 164.61 293.58 C 169.86 293.38 174.08 290.08 179.09 289.01 C 183.43 288.14 186.86 284.54 191.53 285.24 C 196.39 281.97 202.29 284.09 207.71 283.41 C 210.22 282.77 212.39 281.20 214.92 280.60 C 220.06 281.43 225.29 281.75 230.49 281.27 C 235.90 281.33 241.36 280.86 246.57 279.34 Z" />
</g>
<g id="#b2dd8aff">
<path fill="#b2dd8a" opacity="1.00" d=" M 131.07 295.54 C 131.92 296.88 132.79 298.24 133.63 299.60 C 135.54 302.88 138.17 305.64 140.38 308.70 C 138.35 310.01 136.35 311.38 134.62 313.07 C 133.78 312.32 132.94 311.57 132.10 310.83 C 129.95 306.00 131.24 300.63 131.07 295.54 Z" />
</g>
<g id="#8720eeff">
<path fill="#8720ee" opacity="1.00" d=" M 118.90 319.93 C 119.89 318.99 120.88 318.05 121.87 317.12 C 121.26 319.79 120.72 322.47 120.31 325.19 C 121.09 323.88 121.84 322.55 122.60 321.24 C 122.82 322.03 123.03 322.82 123.25 323.61 C 123.99 322.61 124.74 321.60 125.49 320.61 C 125.84 323.18 125.77 325.78 125.68 328.37 C 127.69 325.88 126.64 322.38 126.80 319.46 L 127.49 320.73 C 128.03 325.70 128.66 330.66 129.78 335.54 C 130.76 336.69 131.73 337.83 132.70 339.00 C 131.19 343.18 131.49 347.72 130.25 351.98 C 129.67 355.07 127.54 357.49 125.93 360.09 C 123.99 362.73 123.32 365.99 121.89 368.90 C 121.11 367.98 120.33 367.07 119.55 366.16 C 79.71 365.82 39.85 366.07 0.00 366.04 L 0.00 319.98 C 39.63 320.00 79.27 320.06 118.90 319.93 Z" />
</g>
<g id="#8820eeff">
<path fill="#8820ee" opacity="1.00" d=" M 368.59 320.22 C 382.70 319.61 396.84 320.24 410.97 319.99 C 440.65 320.00 470.32 320.02 500.00 320.05 L 500.00 372.93 C 469.66 373.13 439.32 372.88 408.99 373.00 C 397.33 372.74 385.64 373.58 374.02 372.54 C 374.55 373.59 375.10 374.65 375.64 375.72 C 375.18 375.89 374.26 376.23 373.80 376.40 C 372.14 375.79 370.74 374.71 369.46 373.52 C 370.52 370.32 372.09 367.27 372.85 363.98 C 371.81 360.32 369.83 356.92 369.67 353.02 C 371.77 346.55 367.32 340.57 364.61 335.03 C 364.76 334.35 365.07 332.99 365.22 332.31 C 364.84 332.04 364.07 331.49 363.68 331.22 C 363.26 330.91 362.42 330.29 362.00 329.98 C 362.09 327.61 363.34 325.59 364.45 323.58 C 364.44 323.18 364.42 322.39 364.41 322.00 C 365.28 322.30 366.05 323.60 367.08 323.31 C 367.61 322.29 368.12 321.27 368.59 320.22 Z" />
</g>
<g id="#8f24edff">
<path fill="#8f24ed" opacity="1.00" d=" M 121.89 368.90 C 123.32 365.99 123.99 362.73 125.93 360.09 C 126.80 364.06 125.43 367.98 124.86 371.88 C 117.55 374.79 113.62 382.07 108.86 387.86 C 106.91 389.67 107.70 392.49 107.09 394.82 C 105.58 397.28 103.25 399.28 102.42 402.13 C 101.30 405.99 100.96 410.03 100.24 413.98 C 98.46 417.30 100.09 421.26 98.66 424.69 C 97.96 426.58 97.35 428.53 97.40 430.58 C 97.04 432.72 96.53 434.84 95.98 436.95 C 63.99 437.05 31.99 437.00 0.00 436.97 L 0.00 366.04 C 39.85 366.07 79.71 365.82 119.55 366.16 C 120.33 367.07 121.11 367.98 121.89 368.90 Z" />
</g>
<g id="#9024edff">
<path fill="#9024ed" opacity="1.00" d=" M 374.02 372.54 C 385.64 373.58 397.33 372.74 408.99 373.00 C 439.32 372.88 469.66 373.13 500.00 372.93 L 500.00 437.01 C 469.36 437.14 438.71 436.74 408.08 437.18 C 408.09 437.82 408.12 439.10 408.13 439.74 C 410.50 439.92 412.86 440.14 415.21 440.51 C 412.52 442.13 409.23 440.82 406.32 440.92 C 405.24 437.33 403.97 433.81 402.70 430.30 C 402.11 423.34 398.99 417.05 396.24 410.76 C 394.57 406.47 393.37 401.99 391.36 397.84 C 389.63 394.65 387.55 391.64 386.24 388.23 C 384.97 383.02 381.59 377.73 375.77 377.17 C 375.14 377.03 373.88 376.76 373.25 376.62 L 373.80 376.40 C 374.26 376.23 375.18 375.89 375.64 375.72 C 375.10 374.65 374.55 373.59 374.02 372.54 Z" />
</g>
<g id="#fff0d6ff">
<path fill="#fff0d6" opacity="1.00" d=" M 119.96 376.02 C 121.74 374.53 123.54 372.21 126.09 372.48 C 128.65 376.15 128.92 381.30 132.58 384.25 C 133.95 384.61 135.37 384.71 136.77 384.91 C 137.06 385.54 137.62 386.79 137.91 387.42 C 139.28 387.27 140.65 387.10 142.03 386.95 C 143.09 388.28 144.42 389.46 145.14 391.02 C 145.55 393.19 145.80 395.43 146.86 397.41 C 148.37 400.94 150.08 404.42 151.13 408.12 C 152.00 412.81 153.14 417.46 155.06 421.84 C 156.59 425.05 156.48 428.65 156.64 432.12 C 157.03 432.44 157.79 433.08 158.17 433.40 C 158.18 439.35 159.42 445.19 160.22 451.06 C 162.70 467.31 164.45 483.66 166.17 500.00 L 114.95 500.00 C 115.15 493.91 115.80 487.86 116.70 481.85 C 117.12 479.39 116.74 476.92 116.35 474.50 C 116.22 469.99 117.27 465.16 115.34 460.91 C 116.42 455.44 116.01 449.79 115.53 444.28 C 115.60 441.79 112.66 441.86 110.88 441.67 C 107.75 441.88 105.14 440.12 102.71 438.41 C 102.00 438.76 100.58 439.46 99.87 439.82 C 98.81 436.33 98.30 432.68 98.39 429.04 C 98.60 426.56 100.53 424.53 100.55 422.01 C 100.56 419.33 100.34 416.65 100.24 413.98 C 102.90 410.93 101.95 406.70 102.96 403.08 C 103.89 399.73 106.26 397.07 108.52 394.53 C 108.36 393.07 108.19 391.60 108.04 390.14 C 112.32 385.69 115.23 380.07 119.96 376.02 Z" />
</g>
<g id="#515874ff">
<path fill="#515874" opacity="1.00" d=" M 366.01 379.43 C 367.07 377.41 368.35 375.51 369.46 373.52 C 370.74 374.71 372.14 375.79 373.80 376.40 L 373.25 376.62 C 375.59 380.62 380.10 382.82 382.34 386.98 C 375.27 391.36 368.72 397.44 365.78 405.38 C 371.59 399.71 375.56 392.04 383.14 388.30 C 389.52 396.67 392.53 406.99 396.15 416.73 C 396.52 416.56 397.27 416.23 397.65 416.07 C 398.57 421.05 400.23 425.86 402.70 430.30 C 403.97 433.81 405.24 437.33 406.32 440.92 C 407.77 446.37 409.69 451.71 410.88 457.24 C 409.73 459.73 410.51 462.45 410.95 465.00 C 412.00 469.86 411.93 474.94 413.76 479.63 C 413.92 477.69 414.06 475.75 414.09 473.82 C 415.67 482.53 416.80 491.31 418.49 500.00 L 402.18 500.00 C 399.76 495.76 397.90 491.06 394.27 487.65 C 395.78 491.99 398.02 496.03 400.33 500.00 L 314.30 500.00 C 314.07 494.64 312.62 489.39 312.83 484.01 C 312.90 477.23 314.77 470.04 311.25 463.75 C 313.35 451.72 316.29 439.83 320.57 428.39 C 321.96 423.73 324.95 419.01 330.19 418.33 C 331.91 418.17 333.63 418.08 335.36 417.98 C 335.23 415.79 334.90 413.62 333.97 411.62 C 334.06 411.54 334.23 411.36 334.32 411.28 C 334.86 411.29 335.93 411.32 336.47 411.34 C 338.93 408.46 341.36 405.49 344.58 403.41 C 347.49 401.65 346.24 397.01 349.29 395.42 C 353.11 393.37 356.23 390.38 359.28 387.36 C 361.73 384.87 365.81 383.44 366.01 379.43 M 356.85 404.34 C 345.50 416.99 338.39 432.69 330.96 447.80 C 327.06 457.85 319.81 466.80 319.33 477.97 C 320.73 471.70 322.37 465.38 325.65 459.81 C 328.44 455.37 329.97 450.31 332.43 445.71 C 339.41 431.28 346.80 416.92 356.85 404.34 Z" />
<path fill="#515874" opacity="1.00" d=" M 240.22 380.48 C 244.92 380.50 249.54 379.45 254.14 378.59 L 254.50 379.54 C 255.41 382.68 252.25 384.53 250.85 386.89 C 248.80 389.46 249.32 392.94 249.17 396.00 C 249.45 401.87 245.77 407.08 246.05 412.95 C 246.17 415.33 246.08 417.73 245.26 419.99 C 245.07 420.65 244.91 421.32 244.76 422.00 C 244.36 423.89 244.01 425.80 243.74 427.73 C 244.14 429.14 244.23 430.60 243.99 432.06 C 242.52 437.03 242.28 442.35 243.46 447.40 C 243.64 451.16 241.36 455.48 244.20 458.67 C 243.36 458.13 242.53 457.60 241.69 457.09 C 241.59 463.14 240.83 469.15 240.61 475.19 C 241.42 474.09 242.27 473.01 243.14 471.97 C 243.50 471.62 244.21 470.93 244.56 470.58 C 243.65 472.37 242.65 474.10 241.65 475.84 C 241.63 478.56 241.64 481.31 241.18 484.00 C 240.12 489.28 240.92 494.73 239.67 500.00 L 216.62 500.00 C 216.98 490.66 216.03 481.27 217.60 472.00 C 217.62 459.99 218.89 448.04 218.66 436.02 C 218.39 419.76 219.56 403.51 221.58 387.38 C 221.34 387.35 220.86 387.28 220.62 387.25 C 216.41 406.54 217.59 426.41 217.58 446.01 C 217.64 453.34 217.20 460.66 217.30 467.99 C 217.37 473.02 216.11 477.96 216.22 483.00 C 216.32 488.67 216.37 494.33 216.21 500.00 L 202.63 500.00 C 202.85 484.03 201.42 467.97 203.49 452.09 C 203.96 442.88 202.95 433.62 204.19 424.45 C 204.90 418.33 204.05 412.15 204.76 406.03 C 205.56 400.11 205.32 394.05 206.86 388.25 C 210.53 388.31 214.74 389.04 217.29 385.70 C 218.17 385.30 219.05 384.90 219.94 384.51 C 220.37 384.67 221.23 385.00 221.66 385.17 C 225.88 383.39 230.66 385.52 234.93 383.92 C 236.81 382.97 238.48 381.66 240.22 380.48 Z" />
<path fill="#515874" opacity="1.00" d=" M 157.24 386.73 C 160.25 387.34 163.15 386.38 165.81 385.01 C 167.21 385.44 168.60 385.88 170.02 386.27 C 169.17 386.72 168.32 387.18 167.49 387.67 C 170.83 388.33 174.83 389.86 177.62 387.00 L 175.72 386.66 C 179.44 384.87 183.63 386.03 187.55 386.20 C 189.71 388.24 192.60 388.97 195.46 389.40 C 199.06 390.39 202.07 387.40 205.61 387.19 C 205.18 391.24 204.23 395.21 203.67 399.24 C 202.73 408.47 204.10 417.76 203.29 427.00 C 201.92 436.62 202.96 446.35 202.48 456.02 C 200.75 470.61 201.63 485.34 201.17 500.00 L 198.45 500.00 C 198.06 497.56 198.08 494.57 195.64 493.18 C 193.49 491.41 190.44 491.67 188.53 493.63 C 190.49 493.97 192.52 494.05 194.42 494.70 C 195.91 496.10 196.36 498.24 197.33 500.00 L 184.73 500.00 C 185.83 497.15 186.96 494.30 188.18 491.50 C 184.39 492.62 183.62 496.55 183.60 500.00 L 172.13 500.00 C 171.47 494.80 171.61 489.52 170.65 484.35 C 169.94 480.28 170.86 476.17 170.62 472.09 C 170.26 468.89 168.84 465.95 167.66 463.00 C 167.41 463.25 166.90 463.74 166.65 463.98 C 165.24 458.02 164.48 451.92 162.77 446.05 C 163.04 442.13 160.83 438.75 160.07 435.01 C 159.60 434.61 158.65 433.80 158.17 433.40 C 157.79 433.08 157.03 432.44 156.64 432.12 C 156.48 428.65 156.59 425.05 155.06 421.84 C 153.14 417.46 152.00 412.81 151.13 408.12 C 150.08 404.42 148.37 400.94 146.86 397.41 C 146.86 394.26 146.98 391.12 147.03 387.98 C 150.42 387.45 153.81 386.95 157.24 386.73 M 184.24 420.99 C 183.18 424.92 185.07 429.81 189.03 431.27 C 194.85 432.66 201.78 425.48 197.97 419.95 C 196.40 417.95 192.85 414.78 190.63 417.53 C 192.85 418.33 195.62 418.96 196.51 421.47 C 198.77 425.65 193.66 430.53 189.44 429.64 C 187.01 428.38 185.61 425.68 185.98 422.96 C 185.65 419.89 188.42 418.07 190.04 415.89 C 187.00 415.40 184.88 418.39 184.24 420.99 M 165.20 452.34 C 164.68 453.88 165.16 455.95 166.36 457.08 C 168.09 456.48 166.87 452.29 165.20 452.34 Z" />
<path fill="#515874" opacity="1.00" d=" M 91.19 455.05 C 94.95 451.54 95.95 446.15 99.54 442.50 C 100.46 445.90 98.56 448.87 97.56 451.98 C 96.57 455.59 100.65 457.65 101.60 460.79 C 105.48 468.70 102.13 477.67 104.55 485.91 C 105.91 490.55 104.74 495.79 107.53 500.00 L 91.99 500.00 C 92.96 488.94 94.89 477.97 95.77 466.91 C 91.35 477.34 91.81 488.97 90.06 500.00 L 74.46 500.00 C 76.12 495.02 79.14 490.65 80.72 485.64 C 81.77 482.49 83.04 479.41 83.93 476.21 C 83.75 475.81 83.39 475.01 83.21 474.61 L 82.56 473.20 C 85.16 467.25 87.87 461.33 91.01 455.65 L 91.18 455.10 L 91.19 455.05 Z" />
</g>
<g id="#3a3e54ff">
<path fill="#3a3e54" opacity="1.00" d=" M 382.34 386.98 C 380.10 382.82 375.59 380.62 373.25 376.62 C 373.88 376.76 375.14 377.03 375.77 377.17 C 379.71 380.41 382.96 384.36 386.24 388.23 C 387.55 391.64 389.63 394.65 391.36 397.84 C 393.37 401.99 394.57 406.47 396.24 410.76 C 396.76 412.51 397.21 414.28 397.65 416.07 C 397.27 416.23 396.52 416.56 396.15 416.73 C 392.53 406.99 389.52 396.67 383.14 388.30 C 375.56 392.04 371.59 399.71 365.78 405.38 C 368.72 397.44 375.27 391.36 382.34 386.98 Z" />
</g>
<g id="#5e5981ff">
<path fill="#5e5981" opacity="1.00" d=" M 375.77 377.17 C 381.59 377.73 384.97 383.02 386.24 388.23 C 382.96 384.36 379.71 380.41 375.77 377.17 Z" />
</g>
<g id="#41465aff">
<path fill="#41465a" opacity="1.00" d=" M 348.73 393.68 C 354.56 389.02 360.32 384.25 366.01 379.43 C 365.81 383.44 361.73 384.87 359.28 387.36 C 356.23 390.38 353.11 393.37 349.29 395.42 C 346.24 397.01 347.49 401.65 344.58 403.41 C 341.36 405.49 338.93 408.46 336.47 411.34 C 335.93 411.32 334.86 411.29 334.32 411.28 C 339.07 405.38 342.93 398.68 348.73 393.68 Z" />
</g>
<g id="#444858ff">
<path fill="#444858" opacity="1.00" d=" M 170.02 386.27 L 170.79 386.41 C 172.41 386.76 174.07 386.86 175.72 386.66 L 177.62 387.00 C 174.83 389.86 170.83 388.33 167.49 387.67 C 168.32 387.18 169.17 386.72 170.02 386.27 Z" />
</g>
<g id="#555d76ff">
<path fill="#555d76" opacity="1.00" d=" M 98.66 424.69 C 100.09 421.26 98.46 417.30 100.24 413.98 C 100.34 416.65 100.56 419.33 100.55 422.01 C 100.53 424.53 98.60 426.56 98.39 429.04 C 98.30 432.68 98.81 436.33 99.87 439.82 C 100.58 439.46 102.00 438.76 102.71 438.41 C 105.14 440.12 107.75 441.88 110.88 441.67 C 112.59 448.02 112.67 454.88 115.34 460.91 C 117.27 465.16 116.22 469.99 116.35 474.50 C 114.87 483.01 113.60 491.55 111.82 500.00 L 108.01 500.00 C 106.30 496.86 105.55 493.17 107.14 489.81 C 105.63 486.72 104.34 483.46 104.26 479.98 C 103.74 475.37 105.04 470.65 103.80 466.11 C 103.23 463.90 102.78 461.65 102.19 459.44 C 101.43 456.90 98.51 455.45 98.19 452.78 C 98.89 450.40 100.34 448.34 101.46 446.16 C 100.95 444.18 100.53 442.17 100.17 440.17 C 100.00 440.44 99.66 440.99 99.49 441.27 C 99.42 440.63 99.28 439.37 99.21 438.74 C 98.63 439.35 97.49 440.57 96.92 441.18 C 98.35 437.80 97.91 434.10 97.40 430.58 C 97.35 428.53 97.96 426.58 98.66 424.69 Z" />
</g>
<g id="#feffffff">
<path fill="#feffff" opacity="1.00" d=" M 319.10 425.06 C 322.83 420.87 326.80 416.80 331.72 414.01 C 331.21 415.45 330.71 416.89 330.19 418.33 C 324.95 419.01 321.96 423.73 320.57 428.39 C 316.29 439.83 313.35 451.72 311.25 463.75 L 310.86 465.43 C 310.38 463.94 309.35 462.57 309.38 460.97 C 310.49 451.52 314.63 442.75 315.35 433.24 C 315.45 430.12 317.21 427.42 319.10 425.06 Z" />
</g>
<g id="#353b4fff">
<path fill="#353b4f" opacity="1.00" d=" M 184.24 420.99 C 184.88 418.39 187.00 415.40 190.04 415.89 C 188.42 418.07 185.65 419.89 185.98 422.96 C 185.61 425.68 187.01 428.38 189.44 429.64 C 193.66 430.53 198.77 425.65 196.51 421.47 C 195.62 418.96 192.85 418.33 190.63 417.53 C 192.85 414.78 196.40 417.95 197.97 419.95 C 201.78 425.48 194.85 432.66 189.03 431.27 C 185.07 429.81 183.18 424.92 184.24 420.99 Z" />
</g>
<g id="#fefeffff">
<path fill="#fefeff" opacity="1.00" d=" M 310.27 424.39 C 312.74 424.68 315.20 424.95 317.68 425.23 C 316.28 427.36 315.04 429.58 313.77 431.79 C 311.27 435.64 309.53 440.14 306.31 443.43 C 306.98 436.98 307.09 430.23 310.27 424.39 Z" />
<path fill="#fefeff" opacity="1.00" d=" M 305.58 445.58 C 309.99 443.42 310.83 438.08 313.98 434.66 C 313.46 443.73 309.03 451.96 308.38 461.00 C 308.74 464.26 310.44 467.56 308.89 470.78 C 307.61 473.82 307.18 477.13 308.74 480.17 C 309.36 486.77 308.09 493.44 309.27 500.00 L 303.94 500.00 C 303.98 491.00 304.26 482.00 304.29 473.00 C 304.33 463.84 306.12 454.75 305.58 445.58 Z" />
<path fill="#fefeff" opacity="1.00" d=" M 116.35 474.50 C 116.74 476.92 117.12 479.39 116.70 481.85 C 115.80 487.86 115.15 493.91 114.95 500.00 L 111.82 500.00 C 113.60 491.55 114.87 483.01 116.35 474.50 Z" />
</g>
<g id="#9727ebff">
<path fill="#9727eb" opacity="1.00" d=" M 97.40 430.58 C 97.91 434.10 98.35 437.80 96.92 441.18 C 94.61 445.61 91.68 449.94 91.19 455.05 L 91.18 455.10 L 91.01 455.65 C 87.87 461.33 85.16 467.25 82.56 473.20 C 78.65 482.03 74.63 490.83 71.54 500.00 L 0.00 500.00 L 0.00 436.97 C 31.99 437.00 63.99 437.05 95.98 436.95 C 96.53 434.84 97.04 432.72 97.40 430.58 Z" />
<path fill="#9727eb" opacity="1.00" d=" M 408.08 437.18 C 438.71 436.74 469.36 437.14 500.00 437.01 L 500.00 500.00 L 418.49 500.00 C 416.80 491.31 415.67 482.53 414.09 473.82 C 413.19 468.26 412.17 462.72 410.88 457.24 C 409.69 451.71 407.77 446.37 406.32 440.92 C 409.23 440.82 412.52 442.13 415.21 440.51 C 412.86 440.14 410.50 439.92 408.13 439.74 C 408.12 439.10 408.09 437.82 408.08 437.18 Z" />
</g>
<g id="#dce0e3ff">
<path fill="#dce0e3" opacity="1.00" d=" M 243.46 447.40 C 242.28 442.35 242.52 437.03 243.99 432.06 C 246.84 434.43 246.37 438.26 246.64 441.57 C 245.63 443.54 244.50 445.44 243.46 447.40 Z" />
</g>
<g id="#fffefdff">
<path fill="#fffefd" opacity="1.00" d=" M 158.17 433.40 C 158.65 433.80 159.60 434.61 160.07 435.01 C 160.83 438.75 163.04 442.13 162.77 446.05 C 164.48 451.92 165.24 458.02 166.65 463.98 C 166.77 464.67 167.02 466.06 167.14 466.75 C 167.12 477.84 167.39 488.94 168.29 500.00 L 166.17 500.00 C 164.45 483.66 162.70 467.31 160.22 451.06 C 159.42 445.19 158.18 439.35 158.17 433.40 Z" />
</g>
<g id="#ced0d4ff">
<path fill="#ced0d4" opacity="1.00" d=" M 96.92 441.18 C 97.49 440.57 98.63 439.35 99.21 438.74 C 99.28 439.37 99.42 440.63 99.49 441.27 C 99.50 441.57 99.53 442.19 99.54 442.50 C 95.95 446.15 94.95 451.54 91.19 455.05 C 91.68 449.94 94.61 445.61 96.92 441.18 Z" />
</g>
<g id="#fffffcff">
<path fill="#fffffc" opacity="1.00" d=" M 110.88 441.67 C 112.66 441.86 115.60 441.79 115.53 444.28 C 116.01 449.79 116.42 455.44 115.34 460.91 C 112.67 454.88 112.59 448.02 110.88 441.67 Z" />
</g>
<g id="#fefefeff">
<path fill="#fefefe" opacity="1.00" d=" M 246.64 441.57 C 247.85 446.59 250.20 451.68 248.77 456.93 C 245.93 471.18 243.41 485.51 242.19 500.00 L 239.67 500.00 C 240.92 494.73 240.12 489.28 241.18 484.00 C 241.64 481.31 241.63 478.56 241.65 475.84 C 242.65 474.10 243.65 472.37 244.56 470.58 C 245.78 466.87 246.06 462.21 244.20 458.67 C 241.36 455.48 243.64 451.16 243.46 447.40 C 244.50 445.44 245.63 443.54 246.64 441.57 Z" />
</g>
<g id="#c4c6cbff">
<path fill="#c4c6cb" opacity="1.00" d=" M 165.20 452.34 C 166.87 452.29 168.09 456.48 166.36 457.08 C 165.16 455.95 164.68 453.88 165.20 452.34 Z" />
</g>
<g id="#f8f6f7ff">
<path fill="#f8f6f7" opacity="1.00" d=" M 241.69 457.09 C 242.53 457.60 243.36 458.13 244.20 458.67 C 246.06 462.21 245.78 466.87 244.56 470.58 C 244.21 470.93 243.50 471.62 243.14 471.97 C 242.27 473.01 241.42 474.09 240.61 475.19 C 240.83 469.15 241.59 463.14 241.69 457.09 Z" />
</g>
<g id="#3f3e52ff">
<path fill="#3f3e52" opacity="1.00" d=" M 410.95 465.00 C 410.51 462.45 409.73 459.73 410.88 457.24 C 412.17 462.72 413.19 468.26 414.09 473.82 C 414.06 475.75 413.92 477.69 413.76 479.63 C 411.93 474.94 412.00 469.86 410.95 465.00 Z" />
</g>
<g id="#363b4fff">
<path fill="#363b4f" opacity="1.00" d=" M 166.65 463.98 C 166.90 463.74 167.41 463.25 167.66 463.00 C 168.84 465.95 170.26 468.89 170.62 472.09 C 170.86 476.17 169.94 480.28 170.65 484.35 C 171.61 489.52 171.47 494.80 172.13 500.00 L 170.91 500.00 C 169.26 495.50 169.95 490.63 169.08 486.00 C 167.57 479.63 170.19 472.83 167.14 466.75 C 167.02 466.06 166.77 464.67 166.65 463.98 Z" />
</g>
<g id="#5f687eff">
<path fill="#5f687e" opacity="1.00" d=" M 310.86 465.43 L 311.25 463.75 C 314.77 470.04 312.90 477.23 312.83 484.01 C 312.62 489.39 314.07 494.64 314.30 500.00 L 311.93 500.00 C 311.41 495.77 310.19 491.60 310.42 487.31 C 310.42 484.82 311.31 481.73 308.74 480.17 C 309.31 479.22 309.67 478.21 309.81 477.12 C 310.17 475.42 309.99 473.69 309.85 471.99 C 310.20 469.84 310.53 467.69 310.84 465.55 L 310.86 465.43 Z" />
</g>
<g id="#393f52ff">
<path fill="#393f52" opacity="1.00" d=" M 90.06 500.00 C 91.81 488.97 91.35 477.34 95.77 466.91 C 94.89 477.97 92.96 488.94 91.99 500.00 L 90.06 500.00 Z" />
</g>
<g id="#525c77ff">
<path fill="#525c77" opacity="1.00" d=" M 167.14 466.75 C 170.19 472.83 167.57 479.63 169.08 486.00 C 169.95 490.63 169.26 495.50 170.91 500.00 L 168.29 500.00 C 167.39 488.94 167.12 477.84 167.14 466.75 Z" />
</g>
<g id="#c0c2cfff">
<path fill="#c0c2cf" opacity="1.00" d=" M 309.81 477.12 C 307.91 475.80 308.35 473.41 309.85 471.99 C 309.99 473.69 310.17 475.42 309.81 477.12 Z" />
</g>
<g id="#403c52ff">
<path fill="#403c52" opacity="1.00" d=" M 71.54 500.00 C 74.63 490.83 78.65 482.03 82.56 473.20 L 83.21 474.61 C 80.05 483.17 76.13 491.44 72.95 500.00 L 71.54 500.00 Z" />
</g>
<g id="#61687cff">
<path fill="#61687c" opacity="1.00" d=" M 83.21 474.61 C 83.39 475.01 83.75 475.81 83.93 476.21 C 83.04 479.41 81.77 482.49 80.72 485.64 C 79.14 490.65 76.12 495.02 74.46 500.00 L 72.95 500.00 C 76.13 491.44 80.05 483.17 83.21 474.61 Z" />
</g>
<g id="#3d3f58ff">
<path fill="#3d3f58" opacity="1.00" d=" M 308.74 480.17 C 311.31 481.73 310.42 484.82 310.42 487.31 C 310.19 491.60 311.41 495.77 311.93 500.00 L 309.27 500.00 C 308.09 493.44 309.36 486.77 308.74 480.17 Z" />
</g>
<g id="#40455eff">
<path fill="#40455e" opacity="1.00" d=" M 394.27 487.65 C 397.90 491.06 399.76 495.76 402.18 500.00 L 400.33 500.00 C 398.02 496.03 395.78 491.99 394.27 487.65 Z" />
</g>
<g id="#383e51ff">
<path fill="#383e51" opacity="1.00" d=" M 183.60 500.00 C 183.62 496.55 184.39 492.62 188.18 491.50 C 186.96 494.30 185.83 497.15 184.73 500.00 L 183.60 500.00 Z" />
</g>
<g id="#363b51ff">
<path fill="#363b51" opacity="1.00" d=" M 188.53 493.63 C 190.44 491.67 193.49 491.41 195.64 493.18 C 198.08 494.57 198.06 497.56 198.45 500.00 L 197.33 500.00 C 196.36 498.24 195.91 496.10 194.42 494.70 C 192.52 494.05 190.49 493.97 188.53 493.63 Z" />
</g>
</svg>
