<svg width="201" height="44" viewBox="0 0 201 44" fill="none" xmlns="http://www.w3.org/2000/svg">
<path d="M200.933 43.3347H0.344238V0.351318H200.933V43.3347Z" stroke="#E5E7EB"/>
<path d="M88.7545 30.699C88.7545 30.699 88.7545 30.3957 88.7545 29.7892V27.6872V25.5852V24.6754H89.6643H91.7663H93.8682H94.7781C94.7781 24.6754 94.7781 24.9787 94.7781 25.5852V27.6872V29.7892V30.699C94.7781 30.699 94.4748 30.699 93.8682 30.699H91.7663H89.6643H88.7545ZM92.5192 30.699C92.5192 30.699 92.5192 30.3957 92.5192 29.7892V27.6872V25.5852V24.6754H93.429H95.531H97.633H98.5428C98.5428 24.6754 98.5428 24.9787 98.5428 25.5852V27.6872V29.7892V30.699C98.5428 30.699 98.2395 30.699 97.633 30.699H95.531H93.429H92.5192ZM107.578 30.699C107.578 30.699 107.578 30.3957 107.578 29.7892V27.6872V25.5852V24.6754H108.488H110.59H112.692H113.602C113.602 24.6754 113.602 24.9787 113.602 25.5852V27.6872V29.7892V30.699C113.602 30.699 113.298 30.699 112.692 30.699H110.59H108.488H107.578ZM111.343 30.699C111.343 30.699 111.343 30.3957 111.343 29.7892V27.6872V25.5852V24.6754H112.253H114.355H116.456H117.366C117.366 24.6754 117.366 24.9787 117.366 25.5852V27.6872V29.7892V30.699C117.366 30.699 117.063 30.699 116.456 30.699H114.355H112.253H111.343ZM84.9898 28.8166C84.9898 28.8166 84.9898 28.5133 84.9898 27.9068V25.8049V23.7029V22.7931H85.8996H88.0016H90.1035H91.0133C91.0133 22.7931 91.0133 23.0964 91.0133 23.7029V25.8049V27.9068V28.8166C91.0133 28.8166 90.7101 28.8166 90.1035 28.8166H88.0016H85.8996H84.9898ZM96.2839 28.8166C96.2839 28.8166 96.2839 28.5133 96.2839 27.9068V25.8049V23.7029V22.7931H97.1937H99.2957H101.398H102.307C102.307 22.7931 102.307 23.0964 102.307 23.7029V25.8049V27.9068V28.8166C102.307 28.8166 102.004 28.8166 101.398 28.8166H99.2957H97.1937H96.2839ZM103.813 28.8166C103.813 28.8166 103.813 28.5133 103.813 27.9068V25.8049V23.7029V22.7931H104.723H106.825H108.927H109.837C109.837 22.7931 109.837 23.0964 109.837 23.7029V25.8049V27.9068V28.8166C109.837 28.8166 109.534 28.8166 108.927 28.8166H106.825H104.723H103.813ZM115.107 28.8166C115.107 28.8166 115.107 28.5133 115.107 27.9068V25.8049V23.7029V22.7931H116.017H118.119H120.221H121.131C121.131 22.7931 121.131 23.0964 121.131 23.7029V25.8049V27.9068V28.8166C121.131 28.8166 120.828 28.8166 120.221 28.8166H118.119H116.017H115.107ZM84.9898 25.0519C84.9898 25.0519 84.9898 24.7486 84.9898 24.1421V22.0401V19.9382V19.0284H85.8996H88.0016H90.1035H91.0133C91.0133 19.0284 91.0133 19.3316 91.0133 19.9382V22.0401V24.1421V25.0519C91.0133 25.0519 90.7101 25.0519 90.1035 25.0519H88.0016H85.8996H84.9898ZM100.049 25.0519C100.049 25.0519 100.049 24.7486 100.049 24.1421V22.0401V19.9382V19.0284H100.958H103.06H105.162H106.072C106.072 19.0284 106.072 19.3316 106.072 19.9382V22.0401V24.1421V25.0519C106.072 25.0519 105.769 25.0519 105.162 25.0519H103.06H100.958H100.049ZM115.107 25.0519C115.107 25.0519 115.107 24.7486 115.107 24.1421V22.0401V19.9382V19.0284H116.017H118.119H120.221H121.131C121.131 19.0284 121.131 19.3316 121.131 19.9382V22.0401V24.1421V25.0519C121.131 25.0519 120.828 25.0519 120.221 25.0519H118.119H116.017H115.107ZM84.9898 21.2872C84.9898 21.2872 84.9898 20.9839 84.9898 20.3774V18.2754V16.1735V15.2637H85.8996H88.0016H90.1035H91.0133C91.0133 15.2637 91.0133 15.5669 91.0133 16.1735V18.2754V20.3774V21.2872C91.0133 21.2872 90.7101 21.2872 90.1035 21.2872H88.0016H85.8996H84.9898ZM96.2839 21.2872C96.2839 21.2872 96.2839 20.9839 96.2839 20.3774V18.2754V16.1735V15.2637H97.1937H99.2957H101.398H102.307C102.307 15.2637 102.307 15.5669 102.307 16.1735V18.2754V20.3774V21.2872C102.307 21.2872 102.004 21.2872 101.398 21.2872H99.2957H97.1937H96.2839ZM103.813 21.2872C103.813 21.2872 103.813 20.9839 103.813 20.3774V18.2754V16.1735V15.2637H104.723H106.825H108.927H109.837C109.837 15.2637 109.837 15.5669 109.837 16.1735V18.2754V20.3774V21.2872C109.837 21.2872 109.534 21.2872 108.927 21.2872H106.825H104.723H103.813ZM115.107 21.2872C115.107 21.2872 115.107 20.9839 115.107 20.3774V18.2754V16.1735V15.2637H116.017H118.119H120.221H121.131C121.131 15.2637 121.131 15.5669 121.131 16.1735V18.2754V20.3774V21.2872C121.131 21.2872 120.828 21.2872 120.221 21.2872H118.119H116.017H115.107ZM88.7545 19.4049C88.7545 19.4049 88.7545 19.1016 88.7545 18.495V16.3931V14.2911V13.3813H89.6643H91.7663H93.8682H94.7781C94.7781 13.3813 94.7781 13.6846 94.7781 14.2911V16.3931V18.495V19.4049C94.7781 19.4049 94.4748 19.4049 93.8682 19.4049H91.7663H89.6643H88.7545ZM92.5192 19.4049C92.5192 19.4049 92.5192 19.1016 92.5192 18.495V16.3931V14.2911V13.3813H93.429H95.531H97.633H98.5428C98.5428 13.3813 98.5428 13.6846 98.5428 14.2911V16.3931V18.495V19.4049C98.5428 19.4049 98.2395 19.4049 97.633 19.4049H95.531H93.429H92.5192ZM107.578 19.4049C107.578 19.4049 107.578 19.1016 107.578 18.495V16.3931V14.2911V13.3813H108.488H110.59H112.692H113.602C113.602 13.3813 113.602 13.6846 113.602 14.2911V16.3931V18.495V19.4049C113.602 19.4049 113.298 19.4049 112.692 19.4049H110.59H108.488H107.578ZM111.343 19.4049C111.343 19.4049 111.343 19.1016 111.343 18.495V16.3931V14.2911V13.3813H112.253H114.355H116.456H117.366C117.366 13.3813 117.366 13.6846 117.366 14.2911V16.3931V18.495V19.4049C117.366 19.4049 117.063 19.4049 116.456 19.4049H114.355H112.253H111.343Z" fill="#A78BFA"/>
</svg>
