<svg width="22" height="18" viewBox="0 0 22 18" fill="none" xmlns="http://www.w3.org/2000/svg">
<path d="M4.83195 0.236328C5.52742 0.236328 6.19441 0.512605 6.68619 1.00438C7.17797 1.49616 7.45424 2.16315 7.45424 2.85862C7.45424 3.5541 7.17797 4.22109 6.68619 4.71287C6.19441 5.20464 5.52742 5.48092 4.83195 5.48092C4.13647 5.48092 3.46948 5.20464 2.9777 4.71287C2.48593 4.22109 2.20965 3.5541 2.20965 2.85862C2.20965 2.16315 2.48593 1.49616 2.9777 1.00438C3.46948 0.512605 4.13647 0.236328 4.83195 0.236328ZM16.8945 0.236328C17.59 0.236328 18.257 0.512605 18.7487 1.00438C19.2405 1.49616 19.5168 2.16315 19.5168 2.85862C19.5168 3.5541 19.2405 4.22109 18.7487 4.71287C18.257 5.20464 17.59 5.48092 16.8945 5.48092C16.199 5.48092 15.532 5.20464 15.0403 4.71287C14.5485 4.22109 14.2722 3.5541 14.2722 2.85862C14.2722 2.16315 14.5485 1.49616 15.0403 1.00438C15.532 0.512605 16.199 0.236328 16.8945 0.236328ZM0.111816 10.0273C0.111816 8.09666 1.67864 6.52984 3.6093 6.52984H5.00895C5.53013 6.52984 6.02509 6.64456 6.47088 6.84779C6.42827 7.0838 6.4086 7.32964 6.4086 7.57875C6.4086 8.8309 6.95928 9.95521 7.82792 10.7255C7.82136 10.7255 7.81481 10.7255 7.80497 10.7255H0.810002C0.426492 10.7255 0.111816 10.4108 0.111816 10.0273ZM13.397 10.7255C13.3905 10.7255 13.3839 10.7255 13.3741 10.7255C14.246 9.95521 14.7934 8.8309 14.7934 7.57875C14.7934 7.32964 14.7704 7.08707 14.7311 6.84779C15.1769 6.64128 15.6719 6.52984 16.193 6.52984H17.5927C19.5234 6.52984 21.0902 8.09666 21.0902 10.0273C21.0902 10.4141 20.7755 10.7255 20.392 10.7255H13.397ZM7.45424 7.57875C7.45424 6.74418 7.78577 5.94379 8.3759 5.35366C8.96603 4.76353 9.76642 4.432 10.601 4.432C11.4356 4.432 12.236 4.76353 12.8261 5.35366C13.4162 5.94379 13.7477 6.74418 13.7477 7.57875C13.7477 8.41332 13.4162 9.21371 12.8261 9.80384C12.236 10.394 11.4356 10.7255 10.601 10.7255C9.76642 10.7255 8.96603 10.394 8.3759 9.80384C7.78577 9.21371 7.45424 8.41332 7.45424 7.57875ZM4.30749 16.1438C4.30749 13.7313 6.26438 11.7744 8.67689 11.7744H12.5251C14.9376 11.7744 16.8945 13.7313 16.8945 16.1438C16.8945 16.6257 16.5044 17.019 16.0193 17.019H5.18268C4.70083 17.019 4.30749 16.6289 4.30749 16.1438Z" fill="#C084FC"/>
</svg>
