<svg width="201" height="44" viewBox="0 0 201 44" fill="none" xmlns="http://www.w3.org/2000/svg">
<path d="M200.833 43.3846H0.243652V0.401245H200.833V43.3846Z" stroke="#E5E7EB"/>
<path d="M75.8518 33.7868C75.8518 33.7868 75.8518 33.5832 75.8518 33.1758V31.7641V30.3524V29.7414H76.4628H77.8746H79.2863H79.8973C79.8973 29.7414 79.8973 29.945 79.8973 30.3524V31.7641V33.1758V33.7868C79.8973 33.7868 79.6936 33.7868 79.2863 33.7868H77.8746H76.4628H75.8518ZM78.3802 33.7868C78.3802 33.7868 78.3802 33.5832 78.3802 33.1758V31.7641V30.3524V29.7414H78.9913H80.403H81.8147H82.4257C82.4257 29.7414 82.4257 29.945 82.4257 30.3524V31.7641V33.1758V33.7868C82.4257 33.7868 82.2221 33.7868 81.8147 33.7868H80.403H78.9913H78.3802ZM80.9087 33.7868C80.9087 33.7868 80.9087 33.5832 80.9087 33.1758V31.7641V30.3524V29.7414H81.5197H82.9314H84.3431H84.9542C84.9542 29.7414 84.9542 29.945 84.9542 30.3524V31.7641V33.1758V33.7868C84.9542 33.7868 84.7505 33.7868 84.3431 33.7868H82.9314H81.5197H80.9087ZM73.3234 31.2584C73.3234 31.2584 73.3234 31.0547 73.3234 30.6474V29.2357V27.824V27.2129H73.9344H75.3461H76.7578H77.3689C77.3689 27.2129 77.3689 27.4166 77.3689 27.824V29.2357V30.6474V31.2584C77.3689 31.2584 77.1652 31.2584 76.7578 31.2584H75.3461H73.9344H73.3234ZM83.4371 31.2584C83.4371 31.2584 83.4371 31.0547 83.4371 30.6474V29.2357V27.824V27.2129H84.0481H85.4598H86.8716H87.4826C87.4826 27.2129 87.4826 27.4166 87.4826 27.824V29.2357V30.6474V31.2584C87.4826 31.2584 87.2789 31.2584 86.8716 31.2584H85.4598H84.0481H83.4371ZM73.3234 28.73C73.3234 28.73 73.3234 28.5263 73.3234 28.1189V26.7072V25.2955V24.6845H73.9344H75.3461H76.7578H77.3689C77.3689 24.6845 77.3689 24.8882 77.3689 25.2955V26.7072V28.1189V28.73C77.3689 28.73 77.1652 28.73 76.7578 28.73H75.3461H73.9344H73.3234ZM83.4371 28.73C83.4371 28.73 83.4371 28.5263 83.4371 28.1189V26.7072V25.2955V24.6845H84.0481H85.4598H86.8716H87.4826C87.4826 24.6845 87.4826 24.8882 87.4826 25.2955V26.7072V28.1189V28.73C87.4826 28.73 87.2789 28.73 86.8716 28.73H85.4598H84.0481H83.4371ZM83.4371 26.2016C83.4371 26.2016 83.4371 25.9979 83.4371 25.5905V24.1788V22.7671V22.1561H84.0481H85.4598H86.8716H87.4826C87.4826 22.1561 87.4826 22.3597 87.4826 22.7671V24.1788V25.5905V26.2016C87.4826 26.2016 87.2789 26.2016 86.8716 26.2016H85.4598H84.0481H83.4371ZM83.4371 23.6731C83.4371 23.6731 83.4371 23.4694 83.4371 23.0621V21.6504V20.2387V19.6276H84.0481H85.4598H86.8716H87.4826C87.4826 19.6276 87.4826 19.8313 87.4826 20.2387V21.6504V23.0621V23.6731C87.4826 23.6731 87.2789 23.6731 86.8716 23.6731H85.4598H84.0481H83.4371ZM75.8518 21.1447C75.8518 21.1447 75.8518 20.941 75.8518 20.5337V19.1219V17.7102V17.0992H76.4628H77.8746H79.2863H79.8973C79.8973 17.0992 79.8973 17.3029 79.8973 17.7102V19.1219V20.5337V21.1447C79.8973 21.1447 79.6936 21.1447 79.2863 21.1447H77.8746H76.4628H75.8518ZM78.3802 21.1447C78.3802 21.1447 78.3802 20.941 78.3802 20.5337V19.1219V17.7102V17.0992H78.9913H80.403H81.8147H82.4257C82.4257 17.0992 82.4257 17.3029 82.4257 17.7102V19.1219V20.5337V21.1447C82.4257 21.1447 82.2221 21.1447 81.8147 21.1447H80.403H78.9913H78.3802ZM80.9087 21.1447C80.9087 21.1447 80.9087 20.941 80.9087 20.5337V19.1219V17.7102V17.0992H81.5197H82.9314H84.3431H84.9542C84.9542 17.0992 84.9542 17.3029 84.9542 17.7102V19.1219V20.5337V21.1447C84.9542 21.1447 84.7505 21.1447 84.3431 21.1447H82.9314H81.5197H80.9087ZM83.4371 21.1447C83.4371 21.1447 83.4371 20.941 83.4371 20.5337V19.1219V17.7102V17.0992H84.0481H85.4598H86.8716H87.4826C87.4826 17.0992 87.4826 17.3029 87.4826 17.7102V19.1219V20.5337V21.1447C87.4826 21.1447 87.2789 21.1447 86.8716 21.1447H85.4598H84.0481H83.4371ZM73.3234 18.6163C73.3234 18.6163 73.3234 18.4126 73.3234 18.0052V16.5935V15.1818V14.5708H73.9344H75.3461H76.7578H77.3689C77.3689 14.5708 77.3689 14.7744 77.3689 15.1818V16.5935V18.0052V18.6163C77.3689 18.6163 77.1652 18.6163 76.7578 18.6163H75.3461H73.9344H73.3234ZM83.4371 18.6163C83.4371 18.6163 83.4371 18.4126 83.4371 18.0052V16.5935V15.1818V14.5708H84.0481H85.4598H86.8716H87.4826C87.4826 14.5708 87.4826 14.7744 87.4826 15.1818V16.5935V18.0052V18.6163C87.4826 18.6163 87.2789 18.6163 86.8716 18.6163H85.4598H84.0481H83.4371ZM73.3234 16.0878C73.3234 16.0878 73.3234 15.8841 73.3234 15.4768V14.0651V12.6534V12.0423H73.9344H75.3461H76.7578H77.3689C77.3689 12.0423 77.3689 12.246 77.3689 12.6534V14.0651V15.4768V16.0878C77.3689 16.0878 77.1652 16.0878 76.7578 16.0878H75.3461H73.9344H73.3234ZM83.4371 16.0878C83.4371 16.0878 83.4371 15.8841 83.4371 15.4768V14.0651V12.6534V12.0423H84.0481H85.4598H86.8716H87.4826C87.4826 12.0423 87.4826 12.246 87.4826 12.6534V14.0651V15.4768V16.0878C87.4826 16.0878 87.2789 16.0878 86.8716 16.0878H85.4598H84.0481H83.4371ZM73.3234 13.5594C73.3234 13.5594 73.3234 13.3557 73.3234 12.9484V11.5366V10.1249V9.5139H73.9344H75.3461H76.7578H77.3689C77.3689 9.5139 77.3689 9.71758 77.3689 10.1249V11.5366V12.9484V13.5594C77.3689 13.5594 77.1652 13.5594 76.7578 13.5594H75.3461H73.9344H73.3234ZM83.4371 13.5594C83.4371 13.5594 83.4371 13.3557 83.4371 12.9484V11.5366V10.1249V9.5139H84.0481H85.4598H86.8716H87.4826C87.4826 9.5139 87.4826 9.71758 87.4826 10.1249V11.5366V12.9484V13.5594C87.4826 13.5594 87.2789 13.5594 86.8716 13.5594H85.4598H84.0481H83.4371ZM73.3234 11.031C73.3234 11.031 73.3234 10.8273 73.3234 10.4199V9.00822V7.59651V6.98547H73.9344H75.3461H76.7578H77.3689C77.3689 6.98547 77.3689 7.18915 77.3689 7.59651V9.00822V10.4199V11.031C77.3689 11.031 77.1652 11.031 76.7578 11.031H75.3461H73.9344H73.3234ZM83.4371 11.031C83.4371 11.031 83.4371 10.8273 83.4371 10.4199V9.00822V7.59651V6.98547H84.0481H85.4598H86.8716H87.4826C87.4826 6.98547 87.4826 7.18915 87.4826 7.59651V9.00822V10.4199V11.031C87.4826 11.031 87.2789 11.031 86.8716 11.031H85.4598H84.0481H83.4371ZM75.8518 8.50253C75.8518 8.50253 75.8518 8.29885 75.8518 7.89149V6.47978V5.06808V4.45704H76.4628H77.8746H79.2863H79.8973C79.8973 4.45704 79.8973 4.66072 79.8973 5.06808V6.47978V7.89149V8.50253C79.8973 8.50253 79.6936 8.50253 79.2863 8.50253H77.8746H76.4628H75.8518ZM78.3802 8.50253C78.3802 8.50253 78.3802 8.29885 78.3802 7.89149V6.47978V5.06808V4.45704H78.9913H80.403H81.8147H82.4257C82.4257 4.45704 82.4257 4.66072 82.4257 5.06808V6.47978V7.89149V8.50253C82.4257 8.50253 82.2221 8.50253 81.8147 8.50253H80.403H78.9913H78.3802ZM80.9087 8.50253C80.9087 8.50253 80.9087 8.29885 80.9087 7.89149V6.47978V5.06808V4.45704H81.5197H82.9314H84.3431H84.9542C84.9542 4.45704 84.9542 4.66072 84.9542 5.06808V6.47978V7.89149V8.50253C84.9542 8.50253 84.7505 8.50253 84.3431 8.50253H82.9314H81.5197H80.9087ZM93.5656 33.7868C93.5656 33.7868 93.5656 33.5832 93.5656 33.1758V31.7641V30.3524V29.7414H94.1767H95.5884H97.0001H97.6111C97.6111 29.7414 97.6111 29.945 97.6111 30.3524V31.7641V33.1758V33.7868C97.6111 33.7868 97.4075 33.7868 97.0001 33.7868H95.5884H94.1767H93.5656ZM96.0941 33.7868C96.0941 33.7868 96.0941 33.5832 96.0941 33.1758V31.7641V30.3524V29.7414H96.7051H98.1168H99.5285H100.14C100.14 29.7414 100.14 29.945 100.14 30.3524V31.7641V33.1758V33.7868C100.14 33.7868 99.9359 33.7868 99.5285 33.7868H98.1168H96.7051H96.0941ZM98.6225 33.7868C98.6225 33.7868 98.6225 33.5832 98.6225 33.1758V31.7641V30.3524V29.7414H99.2335H100.645H102.057H102.668C102.668 29.7414 102.668 29.945 102.668 30.3524V31.7641V33.1758V33.7868C102.668 33.7868 102.464 33.7868 102.057 33.7868H100.645H99.2335H98.6225ZM91.0372 31.2584C91.0372 31.2584 91.0372 31.0547 91.0372 30.6474V29.2357V27.824V27.2129H91.6483H93.06H94.4717H95.0827C95.0827 27.2129 95.0827 27.4166 95.0827 27.824V29.2357V30.6474V31.2584C95.0827 31.2584 94.879 31.2584 94.4717 31.2584H93.06H91.6483H91.0372ZM101.151 31.2584C101.151 31.2584 101.151 31.0547 101.151 30.6474V29.2357V27.824V27.2129H101.762H103.174H104.585H105.196C105.196 27.2129 105.196 27.4166 105.196 27.824V29.2357V30.6474V31.2584C105.196 31.2584 104.993 31.2584 104.585 31.2584H103.174H101.762H101.151ZM91.0372 28.73C91.0372 28.73 91.0372 28.5263 91.0372 28.1189V26.7072V25.2955V24.6845H91.6483H93.06H94.4717H95.0827C95.0827 24.6845 95.0827 24.8882 95.0827 25.2955V26.7072V28.1189V28.73C95.0827 28.73 94.879 28.73 94.4717 28.73H93.06H91.6483H91.0372ZM101.151 28.73C101.151 28.73 101.151 28.5263 101.151 28.1189V26.7072V25.2955V24.6845H101.762H103.174H104.585H105.196C105.196 24.6845 105.196 24.8882 105.196 25.2955V26.7072V28.1189V28.73C105.196 28.73 104.993 28.73 104.585 28.73H103.174H101.762H101.151ZM101.151 26.2016C101.151 26.2016 101.151 25.9979 101.151 25.5905V24.1788V22.7671V22.1561H101.762H103.174H104.585H105.196C105.196 22.1561 105.196 22.3597 105.196 22.7671V24.1788V25.5905V26.2016C105.196 26.2016 104.993 26.2016 104.585 26.2016H103.174H101.762H101.151ZM101.151 23.6731C101.151 23.6731 101.151 23.4694 101.151 23.0621V21.6504V20.2387V19.6276H101.762H103.174H104.585H105.196C105.196 19.6276 105.196 19.8313 105.196 20.2387V21.6504V23.0621V23.6731C105.196 23.6731 104.993 23.6731 104.585 23.6731H103.174H101.762H101.151ZM91.0372 21.1447C91.0372 21.1447 91.0372 20.941 91.0372 20.5337V19.1219V17.7102V17.0992H91.6483H93.06H94.4717H95.0827C95.0827 17.0992 95.0827 17.3029 95.0827 17.7102V19.1219V20.5337V21.1447C95.0827 21.1447 94.879 21.1447 94.4717 21.1447H93.06H91.6483H91.0372ZM101.151 21.1447C101.151 21.1447 101.151 20.941 101.151 20.5337V19.1219V17.7102V17.0992H101.762H103.174H104.585H105.196C105.196 17.0992 105.196 17.3029 105.196 17.7102V19.1219V20.5337V21.1447C105.196 21.1447 104.993 21.1447 104.585 21.1447H103.174H101.762H101.151ZM93.5656 19.8805C93.5656 19.8805 93.5656 19.6768 93.5656 19.2694V17.8577V16.446V15.835H94.1767H95.5884H97.0001H97.6111C97.6111 15.835 97.6111 16.0387 97.6111 16.446V17.8577V19.2694V19.8805C97.6111 19.8805 97.4075 19.8805 97.0001 19.8805H95.5884H94.1767H93.5656ZM91.0372 18.6163C91.0372 18.6163 91.0372 18.4126 91.0372 18.0052V16.5935V15.1818V14.5708H91.6483H93.06H94.4717H95.0827C95.0827 14.5708 95.0827 14.7744 95.0827 15.1818V16.5935V18.0052V18.6163C95.0827 18.6163 94.879 18.6163 94.4717 18.6163H93.06H91.6483H91.0372ZM96.0941 18.6163C96.0941 18.6163 96.0941 18.4126 96.0941 18.0052V16.5935V15.1818V14.5708H96.7051H98.1168H99.5285H100.14C100.14 14.5708 100.14 14.7744 100.14 15.1818V16.5935V18.0052V18.6163C100.14 18.6163 99.9359 18.6163 99.5285 18.6163H98.1168H96.7051H96.0941ZM98.6225 18.6163C98.6225 18.6163 98.6225 18.4126 98.6225 18.0052V16.5935V15.1818V14.5708H99.2335H100.645H102.057H102.668C102.668 14.5708 102.668 14.7744 102.668 15.1818V16.5935V18.0052V18.6163C102.668 18.6163 102.464 18.6163 102.057 18.6163H100.645H99.2335H98.6225ZM91.0372 16.0878C91.0372 16.0878 91.0372 15.8841 91.0372 15.4768V14.0651V12.6534V12.0423H91.6483H93.06H94.4717H95.0827C95.0827 12.0423 95.0827 12.246 95.0827 12.6534V14.0651V15.4768V16.0878C95.0827 16.0878 94.879 16.0878 94.4717 16.0878H93.06H91.6483H91.0372ZM91.0372 13.5594C91.0372 13.5594 91.0372 13.3557 91.0372 12.9484V11.5366V10.1249V9.5139H91.6483H93.06H94.4717H95.0827C95.0827 9.5139 95.0827 9.71758 95.0827 10.1249V11.5366V12.9484V13.5594C95.0827 13.5594 94.879 13.5594 94.4717 13.5594H93.06H91.6483H91.0372ZM91.0372 11.031C91.0372 11.031 91.0372 10.8273 91.0372 10.4199V9.00822V7.59651V6.98547H91.6483H93.06H94.4717H95.0827C95.0827 6.98547 95.0827 7.18915 95.0827 7.59651V9.00822V10.4199V11.031C95.0827 11.031 94.879 11.031 94.4717 11.031H93.06H91.6483H91.0372ZM91.0372 8.50253C91.0372 8.50253 91.0372 8.29885 91.0372 7.89149V6.47978V5.06808V4.45704H91.6483H93.06H94.4717H95.0827C95.0827 4.45704 95.0827 4.66072 95.0827 5.06808V6.47978V7.89149V8.50253C95.0827 8.50253 94.879 8.50253 94.4717 8.50253H93.06H91.6483H91.0372ZM93.5656 8.50253C93.5656 8.50253 93.5656 8.29885 93.5656 7.89149V6.47978V5.06808V4.45704H94.1767H95.5884H97.0001H97.6111C97.6111 4.45704 97.6111 4.66072 97.6111 5.06808V6.47978V7.89149V8.50253C97.6111 8.50253 97.4075 8.50253 97.0001 8.50253H95.5884H94.1767H93.5656ZM96.0941 8.50253C96.0941 8.50253 96.0941 8.29885 96.0941 7.89149V6.47978V5.06808V4.45704H96.7051H98.1168H99.5285H100.14C100.14 4.45704 100.14 4.66072 100.14 5.06808V6.47978V7.89149V8.50253C100.14 8.50253 99.9359 8.50253 99.5285 8.50253H98.1168H96.7051H96.0941ZM98.6225 8.50253C98.6225 8.50253 98.6225 8.29885 98.6225 7.89149V6.47978V5.06808V4.45704H99.2335H100.645H102.057H102.668C102.668 4.45704 102.668 4.66072 102.668 5.06808V6.47978V7.89149V8.50253C102.668 8.50253 102.464 8.50253 102.057 8.50253H100.645H99.2335H98.6225ZM101.151 8.50253C101.151 8.50253 101.151 8.29885 101.151 7.89149V6.47978V5.06808V4.45704H101.762H103.174H104.585H105.196C105.196 4.45704 105.196 4.66072 105.196 5.06808V6.47978V7.89149V8.50253C105.196 8.50253 104.993 8.50253 104.585 8.50253H103.174H101.762H101.151ZM111.279 18.6163C111.279 18.6163 111.279 18.4126 111.279 18.0052V16.5935V15.1818V14.5708H111.891H113.302H114.714H115.325C115.325 14.5708 115.325 14.7744 115.325 15.1818V16.5935V18.0052V18.6163C115.325 18.6163 115.121 18.6163 114.714 18.6163H113.302H111.891H111.279ZM108.751 17.352C108.751 17.352 108.751 17.1484 108.751 16.741V15.3293V13.9176V13.3066H109.362H110.774H112.186H112.797C112.797 13.3066 112.797 13.5102 112.797 13.9176V15.3293V16.741V17.352C112.797 17.352 112.593 17.352 112.186 17.352H110.774H109.362H108.751ZM113.808 17.352C113.808 17.352 113.808 17.1484 113.808 16.741V15.3293V13.9176V13.3066H114.419H115.831H117.242H117.853C117.853 13.3066 117.853 13.5102 117.853 13.9176V15.3293V16.741V17.352C117.853 17.352 117.65 17.352 117.242 17.352H115.831H114.419H113.808ZM108.751 14.8236C108.751 14.8236 108.751 14.6199 108.751 14.2126V12.8009V11.3892V10.7781H109.362H110.774H112.186H112.797C112.797 10.7781 112.797 10.9818 112.797 11.3892V12.8009V14.2126V14.8236C112.797 14.8236 112.593 14.8236 112.186 14.8236H110.774H109.362H108.751ZM113.808 14.8236C113.808 14.8236 113.808 14.6199 113.808 14.2126V12.8009V11.3892V10.7781H114.419H115.831H117.242H117.853C117.853 10.7781 117.853 10.9818 117.853 11.3892V12.8009V14.2126V14.8236C117.853 14.8236 117.65 14.8236 117.242 14.8236H115.831H114.419H113.808ZM108.751 12.2952C108.751 12.2952 108.751 12.0915 108.751 11.6841V10.2724V8.86073V8.24969H109.362H110.774H112.186H112.797C112.797 8.24969 112.797 8.45337 112.797 8.86073V10.2724V11.6841V12.2952C112.797 12.2952 112.593 12.2952 112.186 12.2952H110.774H109.362H108.751ZM113.808 12.2952C113.808 12.2952 113.808 12.0915 113.808 11.6841V10.2724V8.86073V8.24969H114.419H115.831H117.242H117.853C117.853 8.24969 117.853 8.45337 117.853 8.86073V10.2724V11.6841V12.2952C117.853 12.2952 117.65 12.2952 117.242 12.2952H115.831H114.419H113.808ZM111.279 11.031C111.279 11.031 111.279 10.8273 111.279 10.4199V9.00822V7.59651V6.98547H111.891H113.302H114.714H115.325C115.325 6.98547 115.325 7.18915 115.325 7.59651V9.00822V10.4199V11.031C115.325 11.031 115.121 11.031 114.714 11.031H113.302H111.891H111.279ZM112.544 33.7868C112.544 33.7868 112.544 33.5832 112.544 33.1758V31.7641V30.3524V29.7414H113.155H114.566H115.978H116.589C116.589 29.7414 116.589 29.945 116.589 30.3524V31.7641V33.1758V33.7868C116.589 33.7868 116.386 33.7868 115.978 33.7868H114.566H113.155H112.544ZM113.808 31.2584C113.808 31.2584 113.808 31.0547 113.808 30.6474V29.2357V27.824V27.2129H114.419H115.831H117.242H117.853C117.853 27.2129 117.853 27.4166 117.853 27.824V29.2357V30.6474V31.2584C117.853 31.2584 117.65 31.2584 117.242 31.2584H115.831H114.419H113.808ZM115.072 28.73C115.072 28.73 115.072 28.5263 115.072 28.1189V26.7072V25.2955V24.6845H115.683H117.095H118.507H119.118C119.118 24.6845 119.118 24.8882 119.118 25.2955V26.7072V28.1189V28.73C119.118 28.73 118.914 28.73 118.507 28.73H117.095H115.683H115.072ZM116.336 26.2016C116.336 26.2016 116.336 25.9979 116.336 25.5905V24.1788V22.7671V22.1561H116.947H118.359H119.771H120.382C120.382 22.1561 120.382 22.3597 120.382 22.7671V24.1788V25.5905V26.2016C120.382 26.2016 120.178 26.2016 119.771 26.2016H118.359H116.947H116.336ZM117.601 23.6731C117.601 23.6731 117.601 23.4694 117.601 23.0621V21.6504V20.2387V19.6276H118.212H119.623H121.035H121.646C121.646 19.6276 121.646 19.8313 121.646 20.2387V21.6504V23.0621V23.6731C121.646 23.6731 121.442 23.6731 121.035 23.6731H119.623H118.212H117.601ZM118.865 21.1447C118.865 21.1447 118.865 20.941 118.865 20.5337V19.1219V17.7102V17.0992H119.476H120.888H122.299H122.91C122.91 17.0992 122.91 17.3029 122.91 17.7102V19.1219V20.5337V21.1447C122.91 21.1447 122.707 21.1447 122.299 21.1447H120.888H119.476H118.865ZM120.129 18.6163C120.129 18.6163 120.129 18.4126 120.129 18.0052V16.5935V15.1818V14.5708H120.74H122.152H123.563H124.174C124.174 14.5708 124.174 14.7744 124.174 15.1818V16.5935V18.0052V18.6163C124.174 18.6163 123.971 18.6163 123.563 18.6163H122.152H120.74H120.129ZM121.393 16.0878C121.393 16.0878 121.393 15.8841 121.393 15.4768V14.0651V12.6534V12.0423H122.004H123.416H124.828H125.439C125.439 12.0423 125.439 12.246 125.439 12.6534V14.0651V15.4768V16.0878C125.439 16.0878 125.235 16.0878 124.828 16.0878H123.416H122.004H121.393ZM122.657 13.5594C122.657 13.5594 122.657 13.3557 122.657 12.9484V11.5366V10.1249V9.5139H123.268H124.68H126.092H126.703C126.703 9.5139 126.703 9.71758 126.703 10.1249V11.5366V12.9484V13.5594C126.703 13.5594 126.499 13.5594 126.092 13.5594H124.68H123.268H122.657ZM123.922 11.031C123.922 11.031 123.922 10.8273 123.922 10.4199V9.00822V7.59651V6.98547H124.533H125.944H127.356H127.967C127.967 6.98547 127.967 7.18915 127.967 7.59651V9.00822V10.4199V11.031C127.967 11.031 127.763 11.031 127.356 11.031H125.944H124.533H123.922ZM125.186 8.50253C125.186 8.50253 125.186 8.29885 125.186 7.89149V6.47978V5.06808V4.45704H125.797H127.209H128.62H129.231C129.231 4.45704 129.231 4.66072 129.231 5.06808V6.47978V7.89149V8.50253C129.231 8.50253 129.028 8.50253 128.62 8.50253H127.209H125.797H125.186ZM126.45 31.2584C126.45 31.2584 126.45 31.0547 126.45 30.6474V29.2357V27.824V27.2129H127.061H128.473H129.885H130.496C130.496 27.2129 130.496 27.4166 130.496 27.824V29.2357V30.6474V31.2584C130.496 31.2584 130.292 31.2584 129.885 31.2584H128.473H127.061H126.45ZM123.922 29.9942C123.922 29.9942 123.922 29.7905 123.922 29.3832V27.9715V26.5597V25.9487H124.533H125.944H127.356H127.967C127.967 25.9487 127.967 26.1524 127.967 26.5597V27.9715V29.3832V29.9942C127.967 29.9942 127.763 29.9942 127.356 29.9942H125.944H124.533H123.922ZM128.979 29.9942C128.979 29.9942 128.979 29.7905 128.979 29.3832V27.9715V26.5597V25.9487H129.59H131.001H132.413H133.024C133.024 25.9487 133.024 26.1524 133.024 26.5597V27.9715V29.3832V29.9942C133.024 29.9942 132.82 29.9942 132.413 29.9942H131.001H129.59H128.979ZM123.922 27.4658C123.922 27.4658 123.922 27.2621 123.922 26.8547V25.443V24.0313V23.4203H124.533H125.944H127.356H127.967C127.967 23.4203 127.967 23.624 127.967 24.0313V25.443V26.8547V27.4658C127.967 27.4658 127.763 27.4658 127.356 27.4658H125.944H124.533H123.922ZM128.979 27.4658C128.979 27.4658 128.979 27.2621 128.979 26.8547V25.443V24.0313V23.4203H129.59H131.001H132.413H133.024C133.024 23.4203 133.024 23.624 133.024 24.0313V25.443V26.8547V27.4658C133.024 27.4658 132.82 27.4658 132.413 27.4658H131.001H129.59H128.979ZM123.922 24.9373C123.922 24.9373 123.922 24.7337 123.922 24.3263V22.9146V21.5029V20.8918H124.533H125.944H127.356H127.967C127.967 20.8918 127.967 21.0955 127.967 21.5029V22.9146V24.3263V24.9373C127.967 24.9373 127.763 24.9373 127.356 24.9373H125.944H124.533H123.922ZM128.979 24.9373C128.979 24.9373 128.979 24.7337 128.979 24.3263V22.9146V21.5029V20.8918H129.59H131.001H132.413H133.024C133.024 20.8918 133.024 21.0955 133.024 21.5029V22.9146V24.3263V24.9373C133.024 24.9373 132.82 24.9373 132.413 24.9373H131.001H129.59H128.979ZM126.45 23.6731C126.45 23.6731 126.45 23.4694 126.45 23.0621V21.6504V20.2387V19.6276H127.061H128.473H129.885H130.496C130.496 19.6276 130.496 19.8313 130.496 20.2387V21.6504V23.0621V23.6731C130.496 23.6731 130.292 23.6731 129.885 23.6731H128.473H127.061H126.45Z" fill="#A78BFA"/>
</svg>
