<svg width="201" height="44" viewBox="0 0 201 44" fill="none" xmlns="http://www.w3.org/2000/svg">
<path d="M200.933 43.3846H0.344238V0.401245H200.933V43.3846Z" stroke="#E5E7EB"/>
<path d="M89.532 33.7868C89.532 33.7868 89.532 33.5832 89.532 33.1758V31.7641V30.3524V29.7414H90.143H91.5547H92.9664H93.5775C93.5775 29.7414 93.5775 29.945 93.5775 30.3524V31.7641V33.1758V33.7868C93.5775 33.7868 93.3738 33.7868 92.9664 33.7868H91.5547H90.143H89.532ZM92.0604 33.7868C92.0604 33.7868 92.0604 33.5832 92.0604 33.1758V31.7641V30.3524V29.7414H92.6715H94.0832H95.4949H96.1059C96.1059 29.7414 96.1059 29.945 96.1059 30.3524V31.7641V33.1758V33.7868C96.1059 33.7868 95.9022 33.7868 95.4949 33.7868H94.0832H92.6715H92.0604ZM94.5889 33.7868C94.5889 33.7868 94.5889 33.5832 94.5889 33.1758V31.7641V30.3524V29.7414H95.1999H96.6116H98.0233H98.6343C98.6343 29.7414 98.6343 29.945 98.6343 30.3524V31.7641V33.1758V33.7868C98.6343 33.7868 98.4307 33.7868 98.0233 33.7868H96.6116H95.1999H94.5889ZM87.0036 31.2584C87.0036 31.2584 87.0036 31.0547 87.0036 30.6474V29.2357V27.824V27.2129H87.6146H89.0263H90.438H91.0491C91.0491 27.2129 91.0491 27.4166 91.0491 27.824V29.2357V30.6474V31.2584C91.0491 31.2584 90.8454 31.2584 90.438 31.2584H89.0263H87.6146H87.0036ZM97.1173 31.2584C97.1173 31.2584 97.1173 31.0547 97.1173 30.6474V29.2357V27.824V27.2129H97.7283H99.14H100.552H101.163C101.163 27.2129 101.163 27.4166 101.163 27.824V29.2357V30.6474V31.2584C101.163 31.2584 100.959 31.2584 100.552 31.2584H99.14H97.7283H97.1173ZM87.0036 28.73C87.0036 28.73 87.0036 28.5263 87.0036 28.1189V26.7072V25.2955V24.6845H87.6146H89.0263H90.438H91.0491C91.0491 24.6845 91.0491 24.8882 91.0491 25.2955V26.7072V28.1189V28.73C91.0491 28.73 90.8454 28.73 90.438 28.73H89.0263H87.6146H87.0036ZM97.1173 28.73C97.1173 28.73 97.1173 28.5263 97.1173 28.1189V26.7072V25.2955V24.6845H97.7283H99.14H100.552H101.163C101.163 24.6845 101.163 24.8882 101.163 25.2955V26.7072V28.1189V28.73C101.163 28.73 100.959 28.73 100.552 28.73H99.14H97.7283H97.1173ZM87.0036 26.2016C87.0036 26.2016 87.0036 25.9979 87.0036 25.5905V24.1788V22.7671V22.1561H87.6146H89.0263H90.438H91.0491C91.0491 22.1561 91.0491 22.3597 91.0491 22.7671V24.1788V25.5905V26.2016C91.0491 26.2016 90.8454 26.2016 90.438 26.2016H89.0263H87.6146H87.0036ZM97.1173 26.2016C97.1173 26.2016 97.1173 25.9979 97.1173 25.5905V24.1788V22.7671V22.1561H97.7283H99.14H100.552H101.163C101.163 22.1561 101.163 22.3597 101.163 22.7671V24.1788V25.5905V26.2016C101.163 26.2016 100.959 26.2016 100.552 26.2016H99.14H97.7283H97.1173ZM87.0036 23.6731C87.0036 23.6731 87.0036 23.4694 87.0036 23.0621V21.6504V20.2387V19.6276H87.6146H89.0263H90.438H91.0491C91.0491 19.6276 91.0491 19.8313 91.0491 20.2387V21.6504V23.0621V23.6731C91.0491 23.6731 90.8454 23.6731 90.438 23.6731H89.0263H87.6146H87.0036ZM97.1173 23.6731C97.1173 23.6731 97.1173 23.4694 97.1173 23.0621V21.6504V20.2387V19.6276H97.7283H99.14H100.552H101.163C101.163 19.6276 101.163 19.8313 101.163 20.2387V21.6504V23.0621V23.6731C101.163 23.6731 100.959 23.6731 100.552 23.6731H99.14H97.7283H97.1173ZM89.532 21.1447C89.532 21.1447 89.532 20.941 89.532 20.5337V19.1219V17.7102V17.0992H90.143H91.5547H92.9664H93.5775C93.5775 17.0992 93.5775 17.3029 93.5775 17.7102V19.1219V20.5337V21.1447C93.5775 21.1447 93.3738 21.1447 92.9664 21.1447H91.5547H90.143H89.532ZM92.0604 21.1447C92.0604 21.1447 92.0604 20.941 92.0604 20.5337V19.1219V17.7102V17.0992H92.6715H94.0832H95.4949H96.1059C96.1059 17.0992 96.1059 17.3029 96.1059 17.7102V19.1219V20.5337V21.1447C96.1059 21.1447 95.9022 21.1447 95.4949 21.1447H94.0832H92.6715H92.0604ZM94.5889 21.1447C94.5889 21.1447 94.5889 20.941 94.5889 20.5337V19.1219V17.7102V17.0992H95.1999H96.6116H98.0233H98.6343C98.6343 17.0992 98.6343 17.3029 98.6343 17.7102V19.1219V20.5337V21.1447C98.6343 21.1447 98.4307 21.1447 98.0233 21.1447H96.6116H95.1999H94.5889ZM87.0036 18.6163C87.0036 18.6163 87.0036 18.4126 87.0036 18.0052V16.5935V15.1818V14.5708H87.6146H89.0263H90.438H91.0491C91.0491 14.5708 91.0491 14.7744 91.0491 15.1818V16.5935V18.0052V18.6163C91.0491 18.6163 90.8454 18.6163 90.438 18.6163H89.0263H87.6146H87.0036ZM97.1173 18.6163C97.1173 18.6163 97.1173 18.4126 97.1173 18.0052V16.5935V15.1818V14.5708H97.7283H99.14H100.552H101.163C101.163 14.5708 101.163 14.7744 101.163 15.1818V16.5935V18.0052V18.6163C101.163 18.6163 100.959 18.6163 100.552 18.6163H99.14H97.7283H97.1173ZM87.0036 16.0878C87.0036 16.0878 87.0036 15.8841 87.0036 15.4768V14.0651V12.6534V12.0423H87.6146H89.0263H90.438H91.0491C91.0491 12.0423 91.0491 12.246 91.0491 12.6534V14.0651V15.4768V16.0878C91.0491 16.0878 90.8454 16.0878 90.438 16.0878H89.0263H87.6146H87.0036ZM97.1173 16.0878C97.1173 16.0878 97.1173 15.8841 97.1173 15.4768V14.0651V12.6534V12.0423H97.7283H99.14H100.552H101.163C101.163 12.0423 101.163 12.246 101.163 12.6534V14.0651V15.4768V16.0878C101.163 16.0878 100.959 16.0878 100.552 16.0878H99.14H97.7283H97.1173ZM87.0036 13.5594C87.0036 13.5594 87.0036 13.3557 87.0036 12.9484V11.5366V10.1249V9.5139H87.6146H89.0263H90.438H91.0491C91.0491 9.5139 91.0491 9.71758 91.0491 10.1249V11.5366V12.9484V13.5594C91.0491 13.5594 90.8454 13.5594 90.438 13.5594H89.0263H87.6146H87.0036ZM97.1173 13.5594C97.1173 13.5594 97.1173 13.3557 97.1173 12.9484V11.5366V10.1249V9.5139H97.7283H99.14H100.552H101.163C101.163 9.5139 101.163 9.71758 101.163 10.1249V11.5366V12.9484V13.5594C101.163 13.5594 100.959 13.5594 100.552 13.5594H99.14H97.7283H97.1173ZM87.0036 11.031C87.0036 11.031 87.0036 10.8273 87.0036 10.4199V9.00822V7.59651V6.98547H87.6146H89.0263H90.438H91.0491C91.0491 6.98547 91.0491 7.18915 91.0491 7.59651V9.00822V10.4199V11.031C91.0491 11.031 90.8454 11.031 90.438 11.031H89.0263H87.6146H87.0036ZM97.1173 11.031C97.1173 11.031 97.1173 10.8273 97.1173 10.4199V9.00822V7.59651V6.98547H97.7283H99.14H100.552H101.163C101.163 6.98547 101.163 7.18915 101.163 7.59651V9.00822V10.4199V11.031C101.163 11.031 100.959 11.031 100.552 11.031H99.14H97.7283H97.1173ZM89.532 8.50253C89.532 8.50253 89.532 8.29885 89.532 7.89149V6.47978V5.06808V4.45704H90.143H91.5547H92.9664H93.5775C93.5775 4.45704 93.5775 4.66072 93.5775 5.06808V6.47978V7.89149V8.50253C93.5775 8.50253 93.3738 8.50253 92.9664 8.50253H91.5547H90.143H89.532ZM92.0604 8.50253C92.0604 8.50253 92.0604 8.29885 92.0604 7.89149V6.47978V5.06808V4.45704H92.6715H94.0832H95.4949H96.1059C96.1059 4.45704 96.1059 4.66072 96.1059 5.06808V6.47978V7.89149V8.50253C96.1059 8.50253 95.9022 8.50253 95.4949 8.50253H94.0832H92.6715H92.0604ZM94.5889 8.50253C94.5889 8.50253 94.5889 8.29885 94.5889 7.89149V6.47978V5.06808V4.45704H95.1999H96.6116H98.0233H98.6343C98.6343 4.45704 98.6343 4.66072 98.6343 5.06808V6.47978V7.89149V8.50253C98.6343 8.50253 98.4307 8.50253 98.0233 8.50253H96.6116H95.1999H94.5889ZM109.774 28.73C109.774 28.73 109.774 28.5263 109.774 28.1189V26.7072V25.2955V24.6845H110.385H111.797H113.209H113.82C113.82 24.6845 113.82 24.8882 113.82 25.2955V26.7072V28.1189V28.73C113.82 28.73 113.616 28.73 113.209 28.73H111.797H110.385H109.774ZM109.774 26.2016C109.774 26.2016 109.774 25.9979 109.774 25.5905V24.1788V22.7671V22.1561H110.385H111.797H113.209H113.82C113.82 22.1561 113.82 22.3597 113.82 22.7671V24.1788V25.5905V26.2016C113.82 26.2016 113.616 26.2016 113.209 26.2016H111.797H110.385H109.774ZM104.717 23.6731C104.717 23.6731 104.717 23.4694 104.717 23.0621V21.6504V20.2387V19.6276H105.328H106.74H108.152H108.763C108.763 19.6276 108.763 19.8313 108.763 20.2387V21.6504V23.0621V23.6731C108.763 23.6731 108.559 23.6731 108.152 23.6731H106.74H105.328H104.717ZM107.246 23.6731C107.246 23.6731 107.246 23.4694 107.246 23.0621V21.6504V20.2387V19.6276H107.857H109.269H110.68H111.291C111.291 19.6276 111.291 19.8313 111.291 20.2387V21.6504V23.0621V23.6731C111.291 23.6731 111.088 23.6731 110.68 23.6731H109.269H107.857H107.246ZM109.774 23.6731C109.774 23.6731 109.774 23.4694 109.774 23.0621V21.6504V20.2387V19.6276H110.385H111.797H113.209H113.82C113.82 19.6276 113.82 19.8313 113.82 20.2387V21.6504V23.0621V23.6731C113.82 23.6731 113.616 23.6731 113.209 23.6731H111.797H110.385H109.774ZM112.303 23.6731C112.303 23.6731 112.303 23.4694 112.303 23.0621V21.6504V20.2387V19.6276H112.914H114.325H115.737H116.348C116.348 19.6276 116.348 19.8313 116.348 20.2387V21.6504V23.0621V23.6731C116.348 23.6731 116.145 23.6731 115.737 23.6731H114.325H112.914H112.303ZM114.831 23.6731C114.831 23.6731 114.831 23.4694 114.831 23.0621V21.6504V20.2387V19.6276H115.442H116.854H118.266H118.877C118.877 19.6276 118.877 19.8313 118.877 20.2387V21.6504V23.0621V23.6731C118.877 23.6731 118.673 23.6731 118.266 23.6731H116.854H115.442H114.831ZM109.774 21.1447C109.774 21.1447 109.774 20.941 109.774 20.5337V19.1219V17.7102V17.0992H110.385H111.797H113.209H113.82C113.82 17.0992 113.82 17.3029 113.82 17.7102V19.1219V20.5337V21.1447C113.82 21.1447 113.616 21.1447 113.209 21.1447H111.797H110.385H109.774ZM109.774 18.6163C109.774 18.6163 109.774 18.4126 109.774 18.0052V16.5935V15.1818V14.5708H110.385H111.797H113.209H113.82C113.82 14.5708 113.82 14.7744 113.82 15.1818V16.5935V18.0052V18.6163C113.82 18.6163 113.616 18.6163 113.209 18.6163H111.797H110.385H109.774Z" fill="#A78BFA"/>
</svg>
