<svg width="17" height="17" viewBox="0 0 17 17" fill="none" xmlns="http://www.w3.org/2000/svg">
<path d="M16.9924 1.19858C16.9924 4.92223 14.2193 8.00015 10.6268 8.47544C10.3941 6.72506 9.62375 5.14513 8.48633 3.90937C9.74176 1.66731 12.1412 0.149658 14.8946 0.149658H15.9435C16.5237 0.149658 16.9924 0.618393 16.9924 1.19858ZM0.209717 3.29641C0.209717 2.71623 0.678452 2.24749 1.25863 2.24749H2.30755C6.36228 2.24749 9.64998 5.5352 9.64998 9.58992V10.6388V15.8834C9.64998 16.4636 9.18124 16.9323 8.60106 16.9323C8.02088 16.9323 7.55214 16.4636 7.55214 15.8834V10.6388C3.49742 10.6388 0.209717 7.35113 0.209717 3.29641Z" fill="#818CF8"/>
</svg>
