<svg width="15" height="18" viewBox="0 0 15 18" fill="none" xmlns="http://www.w3.org/2000/svg">
<path d="M3.40554 0.887695C1.66827 0.887695 0.258789 2.29718 0.258789 4.03445V14.5236C0.258789 16.2609 1.66827 17.6704 3.40554 17.6704H12.8458H13.8947C14.4749 17.6704 14.9436 17.2016 14.9436 16.6215C14.9436 16.0413 14.4749 15.5725 13.8947 15.5725V13.4747C14.4749 13.4747 14.9436 13.006 14.9436 12.4258V1.93661C14.9436 1.35643 14.4749 0.887695 13.8947 0.887695H12.8458H3.40554ZM3.40554 13.4747H11.7969V15.5725H3.40554C2.82536 15.5725 2.35662 15.1038 2.35662 14.5236C2.35662 13.9434 2.82536 13.4747 3.40554 13.4747ZM4.45446 5.60783C4.45446 5.31937 4.69047 5.08337 4.97892 5.08337H11.2724C11.5609 5.08337 11.7969 5.31937 11.7969 5.60783C11.7969 5.89628 11.5609 6.13228 11.2724 6.13228H4.97892C4.69047 6.13228 4.45446 5.89628 4.45446 5.60783ZM4.97892 7.1812H11.2724C11.5609 7.1812 11.7969 7.41721 11.7969 7.70566C11.7969 7.99411 11.5609 8.23012 11.2724 8.23012H4.97892C4.69047 8.23012 4.45446 7.99411 4.45446 7.70566C4.45446 7.41721 4.69047 7.1812 4.97892 7.1812Z" fill="#4F46E5"/>
</svg>
