<svg width="201" height="44" viewBox="0 0 201 44" fill="none" xmlns="http://www.w3.org/2000/svg">
<path d="M200.833 43.3347H0.243652V0.351318H200.833V43.3347Z" stroke="#E5E7EB"/>
<path d="M71.2529 33.7369C71.2529 33.7369 71.2529 33.5332 71.2529 33.1259V31.7142V30.3025V29.6914H71.8639H73.2756H74.6873H75.2983C75.2983 29.6914 75.2983 29.8951 75.2983 30.3025V31.7142V33.1259V33.7369C75.2983 33.7369 75.0947 33.7369 74.6873 33.7369H73.2756H71.8639H71.2529ZM73.7813 33.7369C73.7813 33.7369 73.7813 33.5332 73.7813 33.1259V31.7142V30.3025V29.6914H74.3923H75.804H77.2157H77.8268C77.8268 29.6914 77.8268 29.8951 77.8268 30.3025V31.7142V33.1259V33.7369C77.8268 33.7369 77.6231 33.7369 77.2157 33.7369H75.804H74.3923H73.7813ZM76.3097 33.7369C76.3097 33.7369 76.3097 33.5332 76.3097 33.1259V31.7142V30.3025V29.6914H76.9208H78.3325H79.7442H80.3552C80.3552 29.6914 80.3552 29.8951 80.3552 30.3025V31.7142V33.1259V33.7369C80.3552 33.7369 80.1515 33.7369 79.7442 33.7369H78.3325H76.9208H76.3097ZM78.8382 33.7369C78.8382 33.7369 78.8382 33.5332 78.8382 33.1259V31.7142V30.3025V29.6914H79.4492H80.8609H82.2726H82.8836C82.8836 29.6914 82.8836 29.8951 82.8836 30.3025V31.7142V33.1259V33.7369C82.8836 33.7369 82.68 33.7369 82.2726 33.7369H80.8609H79.4492H78.8382ZM81.3666 33.7369C81.3666 33.7369 81.3666 33.5332 81.3666 33.1259V31.7142V30.3025V29.6914H81.9776H83.3893H84.801H85.4121C85.4121 29.6914 85.4121 29.8951 85.4121 30.3025V31.7142V33.1259V33.7369C85.4121 33.7369 85.2084 33.7369 84.801 33.7369H83.3893H81.9776H81.3666ZM73.7813 31.2085C73.7813 31.2085 73.7813 31.0048 73.7813 30.5975V29.1857V27.774V27.163H74.3923H75.804H77.2157H77.8268C77.8268 27.163 77.8268 27.3667 77.8268 27.774V29.1857V30.5975V31.2085C77.8268 31.2085 77.6231 31.2085 77.2157 31.2085H75.804H74.3923H73.7813ZM75.0455 28.6801C75.0455 28.6801 75.0455 28.4764 75.0455 28.069V26.6573V25.2456V24.6346H75.6565H77.0682H78.48H79.091C79.091 24.6346 79.091 24.8382 79.091 25.2456V26.6573V28.069V28.6801C79.091 28.6801 78.8873 28.6801 78.48 28.6801H77.0682H75.6565H75.0455ZM76.3097 26.1516C76.3097 26.1516 76.3097 25.9479 76.3097 25.5406V24.1289V22.7172V22.1061H76.9208H78.3325H79.7442H80.3552C80.3552 22.1061 80.3552 22.3098 80.3552 22.7172V24.1289V25.5406V26.1516C80.3552 26.1516 80.1515 26.1516 79.7442 26.1516H78.3325H76.9208H76.3097ZM77.5739 23.6232C77.5739 23.6232 77.5739 23.4195 77.5739 23.0122V21.6004V20.1887V19.5777H78.185H79.5967H81.0084H81.6194C81.6194 19.5777 81.6194 19.7814 81.6194 20.1887V21.6004V23.0122V23.6232C81.6194 23.6232 81.4157 23.6232 81.0084 23.6232H79.5967H78.185H77.5739ZM78.8382 21.0948C78.8382 21.0948 78.8382 20.8911 78.8382 20.4837V19.072V17.6603V17.0493H79.4492H80.8609H82.2726H82.8836C82.8836 17.0493 82.8836 17.253 82.8836 17.6603V19.072V20.4837V21.0948C82.8836 21.0948 82.68 21.0948 82.2726 21.0948H80.8609H79.4492H78.8382ZM80.1024 18.5663C80.1024 18.5663 80.1024 18.3627 80.1024 17.9553V16.5436V15.1319V14.5208H80.7134H82.1251H83.5368H84.1479C84.1479 14.5208 84.1479 14.7245 84.1479 15.1319V16.5436V17.9553V18.5663C84.1479 18.5663 83.9442 18.5663 83.5368 18.5663H82.1251H80.7134H80.1024ZM71.2529 16.0379C71.2529 16.0379 71.2529 15.8342 71.2529 15.4269V14.0152V12.6034V11.9924H71.8639H73.2756H74.6873H75.2983C75.2983 11.9924 75.2983 12.1961 75.2983 12.6034V14.0152V15.4269V16.0379C75.2983 16.0379 75.0947 16.0379 74.6873 16.0379H73.2756H71.8639H71.2529ZM81.3666 16.0379C81.3666 16.0379 81.3666 15.8342 81.3666 15.4269V14.0152V12.6034V11.9924H81.9776H83.3893H84.801H85.4121C85.4121 11.9924 85.4121 12.1961 85.4121 12.6034V14.0152V15.4269V16.0379C85.4121 16.0379 85.2084 16.0379 84.801 16.0379H83.3893H81.9776H81.3666ZM71.2529 13.5095C71.2529 13.5095 71.2529 13.3058 71.2529 12.8984V11.4867V10.075V9.46398H71.8639H73.2756H74.6873H75.2983C75.2983 9.46398 75.2983 9.66765 75.2983 10.075V11.4867V12.8984V13.5095C75.2983 13.5095 75.0947 13.5095 74.6873 13.5095H73.2756H71.8639H71.2529ZM81.3666 13.5095C81.3666 13.5095 81.3666 13.3058 81.3666 12.8984V11.4867V10.075V9.46398H81.9776H83.3893H84.801H85.4121C85.4121 9.46398 85.4121 9.66765 85.4121 10.075V11.4867V12.8984V13.5095C85.4121 13.5095 85.2084 13.5095 84.801 13.5095H83.3893H81.9776H81.3666ZM71.2529 10.981C71.2529 10.981 71.2529 10.7774 71.2529 10.37V8.95829V7.54658V6.93554H71.8639H73.2756H74.6873H75.2983C75.2983 6.93554 75.2983 7.13922 75.2983 7.54658V8.95829V10.37V10.981C75.2983 10.981 75.0947 10.981 74.6873 10.981H73.2756H71.8639H71.2529ZM81.3666 10.981C81.3666 10.981 81.3666 10.7774 81.3666 10.37V8.95829V7.54658V6.93554H81.9776H83.3893H84.801H85.4121C85.4121 6.93554 85.4121 7.13922 85.4121 7.54658V8.95829V10.37V10.981C85.4121 10.981 85.2084 10.981 84.801 10.981H83.3893H81.9776H81.3666ZM73.7813 8.4526C73.7813 8.4526 73.7813 8.24892 73.7813 7.84157V6.42986V5.01815V4.40711H74.3923H75.804H77.2157H77.8268C77.8268 4.40711 77.8268 4.61079 77.8268 5.01815V6.42986V7.84157V8.4526C77.8268 8.4526 77.6231 8.4526 77.2157 8.4526H75.804H74.3923H73.7813ZM76.3097 8.4526C76.3097 8.4526 76.3097 8.24892 76.3097 7.84157V6.42986V5.01815V4.40711H76.9208H78.3325H79.7442H80.3552C80.3552 4.40711 80.3552 4.61079 80.3552 5.01815V6.42986V7.84157V8.4526C80.3552 8.4526 80.1515 8.4526 79.7442 8.4526H78.3325H76.9208H76.3097ZM78.8382 8.4526C78.8382 8.4526 78.8382 8.24892 78.8382 7.84157V6.42986V5.01815V4.40711H79.4492H80.8609H82.2726H82.8836C82.8836 4.40711 82.8836 4.61079 82.8836 5.01815V6.42986V7.84157V8.4526C82.8836 8.4526 82.68 8.4526 82.2726 8.4526H80.8609H79.4492H78.8382ZM95.2878 33.7369C95.2878 33.7369 95.2878 33.5332 95.2878 33.1259V31.7142V30.3025V29.6914H95.8988H97.3105H98.7222H99.3333C99.3333 29.6914 99.3333 29.8951 99.3333 30.3025V31.7142V33.1259V33.7369C99.3333 33.7369 99.1296 33.7369 98.7222 33.7369H97.3105H95.8988H95.2878ZM95.2878 31.2085C95.2878 31.2085 95.2878 31.0048 95.2878 30.5975V29.1857V27.774V27.163H95.8988H97.3105H98.7222H99.3333C99.3333 27.163 99.3333 27.3667 99.3333 27.774V29.1857V30.5975V31.2085C99.3333 31.2085 99.1296 31.2085 98.7222 31.2085H97.3105H95.8988H95.2878ZM87.7025 28.6801C87.7025 28.6801 87.7025 28.4764 87.7025 28.069V26.6573V25.2456V24.6346H88.3135H89.7252H91.1369H91.748C91.748 24.6346 91.748 24.8382 91.748 25.2456V26.6573V28.069V28.6801C91.748 28.6801 91.5443 28.6801 91.1369 28.6801H89.7252H88.3135H87.7025ZM90.2309 28.6801C90.2309 28.6801 90.2309 28.4764 90.2309 28.069V26.6573V25.2456V24.6346H90.8419H92.2537H93.6654H94.2764C94.2764 24.6346 94.2764 24.8382 94.2764 25.2456V26.6573V28.069V28.6801C94.2764 28.6801 94.0727 28.6801 93.6654 28.6801H92.2537H90.8419H90.2309ZM92.7593 28.6801C92.7593 28.6801 92.7593 28.4764 92.7593 28.069V26.6573V25.2456V24.6346H93.3704H94.7821H96.1938H96.8048C96.8048 24.6346 96.8048 24.8382 96.8048 25.2456V26.6573V28.069V28.6801C96.8048 28.6801 96.6012 28.6801 96.1938 28.6801H94.7821H93.3704H92.7593ZM95.2878 28.6801C95.2878 28.6801 95.2878 28.4764 95.2878 28.069V26.6573V25.2456V24.6346H95.8988H97.3105H98.7222H99.3333C99.3333 24.6346 99.3333 24.8382 99.3333 25.2456V26.6573V28.069V28.6801C99.3333 28.6801 99.1296 28.6801 98.7222 28.6801H97.3105H95.8988H95.2878ZM97.8162 28.6801C97.8162 28.6801 97.8162 28.4764 97.8162 28.069V26.6573V25.2456V24.6346H98.4272H99.839H101.251H101.862C101.862 24.6346 101.862 24.8382 101.862 25.2456V26.6573V28.069V28.6801C101.862 28.6801 101.658 28.6801 101.251 28.6801H99.839H98.4272H97.8162ZM100.345 28.6801C100.345 28.6801 100.345 28.4764 100.345 28.069V26.6573V25.2456V24.6346H100.956H102.367H103.779H104.39C104.39 24.6346 104.39 24.8382 104.39 25.2456V26.6573V28.069V28.6801C104.39 28.6801 104.186 28.6801 103.779 28.6801H102.367H100.956H100.345ZM87.7025 26.1516C87.7025 26.1516 87.7025 25.9479 87.7025 25.5406V24.1289V22.7172V22.1061H88.3135H89.7252H91.1369H91.748C91.748 22.1061 91.748 22.3098 91.748 22.7172V24.1289V25.5406V26.1516C91.748 26.1516 91.5443 26.1516 91.1369 26.1516H89.7252H88.3135H87.7025ZM95.2878 26.1516C95.2878 26.1516 95.2878 25.9479 95.2878 25.5406V24.1289V22.7172V22.1061H95.8988H97.3105H98.7222H99.3333C99.3333 22.1061 99.3333 22.3098 99.3333 22.7172V24.1289V25.5406V26.1516C99.3333 26.1516 99.1296 26.1516 98.7222 26.1516H97.3105H95.8988H95.2878ZM87.7025 23.6232C87.7025 23.6232 87.7025 23.4195 87.7025 23.0122V21.6004V20.1887V19.5777H88.3135H89.7252H91.1369H91.748C91.748 19.5777 91.748 19.7814 91.748 20.1887V21.6004V23.0122V23.6232C91.748 23.6232 91.5443 23.6232 91.1369 23.6232H89.7252H88.3135H87.7025ZM95.2878 23.6232C95.2878 23.6232 95.2878 23.4195 95.2878 23.0122V21.6004V20.1887V19.5777H95.8988H97.3105H98.7222H99.3333C99.3333 19.5777 99.3333 19.7814 99.3333 20.1887V21.6004V23.0122V23.6232C99.3333 23.6232 99.1296 23.6232 98.7222 23.6232H97.3105H95.8988H95.2878ZM88.9667 21.0948C88.9667 21.0948 88.9667 20.8911 88.9667 20.4837V19.072V17.6603V17.0493H89.5777H90.9894H92.4011H93.0122C93.0122 17.0493 93.0122 17.253 93.0122 17.6603V19.072V20.4837V21.0948C93.0122 21.0948 92.8085 21.0948 92.4011 21.0948H90.9894H89.5777H88.9667ZM90.2309 18.5663C90.2309 18.5663 90.2309 18.3627 90.2309 17.9553V16.5436V15.1319V14.5208H90.8419H92.2537H93.6654H94.2764C94.2764 14.5208 94.2764 14.7245 94.2764 15.1319V16.5436V17.9553V18.5663C94.2764 18.5663 94.0727 18.5663 93.6654 18.5663H92.2537H90.8419H90.2309ZM91.4951 16.0379C91.4951 16.0379 91.4951 15.8342 91.4951 15.4269V14.0152V12.6034V11.9924H92.1062H93.5179H94.9296H95.5406C95.5406 11.9924 95.5406 12.1961 95.5406 12.6034V14.0152V15.4269V16.0379C95.5406 16.0379 95.3369 16.0379 94.9296 16.0379H93.5179H92.1062H91.4951ZM92.7593 13.5095C92.7593 13.5095 92.7593 13.3058 92.7593 12.8984V11.4867V10.075V9.46398H93.3704H94.7821H96.1938H96.8048C96.8048 9.46398 96.8048 9.66765 96.8048 10.075V11.4867V12.8984V13.5095C96.8048 13.5095 96.6012 13.5095 96.1938 13.5095H94.7821H93.3704H92.7593ZM94.0236 10.981C94.0236 10.981 94.0236 10.7774 94.0236 10.37V8.95829V7.54658V6.93554H94.6346H96.0463H97.458H98.0691C98.0691 6.93554 98.0691 7.13922 98.0691 7.54658V8.95829V10.37V10.981C98.0691 10.981 97.8654 10.981 97.458 10.981H96.0463H94.6346H94.0236ZM95.2878 8.4526C95.2878 8.4526 95.2878 8.24892 95.2878 7.84157V6.42986V5.01815V4.40711H95.8988H97.3105H98.7222H99.3333C99.3333 4.40711 99.3333 4.61079 99.3333 5.01815V6.42986V7.84157V8.4526C99.3333 8.4526 99.1296 8.4526 98.7222 8.4526H97.3105H95.8988H95.2878ZM101.624 41.3222C101.624 41.3222 101.624 41.1185 101.624 40.7112V39.2995V37.8878V37.2767H102.235H103.646H105.058H105.669C105.669 37.2767 105.669 37.4804 105.669 37.8878V39.2995V40.7112V41.3222C105.669 41.3222 105.465 41.3222 105.058 41.3222H103.646H102.235H101.624ZM102.888 38.7938C102.888 38.7938 102.888 38.5901 102.888 38.1827V36.771V35.3593V34.7483H103.499H104.911H106.322H106.933C106.933 34.7483 106.933 34.952 106.933 35.3593V36.771V38.1827V38.7938C106.933 38.7938 106.73 38.7938 106.322 38.7938H104.911H103.499H102.888ZM104.152 36.2654C104.152 36.2654 104.152 36.0617 104.152 35.6543V34.2426V32.8309V32.2199H104.763H106.175H107.587H108.198C108.198 32.2199 108.198 32.4235 108.198 32.8309V34.2426V35.6543V36.2654C108.198 36.2654 107.994 36.2654 107.587 36.2654H106.175H104.763H104.152ZM105.416 33.7369C105.416 33.7369 105.416 33.5332 105.416 33.1259V31.7142V30.3025V29.6914H106.027H107.439H108.851H109.462C109.462 29.6914 109.462 29.8951 109.462 30.3025V31.7142V33.1259V33.7369C109.462 33.7369 109.258 33.7369 108.851 33.7369H107.439H106.027H105.416ZM106.681 31.2085C106.681 31.2085 106.681 31.0048 106.681 30.5975V29.1857V27.774V27.163H107.292H108.703H110.115H110.726C110.726 27.163 110.726 27.3667 110.726 27.774V29.1857V30.5975V31.2085C110.726 31.2085 110.522 31.2085 110.115 31.2085H108.703H107.292H106.681ZM107.945 28.6801C107.945 28.6801 107.945 28.4764 107.945 28.069V26.6573V25.2456V24.6346H108.556H109.967H111.379H111.99C111.99 24.6346 111.99 24.8382 111.99 25.2456V26.6573V28.069V28.6801C111.99 28.6801 111.787 28.6801 111.379 28.6801H109.967H108.556H107.945ZM109.209 26.1516C109.209 26.1516 109.209 25.9479 109.209 25.5406V24.1289V22.7172V22.1061H109.82H111.232H112.643H113.254C113.254 22.1061 113.254 22.3098 113.254 22.7172V24.1289V25.5406V26.1516C113.254 26.1516 113.051 26.1516 112.643 26.1516H111.232H109.82H109.209ZM110.473 23.6232C110.473 23.6232 110.473 23.4195 110.473 23.0122V21.6004V20.1887V19.5777H111.084H112.496H113.908H114.519C114.519 19.5777 114.519 19.7814 114.519 20.1887V21.6004V23.0122V23.6232C114.519 23.6232 114.315 23.6232 113.908 23.6232H112.496H111.084H110.473ZM111.737 21.0948C111.737 21.0948 111.737 20.8911 111.737 20.4837V19.072V17.6603V17.0493H112.348H113.76H115.172H115.783C115.783 17.0493 115.783 17.253 115.783 17.6603V19.072V20.4837V21.0948C115.783 21.0948 115.579 21.0948 115.172 21.0948H113.76H112.348H111.737ZM113.002 18.5663C113.002 18.5663 113.002 18.3627 113.002 17.9553V16.5436V15.1319V14.5208H113.613H115.024H116.436H117.047C117.047 14.5208 117.047 14.7245 117.047 15.1319V16.5436V17.9553V18.5663C117.047 18.5663 116.843 18.5663 116.436 18.5663H115.024H113.613H113.002ZM114.266 16.0379C114.266 16.0379 114.266 15.8342 114.266 15.4269V14.0152V12.6034V11.9924H114.877H116.289H117.7H118.311C118.311 11.9924 118.311 12.1961 118.311 12.6034V14.0152V15.4269V16.0379C118.311 16.0379 118.108 16.0379 117.7 16.0379H116.289H114.877H114.266ZM115.53 13.5095C115.53 13.5095 115.53 13.3058 115.53 12.8984V11.4867V10.075V9.46398H116.141H117.553H118.964H119.576C119.576 9.46398 119.576 9.66765 119.576 10.075V11.4867V12.8984V13.5095C119.576 13.5095 119.372 13.5095 118.964 13.5095H117.553H116.141H115.53ZM116.794 10.981C116.794 10.981 116.794 10.7774 116.794 10.37V8.95829V7.54658V6.93554H117.405H118.817H120.229H120.84C120.84 6.93554 120.84 7.13922 120.84 7.54658V8.95829V10.37V10.981C120.84 10.981 120.636 10.981 120.229 10.981H118.817H117.405H116.794ZM118.058 8.4526C118.058 8.4526 118.058 8.24892 118.058 7.84157V6.42986V5.01815V4.40711H118.67H120.081H121.493H122.104C122.104 4.40711 122.104 4.61079 122.104 5.01815V6.42986V7.84157V8.4526C122.104 8.4526 121.9 8.4526 121.493 8.4526H120.081H118.67H118.058ZM119.323 5.92417C119.323 5.92417 119.323 5.72049 119.323 5.31313V3.90143V2.48972V1.87868H119.934H121.345H122.757H123.368C123.368 1.87868 123.368 2.08236 123.368 2.48972V3.90143V5.31313V5.92417C123.368 5.92417 123.165 5.92417 122.757 5.92417H121.345H119.934H119.323ZM120.575 33.7369C120.575 33.7369 120.575 33.5332 120.575 33.1259V31.7142V30.3025V29.6914H121.186H122.597H124.009H124.62C124.62 29.6914 124.62 29.8951 124.62 30.3025V31.7142V33.1259V33.7369C124.62 33.7369 124.416 33.7369 124.009 33.7369H122.597H121.186H120.575ZM121.839 31.2085C121.839 31.2085 121.839 31.0048 121.839 30.5975V29.1857V27.774V27.163H122.45H123.862H125.273H125.884C125.884 27.163 125.884 27.3667 125.884 27.774V29.1857V30.5975V31.2085C125.884 31.2085 125.681 31.2085 125.273 31.2085H123.862H122.45H121.839ZM123.103 28.6801C123.103 28.6801 123.103 28.4764 123.103 28.069V26.6573V25.2456V24.6346H123.714H125.126H126.537H127.148C127.148 24.6346 127.148 24.8382 127.148 25.2456V26.6573V28.069V28.6801C127.148 28.6801 126.945 28.6801 126.537 28.6801H125.126H123.714H123.103ZM124.367 26.1516C124.367 26.1516 124.367 25.9479 124.367 25.5406V24.1289V22.7172V22.1061H124.978H126.39H127.802H128.413C128.413 22.1061 128.413 22.3098 128.413 22.7172V24.1289V25.5406V26.1516C128.413 26.1516 128.209 26.1516 127.802 26.1516H126.39H124.978H124.367ZM125.631 23.6232C125.631 23.6232 125.631 23.4195 125.631 23.0122V21.6004V20.1887V19.5777H126.242H127.654H129.066H129.677C129.677 19.5777 129.677 19.7814 129.677 20.1887V21.6004V23.0122V23.6232C129.677 23.6232 129.473 23.6232 129.066 23.6232H127.654H126.242H125.631ZM126.896 21.0948C126.896 21.0948 126.896 20.8911 126.896 20.4837V19.072V17.6603V17.0493H127.507H128.918H130.33H130.941C130.941 17.0493 130.941 17.253 130.941 17.6603V19.072V20.4837V21.0948C130.941 21.0948 130.737 21.0948 130.33 21.0948H128.918H127.507H126.896ZM128.16 18.5663C128.16 18.5663 128.16 18.3627 128.16 17.9553V16.5436V15.1319V14.5208H128.771H130.183H131.594H132.205C132.205 14.5208 132.205 14.7245 132.205 15.1319V16.5436V17.9553V18.5663C132.205 18.5663 132.002 18.5663 131.594 18.5663H130.183H128.771H128.16ZM129.424 16.0379C129.424 16.0379 129.424 15.8342 129.424 15.4269V14.0152V12.6034V11.9924H130.035H131.447H132.859H133.47C133.47 11.9924 133.47 12.1961 133.47 12.6034V14.0152V15.4269V16.0379C133.47 16.0379 133.266 16.0379 132.859 16.0379H131.447H130.035H129.424ZM118.046 13.5095C118.046 13.5095 118.046 13.3058 118.046 12.8984V11.4867V10.075V9.46398H118.657H120.069H121.481H122.092C122.092 9.46398 122.092 9.66765 122.092 10.075V11.4867V12.8984V13.5095C122.092 13.5095 121.888 13.5095 121.481 13.5095H120.069H118.657H118.046ZM130.688 13.5095C130.688 13.5095 130.688 13.3058 130.688 12.8984V11.4867V10.075V9.46398H131.299H132.711H134.123H134.734C134.734 9.46398 134.734 9.66765 134.734 10.075V11.4867V12.8984V13.5095C134.734 13.5095 134.53 13.5095 134.123 13.5095H132.711H131.299H130.688ZM118.046 10.981C118.046 10.981 118.046 10.7774 118.046 10.37V8.95829V7.54658V6.93554H118.657H120.069H121.481H122.092C122.092 6.93554 122.092 7.13922 122.092 7.54658V8.95829V10.37V10.981C122.092 10.981 121.888 10.981 121.481 10.981H120.069H118.657H118.046ZM130.688 10.981C130.688 10.981 130.688 10.7774 130.688 10.37V8.95829V7.54658V6.93554H131.299H132.711H134.123H134.734C134.734 6.93554 134.734 7.13922 134.734 7.54658V8.95829V10.37V10.981C134.734 10.981 134.53 10.981 134.123 10.981H132.711H131.299H130.688ZM118.046 8.4526C118.046 8.4526 118.046 8.24892 118.046 7.84157V6.42986V5.01815V4.40711H118.657H120.069H121.481H122.092C122.092 4.40711 122.092 4.61079 122.092 5.01815V6.42986V7.84157V8.4526C122.092 8.4526 121.888 8.4526 121.481 8.4526H120.069H118.657H118.046ZM120.575 8.4526C120.575 8.4526 120.575 8.24892 120.575 7.84157V6.42986V5.01815V4.40711H121.186H122.597H124.009H124.62C124.62 4.40711 124.62 4.61079 124.62 5.01815V6.42986V7.84157V8.4526C124.62 8.4526 124.416 8.4526 124.009 8.4526H122.597H121.186H120.575ZM123.103 8.4526C123.103 8.4526 123.103 8.24892 123.103 7.84157V6.42986V5.01815V4.40711H123.714H125.126H126.537H127.148C127.148 4.40711 127.148 4.61079 127.148 5.01815V6.42986V7.84157V8.4526C127.148 8.4526 126.945 8.4526 126.537 8.4526H125.126H123.714H123.103ZM125.631 8.4526C125.631 8.4526 125.631 8.24892 125.631 7.84157V6.42986V5.01815V4.40711H126.242H127.654H129.066H129.677C129.677 4.40711 129.677 4.61079 129.677 5.01815V6.42986V7.84157V8.4526C129.677 8.4526 129.473 8.4526 129.066 8.4526H127.654H126.242H125.631ZM128.16 8.4526C128.16 8.4526 128.16 8.24892 128.16 7.84157V6.42986V5.01815V4.40711H128.771H130.183H131.594H132.205C132.205 4.40711 132.205 4.61079 132.205 5.01815V6.42986V7.84157V8.4526C132.205 8.4526 132.002 8.4526 131.594 8.4526H130.183H128.771H128.16ZM130.688 8.4526C130.688 8.4526 130.688 8.24892 130.688 7.84157V6.42986V5.01815V4.40711H131.299H132.711H134.123H134.734C134.734 4.40711 134.734 4.61079 134.734 5.01815V6.42986V7.84157V8.4526C134.734 8.4526 134.53 8.4526 134.123 8.4526H132.711H131.299H130.688Z" fill="#A78BFA"/>
</svg>
