<?xml version="1.0" encoding="UTF-8"?><svg id="Layer_3" xmlns="http://www.w3.org/2000/svg" xmlns:xlink="http://www.w3.org/1999/xlink" viewBox="0 0 24 24"><defs><style>.cls-1{fill:none;}.cls-2{clip-path:url(#clippath);}.cls-3{fill:#94a2b8;}</style><clipPath id="clippath"><rect class="cls-1" x="1.99" y="1.86" width="20.02" height="20.15"/></clipPath></defs><g class="cls-2"><path class="cls-3" d="M11.16,2.09c.54-.2,1.14-.2,1.69,0l7.51,2.7c.99.36,1.66,1.31,1.66,2.37v9.55c0,1.06-.66,2.01-1.66,2.37l-7.51,2.7c-.54.2-1.14.2-1.69,0l-7.51-2.7c-.99-.36-1.66-1.31-1.66-2.37V7.16c0-1.06.66-2.01,1.66-2.37l7.51-2.7ZM12,4.46l-6.79,2.44,6.79,2.44,6.79-2.44-6.79-2.44ZM13.25,18.96l6.26-2.25v-7.4l-6.26,2.25v7.4Z"/></g></svg>