<?xml version="1.0" encoding="UTF-8"?><svg id="Layer_3" xmlns="http://www.w3.org/2000/svg" xmlns:xlink="http://www.w3.org/1999/xlink" viewBox="0 0 24 24"><defs><style>.cls-1{fill:none;}.cls-2{clip-path:url(#clippath);}.cls-3{fill:#94a2b8;}</style><clipPath id="clippath"><rect class="cls-1" x="1.96" y="1.96" width="20.08" height="20.08"/></clipPath></defs><g class="cls-2"><path class="cls-3" d="M14.33,2.57c-.22-.38-.64-.61-1.07-.61s-.85.23-1.07.61l-3.77,6.28c-.23.39-.24.87-.02,1.26.22.39.64.64,1.09.64h7.53c.45,0,.87-.24,1.09-.64.22-.39.22-.87-.02-1.26l-3.77-6.28ZM13.26,14.2v5.65c0,.87.7,1.57,1.57,1.57h5.65c.87,0,1.57-.7,1.57-1.57v-5.65c0-.87-.7-1.57-1.57-1.57h-5.65c-.87,0-1.57.7-1.57,1.57ZM6.98,22.04c1.33,0,2.61-.53,3.55-1.47.94-.94,1.47-2.22,1.47-3.55s-.53-2.61-1.47-3.55c-.94-.94-2.22-1.47-3.55-1.47s-2.61.53-3.55,1.47c-.94.94-1.47,2.22-1.47,3.55s.53,2.61,1.47,3.55c.94.94,2.22,1.47,3.55,1.47Z"/></g></svg>