<svg width="17" height="19" viewBox="0 0 17 19" fill="none" xmlns="http://www.w3.org/2000/svg">
<g clip-path="url(#clip0_0_236)">
<path d="M11.0018 0.116211H6.49905H5.37336C4.75072 0.116211 4.24767 0.619254 4.24767 1.2419C4.24767 1.86455 4.75072 2.36759 5.37336 2.36759V7.0392C5.37336 7.4543 5.25728 7.86588 5.03918 8.21766L1.23294 14.4054C0.997246 14.7924 0.870605 15.2321 0.870605 15.6859C0.870605 17.0332 1.96464 18.1272 3.31195 18.1272H14.1889C15.5362 18.1272 16.6303 17.0332 16.6303 15.6859C16.6303 15.2356 16.5036 14.7924 16.2679 14.4054L12.4617 8.22118C12.2436 7.86588 12.1275 7.45782 12.1275 7.04272V2.36759C12.7502 2.36759 13.2532 1.86455 13.2532 1.2419C13.2532 0.619254 12.7502 0.116211 12.1275 0.116211H11.0018ZM7.62474 7.0392V2.36759H9.87612V7.0392C9.87612 7.87292 10.1083 8.68904 10.5445 9.39963L11.7581 11.3731H5.74273L6.95637 9.39963C7.39257 8.68904 7.62474 7.87292 7.62474 7.0392Z" fill="#FF006E"/>
</g>
<defs>
<clipPath id="clip0_0_236">
<path d="M0.870605 0.116211H16.6303V18.1272H0.870605V0.116211Z" fill="white"/>
</clipPath>
</defs>
</svg>
