<?xml version="1.0" encoding="UTF-8"?><svg id="Layer_3" xmlns="http://www.w3.org/2000/svg" xmlns:xlink="http://www.w3.org/1999/xlink" viewBox="0 0 24 24"><defs><style>.cls-1{fill:none;}.cls-2{clip-path:url(#clippath);}.cls-3{fill:#94a2b8;}</style><clipPath id="clippath"><rect class="cls-1" x="1.69" y="3.75" width="20.62" height="16.5"/></clipPath></defs><g class="cls-2"><path class="cls-3" d="M3.75,5.81v9.28h16.5V5.81H3.75ZM1.69,5.81c0-1.14.92-2.06,2.06-2.06h16.5c1.14,0,2.06.92,2.06,2.06v9.28c0,1.14-.92,2.06-2.06,2.06H3.75c-1.14,0-2.06-.92-2.06-2.06V5.81ZM5.81,18.19h12.37c.57,0,1.03.46,1.03,1.03s-.46,1.03-1.03,1.03H5.81c-.57,0-1.03-.46-1.03-1.03s.46-1.03,1.03-1.03Z"/></g></svg>