<?xml version="1.0" encoding="UTF-8"?><svg id="Layer_3" xmlns="http://www.w3.org/2000/svg" xmlns:xlink="http://www.w3.org/1999/xlink" viewBox="0 0 24 24"><defs><style>.cls-1{fill:none;}.cls-2{clip-path:url(#clippath);}.cls-3{fill:#94a2b8;}</style><clipPath id="clippath"><rect class="cls-1" x="1.98" y=".55" width="20.04" height="22.91"/></clipPath></defs><g class="cls-2"><path class="cls-3" d="M13.34,2.91c-.21-.56-.75-.93-1.34-.93s-1.13.37-1.34.93l-6.09,16.25h-1.15c-.79,0-1.43.64-1.43,1.43s.64,1.43,1.43,1.43h4.3c.79,0,1.43-.64,1.43-1.43s-.64-1.43-1.43-1.43h-.08l.81-2.15h7.14l.81,2.15h-.08c-.79,0-1.43.64-1.43,1.43s.64,1.43,1.43,1.43h4.3c.79,0,1.43-.64,1.43-1.43s-.64-1.43-1.43-1.43h-1.15L13.34,2.91ZM14.5,14.15h-4.99l2.5-6.66,2.5,6.66Z"/></g></svg>