<svg width="19" height="19" viewBox="0 0 19 19" fill="none" xmlns="http://www.w3.org/2000/svg">
<g clip-path="url(#clip0_0_241)">
<path d="M6.05258 13.6559L4.96559 12.5689C4.66658 12.2699 4.56104 11.8372 4.69472 11.4362C4.80025 11.1231 4.94096 10.715 5.10982 10.2472H1.388C1.08547 10.2472 0.804052 10.0854 0.652788 9.82152C0.501523 9.55769 0.505041 9.23405 0.659823 8.97373L2.50666 5.8605C2.96397 5.0901 3.79065 4.61872 4.68416 4.61872H7.5793C7.66373 4.47801 7.74815 4.34785 7.83258 4.22121C10.7136 -0.0282673 15.0053 -0.168978 17.5663 0.302404C17.9743 0.376278 18.2909 0.696396 18.3683 1.10446C18.8397 3.66892 18.6955 7.9571 14.4495 10.8382C14.3264 10.9226 14.1927 11.007 14.052 11.0914V13.9866C14.052 14.8801 13.5806 15.7103 12.8102 16.1641L9.697 18.0109C9.43669 18.1657 9.11305 18.1692 8.84922 18.0179C8.58538 17.8667 8.42357 17.5888 8.42357 17.2827V13.5117C7.92756 13.684 7.49487 13.8248 7.16772 13.9303C6.77373 14.0569 6.34456 13.9479 6.04906 13.6559H6.05258ZM14.052 6.02583C14.4252 6.02583 14.7831 5.87758 15.047 5.6137C15.3109 5.34982 15.4591 4.99191 15.4591 4.61872C15.4591 4.24553 15.3109 3.88763 15.047 3.62374C14.7831 3.35986 14.4252 3.21161 14.052 3.21161C13.6788 3.21161 13.3209 3.35986 13.057 3.62374C12.7932 3.88763 12.6449 4.24553 12.6449 4.61872C12.6449 4.99191 12.7932 5.34982 13.057 5.6137C13.3209 5.87758 13.6788 6.02583 14.052 6.02583Z" fill="#8338EC"/>
</g>
<defs>
<clipPath id="clip0_0_241">
<path d="M0.543945 0.116211H18.555V18.1272H0.543945V0.116211Z" fill="white"/>
</clipPath>
</defs>
</svg>
