<?xml version="1.0" encoding="UTF-8"?><svg id="Layer_2" xmlns="http://www.w3.org/2000/svg" viewBox="0 0 24 24"><defs><style>.cls-1{fill:none;stroke:#03ffa4;stroke-linecap:round;stroke-linejoin:round;stroke-width:2px;}</style></defs><path class="cls-1" d="M14,11.05c0,1.1-.9,2-2,2s-2-.9-2-2c0-2.21,1.79-4,4-4s4,1.79,4,4c0,3.31-2.69,6-6,6s-6-2.69-6-6c0-4.42,3.58-8,8-8s8,3.58,8,8c0,5.52-4.48,10-10,10S2,16.57,2,11.05c0-2.61.85-5.14,2.42-7.22.62-.91,1.86-1.15,2.78-.53.91.62,1.15,1.86.53,2.78-.05.07-.1.13-.15.2"/></svg>